<svg width="48" height="48" viewBox="0 0 48 48" fill="none" xmlns="http://www.w3.org/2000/svg">
<rect x="18.8398" y="14.5767" width="20.6148" height="20.6148" rx="3.84" transform="rotate(-45 18.8398 14.5767)" fill="#3732C2"/>
<rect x="18.8467" y="33.4233" width="20.6148" height="20.6148" rx="3.84" transform="rotate(-45 18.8467 33.4233)" fill="#C071E4"/>
<rect y="33.4233" width="20.6148" height="20.6148" rx="3.84" transform="rotate(-45 0 33.4233)" fill="#E3E2FF"/>
<rect y="14.5767" width="20.6148" height="20.6148" rx="3.84" transform="rotate(-45 0 14.5767)" fill="#6885FA"/>
<path d="M21.5545 17.2923C20.0555 15.7926 20.0557 13.3617 21.5551 11.8624L30.702 2.71545C32.2016 1.21583 34.633 1.21583 36.1326 2.71544L43.4632 10.046C45.5143 12.0971 44.638 15.5946 41.862 16.4361L27.8232 20.6923C26.4671 21.1034 24.9949 20.7343 23.9932 19.7321L21.5545 17.2923Z" fill="#3732C2"/>
</svg>
