<svg width="48" height="48" viewBox="0 0 48 48" fill="none" xmlns="http://www.w3.org/2000/svg">
<rect width="48" height="48" fill="#060606"/>
<rect x="20.1299" y="16.9326" width="15.461" height="15.461" rx="2.88" transform="rotate(-45 20.1299 16.9326)" fill="#3732C2"/>
<rect x="20.1348" y="31.0674" width="15.461" height="15.461" rx="2.88" transform="rotate(-45 20.1348 31.0674)" fill="#C071E4"/>
<rect x="6" y="31.0674" width="15.461" height="15.461" rx="2.88" transform="rotate(-45 6 31.0674)" fill="#E3E2FF"/>
<rect x="6" y="16.9326" width="15.461" height="15.461" rx="2.88" transform="rotate(-45 6 16.9326)" fill="#6885FA"/>
<path d="M22.1656 18.9694C21.0413 17.8446 21.0416 16.0214 22.1661 14.8969L29.0262 8.03681C30.1509 6.9121 31.9744 6.91209 33.0991 8.0368L38.597 13.5346C40.1353 15.073 39.478 17.696 37.3961 18.3272L26.8671 21.5193C25.8501 21.8276 24.7459 21.5508 23.9946 20.7992L22.1656 18.9694Z" fill="#3732C2"/>
</svg>
