<svg width="256" height="256" viewBox="0 0 256 256" fill="none" xmlns="http://www.w3.org/2000/svg">
<path d="M213.5 3H42.5C19.0279 3 0 22.0584 0 45.5681V210.432C0 233.942 19.0279 253 42.5 253H213.5C236.972 253 256 233.942 256 210.432V45.5681C256 22.0584 236.972 3 213.5 3Z" fill="#330000"/>
<path d="M124.054 153.03H84.3833L76.312 178.144C76.085 179.088 75.2199 179.738 74.251 179.692H54.1583C53.0125 179.692 52.6118 179.061 52.9562 177.8L87.3026 78.7226C87.6463 77.6907 87.9899 76.5153 88.3333 75.1964C88.7826 72.9014 89.0126 70.5689 89.0202 68.2303C88.973 67.8987 89.0844 67.5641 89.3208 67.3272C89.5573 67.0903 89.8913 66.9787 90.2224 67.026H117.528C118.328 67.026 118.786 67.3127 118.902 67.8862L157.885 177.971C158.229 179.119 157.885 179.693 156.855 179.692H134.529C133.736 179.78 133.001 179.264 132.812 178.488L124.054 153.03ZM90.5656 131.357H117.699L117.313 130.078L116.692 128.053L116.249 126.631L115.542 124.392L114.039 119.677L112.717 115.497L109.284 104.61C108.401 101.809 107.581 99.0917 106.824 96.4588L106.196 94.246L105.462 91.628L104.341 87.5722C104.271 87.3146 104.201 87.0596 104.133 86.8071H103.961C103.102 90.9364 102.055 95.0242 100.825 99.0577L98.2767 107.266L96.8749 111.801L95.4599 116.392C95.2044 117.222 94.9496 118.042 94.6954 118.852L93.9351 121.255L93.179 123.6L92.4271 125.888L91.6794 128.119C91.4308 128.853 91.183 129.577 90.9358 130.292L90.5656 131.357ZM181.067 85.2591C177.525 85.4016 174.089 84.0252 171.622 81.4749C169.165 78.8177 167.867 75.2891 168.015 71.6704C167.889 68.0826 169.294 64.6108 171.879 62.1239C174.348 59.7507 177.632 58.4276 181.044 58.4214L181.41 58.4258C185.532 58.4258 188.767 59.6585 191.114 62.1239C193.506 64.7116 194.773 68.1463 194.634 71.6704C194.779 75.3044 193.447 78.8421 190.942 81.4749C188.409 83.9753 184.979 85.3407 181.434 85.2714L181.067 85.2591ZM169.217 177.971V95.7514C169.217 94.7195 169.673 94.2033 170.591 94.2033H191.715C192.63 94.2033 193.088 94.7193 193.089 95.7514V177.971C193.089 179.119 192.631 179.693 191.715 179.692H170.763C169.787 179.692 169.273 179.177 169.221 178.148L169.217 177.971Z" fill="#FF9A00"/>
</svg>
