<svg width="256" height="256" viewBox="0 0 256 256" fill="none" xmlns="http://www.w3.org/2000/svg">
<path d="M213.5 3H42.5C19.0279 3 0 22.0584 0 45.5681V210.432C0 233.942 19.0279 253 42.5 253H213.5C236.972 253 256 233.942 256 210.432V45.5681C256 22.0584 236.972 3 213.5 3Z" fill="#001E36"/>
<path d="M57.6445 178.315V68.402C57.6445 67.601 57.9882 67.198 58.6752 67.198L59.762 67.1947L61.6199 67.1742L64.2024 67.1233L72.8526 66.94L82.1266 66.7678C85.3891 66.7115 88.6233 66.6818 91.8292 66.6818C100.529 66.6818 107.856 67.7712 113.811 69.95C119.183 71.77 124.082 74.7668 128.151 78.7224C131.601 82.151 134.266 86.2884 135.965 90.8491C137.571 95.2875 138.385 99.9746 138.37 104.696C138.37 113.871 136.251 121.44 132.015 127.401C127.869 133.22 122.089 137.666 115.416 140.177L114.842 140.388C107.869 142.993 100.147 143.935 91.6778 143.994L90.3621 143.997L88.4095 143.987L87.4236 143.973L86.3256 143.947L85.6645 143.921L85.2622 143.9L84.2731 143.864L83.0642 143.84L81.2439 143.826C81.1111 143.826 80.976 143.825 80.8386 143.825V178.143C80.8994 178.57 80.7562 179 80.4521 179.305C80.148 179.609 79.7185 179.752 79.2928 179.692H58.8465C58.0445 179.692 57.6445 179.235 57.6445 178.315ZM80.8386 87.8389V123.688C82.325 123.804 83.6988 123.861 84.9599 123.86H90.6271C94.5363 123.847 98.4215 123.264 102.16 122.131L102.906 121.897C106.309 120.885 109.349 118.914 111.665 116.22C113.817 113.678 114.932 110.175 115.009 105.712L115.014 105.212C115.104 101.885 114.24 98.6012 112.523 95.7512C110.718 92.9955 108.11 90.8635 105.053 89.6451C101.061 88.0909 96.7968 87.3596 92.5162 87.4951L90.3382 87.5014L88.9643 87.5128L87.653 87.5298L85.8031 87.566L84.4538 87.6043L83.7516 87.6303L82.8145 87.674L82.0166 87.7233L81.5621 87.7593L81.1694 87.7978C81.1091 87.8044 81.0514 87.8112 80.9962 87.818L80.8386 87.8389ZM204.769 117.17C201.772 115.627 198.594 114.47 195.311 113.723L194.551 113.558C190.937 112.727 187.248 112.27 183.542 112.193L182.616 112.181C180.443 112.122 178.273 112.383 176.175 112.956C174.841 113.253 173.654 114.015 172.827 115.106C172.267 115.978 171.969 116.993 171.968 118.03C172 119.036 172.362 120.003 172.998 120.782C173.91 121.85 175.006 122.745 176.233 123.423L176.605 123.62C179.053 124.941 181.576 126.118 184.161 127.146C189.925 129.079 195.432 131.707 200.561 134.973C204.056 137.182 206.947 140.226 208.977 143.831C210.683 147.245 211.537 151.022 211.467 154.84C211.569 159.88 210.131 164.832 207.345 169.03C204.362 173.293 200.219 176.606 195.409 178.577C190.372 180.793 184.186 181.938 176.852 182.013L176.09 182.017C171.543 182.063 167.003 181.664 162.534 180.827L161.578 180.641C157.815 179.95 154.152 178.794 150.673 177.201C149.958 176.831 149.502 176.105 149.471 175.308L149.471 156.56C149.429 156.189 149.594 155.825 149.9 155.614C150.202 155.443 150.579 155.477 150.845 155.7C154.954 158.126 159.415 159.896 164.068 160.946C168.17 161.976 172.377 162.524 176.605 162.58C180.611 162.58 183.559 162.064 185.449 161.032C187.193 160.233 188.303 158.48 188.283 156.56C188.283 155.071 187.424 153.637 185.707 152.26C184.987 151.682 183.954 151.055 182.61 150.377L181.968 150.061L181.281 149.737C181.162 149.682 181.042 149.628 180.92 149.572L180.167 149.238C180.038 149.182 179.907 149.125 179.774 149.068L178.954 148.723C178.813 148.665 178.671 148.607 178.527 148.548L177.641 148.192C177.489 148.132 177.336 148.072 177.181 148.011L176.228 147.645L175.231 147.271C169.838 145.391 164.726 142.787 160.032 139.531C156.675 137.192 153.911 134.1 151.961 130.5C150.272 127.111 149.418 123.366 149.471 119.578C149.461 115.027 150.709 110.562 153.077 106.677C155.777 102.4 159.653 98.9948 164.24 96.8727C169.277 94.3518 175.574 93.0904 183.131 93.0885C187.557 93.0529 191.978 93.3692 196.354 94.0346C199.523 94.4371 202.621 95.2764 205.56 96.5287C206.033 96.6646 206.414 97.0149 206.591 97.4747C206.707 97.8948 206.764 98.3289 206.762 98.7648V116.138C206.787 116.549 206.59 116.942 206.247 117.17C205.782 117.402 205.235 117.402 204.769 117.17Z" fill="#31A8FF"/>
</svg>
