<svg width="256" height="256" viewBox="0 0 256 256" fill="none" xmlns="http://www.w3.org/2000/svg">
<mask id="mask0_362_2" style="mask-type:luminance" maskUnits="userSpaceOnUse" x="0" y="97" width="256" height="63">
<path d="M0 97H256V159.31H0V97Z" fill="white"/>
</mask>
<g mask="url(#mask0_362_2)">
<path d="M101.325 146.959H109.367L94.7122 105.298H85.3903L70.7355 146.959H78.7774L82.2117 136.698H97.8692L101.325 146.959ZM84.2597 130.619L89.8912 113.852H90.2111L95.8428 130.619H84.2597ZM117.324 128.656V146.959H109.964V115.729H117.003V121.041H117.366C118.092 119.292 119.243 117.905 120.822 116.881C122.401 115.857 124.363 115.345 126.688 115.345C128.843 115.345 130.72 115.815 132.341 116.732C133.941 117.649 135.199 118.993 136.074 120.742C136.97 122.492 137.397 124.603 137.375 127.099V146.959H130.016V128.208C130.016 126.118 129.483 124.497 128.395 123.302C127.307 122.129 125.835 121.532 123.936 121.532C122.656 121.532 121.505 121.809 120.502 122.385C119.499 122.939 118.731 123.75 118.155 124.817C117.622 125.862 117.324 127.142 117.324 128.656ZM153.609 159.31C150.963 159.31 148.702 158.947 146.804 158.243C144.905 157.54 143.391 156.58 142.239 155.385C141.087 154.19 140.276 152.868 139.85 151.417L146.484 149.818C146.782 150.436 147.209 151.033 147.785 151.63C148.361 152.228 149.129 152.74 150.089 153.145C151.049 153.55 152.286 153.743 153.758 153.743C155.848 153.743 157.576 153.23 158.941 152.228C160.307 151.225 160.989 149.561 160.989 147.258V141.349H160.627C160.243 142.117 159.688 142.885 158.963 143.695C158.237 144.506 157.278 145.167 156.104 145.7C154.91 146.234 153.438 146.511 151.646 146.511C149.257 146.511 147.081 145.935 145.119 144.805C143.178 143.674 141.62 141.967 140.49 139.727C139.338 137.466 138.762 134.651 138.762 131.237C138.762 127.824 139.338 124.902 140.49 122.534C141.642 120.166 143.178 118.374 145.14 117.137C147.103 115.9 149.278 115.303 151.667 115.303C153.502 115.303 155.016 115.601 156.19 116.22C157.384 116.839 158.323 117.585 159.027 118.439C159.731 119.292 160.264 120.102 160.627 120.87H161.032V115.708H168.285V147.449C168.285 150.116 167.645 152.334 166.365 154.084C165.085 155.833 163.357 157.134 161.138 158.009C158.92 158.883 156.403 159.31 153.609 159.31ZM153.672 140.73C155.23 140.73 156.552 140.346 157.662 139.599C158.749 138.832 159.603 137.744 160.157 136.336C160.733 134.906 161.011 133.2 161.011 131.216C161.011 129.232 160.733 127.526 160.157 126.054C159.603 124.582 158.771 123.43 157.683 122.598C156.595 121.787 155.251 121.361 153.672 121.361C152.094 121.361 150.665 121.787 149.556 122.641C148.468 123.494 147.636 124.667 147.081 126.139C146.526 127.632 146.249 129.318 146.249 131.195C146.249 133.072 146.526 134.779 147.103 136.208C147.657 137.637 148.489 138.746 149.598 139.536C150.686 140.325 152.051 140.73 153.672 140.73ZM190.576 133.819V115.729H197.935V146.959H190.789V141.413H190.469C189.766 143.162 188.614 144.591 186.992 145.7C185.393 146.81 183.409 147.364 181.062 147.364C179.014 147.364 177.201 146.916 175.644 145.999C174.087 145.082 172.85 143.759 171.975 141.989C171.1 140.239 170.652 138.106 170.652 135.611V115.729H178.033V134.48C178.033 136.464 178.567 138.042 179.654 139.194C180.742 140.368 182.171 140.943 183.921 140.943C185.008 140.943 186.054 140.687 187.078 140.154C188.102 139.621 188.933 138.832 189.595 137.786C190.256 136.72 190.576 135.397 190.576 133.819ZM207.705 105.298V146.959H200.346V105.298H207.705V105.298ZM219.395 147.577C217.411 147.577 215.641 147.215 214.062 146.511C212.484 145.807 211.225 144.74 210.329 143.354C209.412 141.967 208.964 140.239 208.964 138.192C208.964 136.421 209.284 134.971 209.945 133.819C210.606 132.667 211.481 131.749 212.612 131.046C213.742 130.363 215.001 129.83 216.43 129.467C217.838 129.104 219.31 128.848 220.824 128.678C222.659 128.486 224.131 128.315 225.283 128.166C226.413 128.016 227.245 127.76 227.778 127.44C228.29 127.099 228.568 126.587 228.568 125.883V125.755C228.568 124.219 228.12 123.046 227.202 122.193C226.285 121.361 224.984 120.934 223.277 120.934C221.464 120.934 220.056 121.318 218.99 122.107C217.944 122.897 217.241 123.814 216.857 124.902L209.988 123.921C210.521 122.022 211.417 120.444 212.676 119.142C213.913 117.862 215.449 116.903 217.241 116.263C219.054 115.623 221.037 115.303 223.213 115.303C224.728 115.303 226.221 115.473 227.714 115.836C229.208 116.199 230.573 116.774 231.81 117.585C233.047 118.396 234.029 119.484 234.796 120.87C235.543 122.257 235.927 123.985 235.927 126.054V146.959H228.845V142.671H228.61C228.162 143.546 227.544 144.356 226.733 145.103C225.923 145.85 224.92 146.468 223.704 146.916C222.445 147.364 221.038 147.577 219.395 147.577ZM221.315 142.18C222.787 142.18 224.067 141.882 225.155 141.306C226.242 140.709 227.074 139.941 227.672 138.959C228.269 137.978 228.546 136.912 228.546 135.76V132.069C228.312 132.261 227.928 132.432 227.373 132.603C226.818 132.773 226.221 132.901 225.539 133.029C224.856 133.157 224.195 133.264 223.533 133.349C222.872 133.435 222.296 133.52 221.805 133.584C220.718 133.733 219.715 133.968 218.862 134.309C217.987 134.651 217.305 135.12 216.814 135.717C216.302 136.314 216.067 137.104 216.067 138.042C216.067 139.408 216.558 140.431 217.561 141.114C218.521 141.839 219.779 142.18 221.315 142.18ZM238.167 146.959V115.729H245.313V120.934H245.633C246.209 119.121 247.19 117.734 248.577 116.753C249.963 115.772 251.563 115.281 253.355 115.281C253.76 115.281 254.229 115.303 254.72 115.324C255.232 115.367 255.659 115.409 256 115.473V122.236C255.68 122.129 255.19 122.022 254.528 121.937C253.884 121.853 253.236 121.81 252.587 121.809C251.243 121.809 250.048 122.108 248.982 122.683C247.915 123.259 247.084 124.049 246.465 125.073C245.846 126.096 245.548 127.27 245.548 128.592V146.959H238.167ZM57.8938 107.218L55.8033 140.047L35.8158 97L57.8938 107.218ZM44.0497 149.668L28.947 158.286L13.8441 149.668L16.9158 142.223H40.978L44.0497 149.668ZM28.947 113.34L36.8609 132.581H21.0329L28.947 113.34ZM2.06912 140.047L0 107.218L22.078 97L2.06912 140.047Z" fill="url(#paint0_linear_362_2)"/>
<path d="M101.325 146.959H109.367L94.7122 105.298H85.3903L70.7355 146.959H78.7774L82.2117 136.698H97.8692L101.325 146.959ZM84.2597 130.619L89.8912 113.852H90.2111L95.8428 130.619H84.2597ZM117.324 128.656V146.959H109.964V115.729H117.003V121.041H117.366C118.092 119.292 119.243 117.905 120.822 116.881C122.401 115.857 124.363 115.345 126.688 115.345C128.843 115.345 130.72 115.815 132.341 116.732C133.941 117.649 135.199 118.993 136.074 120.742C136.97 122.492 137.397 124.603 137.375 127.099V146.959H130.016V128.208C130.016 126.118 129.483 124.497 128.395 123.302C127.307 122.129 125.835 121.532 123.936 121.532C122.656 121.532 121.505 121.809 120.502 122.385C119.499 122.939 118.731 123.75 118.155 124.817C117.622 125.862 117.324 127.142 117.324 128.656ZM153.609 159.31C150.963 159.31 148.702 158.947 146.804 158.243C144.905 157.54 143.391 156.58 142.239 155.385C141.087 154.19 140.276 152.868 139.85 151.417L146.484 149.818C146.782 150.436 147.209 151.033 147.785 151.63C148.361 152.228 149.129 152.74 150.089 153.145C151.049 153.55 152.286 153.743 153.758 153.743C155.848 153.743 157.576 153.23 158.941 152.228C160.307 151.225 160.989 149.561 160.989 147.258V141.349H160.627C160.243 142.117 159.688 142.885 158.963 143.695C158.237 144.506 157.278 145.167 156.104 145.7C154.91 146.234 153.438 146.511 151.646 146.511C149.257 146.511 147.081 145.935 145.119 144.805C143.178 143.674 141.62 141.967 140.49 139.727C139.338 137.466 138.762 134.651 138.762 131.237C138.762 127.824 139.338 124.902 140.49 122.534C141.642 120.166 143.178 118.374 145.14 117.137C147.103 115.9 149.278 115.303 151.667 115.303C153.502 115.303 155.016 115.601 156.19 116.22C157.384 116.839 158.323 117.585 159.027 118.439C159.731 119.292 160.264 120.102 160.627 120.87H161.032V115.708H168.285V147.449C168.285 150.116 167.645 152.334 166.365 154.084C165.085 155.833 163.357 157.134 161.138 158.009C158.92 158.883 156.403 159.31 153.609 159.31ZM153.672 140.73C155.23 140.73 156.552 140.346 157.662 139.599C158.749 138.832 159.603 137.744 160.157 136.336C160.733 134.906 161.011 133.2 161.011 131.216C161.011 129.232 160.733 127.526 160.157 126.054C159.603 124.582 158.771 123.43 157.683 122.598C156.595 121.787 155.251 121.361 153.672 121.361C152.094 121.361 150.665 121.787 149.556 122.641C148.468 123.494 147.636 124.667 147.081 126.139C146.526 127.632 146.249 129.318 146.249 131.195C146.249 133.072 146.526 134.779 147.103 136.208C147.657 137.637 148.489 138.746 149.598 139.536C150.686 140.325 152.051 140.73 153.672 140.73ZM190.576 133.819V115.729H197.935V146.959H190.789V141.413H190.469C189.766 143.162 188.614 144.591 186.992 145.7C185.393 146.81 183.409 147.364 181.062 147.364C179.014 147.364 177.201 146.916 175.644 145.999C174.087 145.082 172.85 143.759 171.975 141.989C171.1 140.239 170.652 138.106 170.652 135.611V115.729H178.033V134.48C178.033 136.464 178.567 138.042 179.654 139.194C180.742 140.368 182.171 140.943 183.921 140.943C185.008 140.943 186.054 140.687 187.078 140.154C188.102 139.621 188.933 138.832 189.595 137.786C190.256 136.72 190.576 135.397 190.576 133.819ZM207.705 105.298V146.959H200.346V105.298H207.705V105.298ZM219.395 147.577C217.411 147.577 215.641 147.215 214.062 146.511C212.484 145.807 211.225 144.74 210.329 143.354C209.412 141.967 208.964 140.239 208.964 138.192C208.964 136.421 209.284 134.971 209.945 133.819C210.606 132.667 211.481 131.749 212.612 131.046C213.742 130.363 215.001 129.83 216.43 129.467C217.838 129.104 219.31 128.848 220.824 128.678C222.659 128.486 224.131 128.315 225.283 128.166C226.413 128.016 227.245 127.76 227.778 127.44C228.29 127.099 228.568 126.587 228.568 125.883V125.755C228.568 124.219 228.12 123.046 227.202 122.193C226.285 121.361 224.984 120.934 223.277 120.934C221.464 120.934 220.056 121.318 218.99 122.107C217.944 122.897 217.241 123.814 216.857 124.902L209.988 123.921C210.521 122.022 211.417 120.444 212.676 119.142C213.913 117.862 215.449 116.903 217.241 116.263C219.054 115.623 221.037 115.303 223.213 115.303C224.728 115.303 226.221 115.473 227.714 115.836C229.208 116.199 230.573 116.774 231.81 117.585C233.047 118.396 234.029 119.484 234.796 120.87C235.543 122.257 235.927 123.985 235.927 126.054V146.959H228.845V142.671H228.61C228.162 143.546 227.544 144.356 226.733 145.103C225.923 145.85 224.92 146.468 223.704 146.916C222.445 147.364 221.038 147.577 219.395 147.577ZM221.315 142.18C222.787 142.18 224.067 141.882 225.155 141.306C226.242 140.709 227.074 139.941 227.672 138.959C228.269 137.978 228.546 136.912 228.546 135.76V132.069C228.312 132.261 227.928 132.432 227.373 132.603C226.818 132.773 226.221 132.901 225.539 133.029C224.856 133.157 224.195 133.264 223.533 133.349C222.872 133.435 222.296 133.52 221.805 133.584C220.718 133.733 219.715 133.968 218.862 134.309C217.987 134.651 217.305 135.12 216.814 135.717C216.302 136.314 216.067 137.104 216.067 138.042C216.067 139.408 216.558 140.431 217.561 141.114C218.521 141.839 219.779 142.18 221.315 142.18ZM238.167 146.959V115.729H245.313V120.934H245.633C246.209 119.121 247.19 117.734 248.577 116.753C249.963 115.772 251.563 115.281 253.355 115.281C253.76 115.281 254.229 115.303 254.72 115.324C255.232 115.367 255.659 115.409 256 115.473V122.236C255.68 122.129 255.19 122.022 254.528 121.937C253.884 121.853 253.236 121.81 252.587 121.809C251.243 121.809 250.048 122.108 248.982 122.683C247.915 123.259 247.084 124.049 246.465 125.073C245.846 126.096 245.548 127.27 245.548 128.592V146.959H238.167ZM57.8938 107.218L55.8033 140.047L35.8158 97L57.8938 107.218ZM44.0497 149.668L28.947 158.286L13.8441 149.668L16.9158 142.223H40.978L44.0497 149.668ZM28.947 113.34L36.8609 132.581H21.0329L28.947 113.34ZM2.06912 140.047L0 107.218L22.078 97L2.06912 140.047Z" fill="url(#paint1_radial_362_2)"/>
</g>
<defs>
<linearGradient id="paint0_linear_362_2" x1="0" y1="147.057" x2="256" y2="147.057" gradientUnits="userSpaceOnUse">
<stop stop-color="#F0070C"/>
<stop offset="0.526" stop-color="#CC26D5"/>
<stop offset="1" stop-color="#7702FF"/>
</linearGradient>
<radialGradient id="paint1_radial_362_2" cx="0" cy="0" r="1" gradientUnits="userSpaceOnUse" gradientTransform="translate(79.6415 80.9661) rotate(118.12) scale(53.652 53.6498)">
<stop stop-color="#FF41F8"/>
<stop offset="0.707" stop-color="#FF41F8" stop-opacity="0.5"/>
<stop offset="1" stop-color="#FF41F8" stop-opacity="0"/>
</radialGradient>
</defs>
</svg>
