<svg width="256" height="256" viewBox="0 0 256 256" fill="none" xmlns="http://www.w3.org/2000/svg">
<g clip-path="url(#clip0_381_25)">
<path d="M248.923 42.681L240.191 179.814L156.694 0L248.923 42.681ZM191.091 220.001L128 256L64.909 220.001L77.741 188.903H178.259L191.091 220.001ZM128 68.2545L161.06 148.628H94.9399L128 68.2545ZM15.72 179.814L7.07642 42.681L99.3058 0L15.72 179.814Z" fill="url(#paint0_linear_381_25)"/>
<path d="M248.923 42.681L240.191 179.814L156.694 0L248.923 42.681ZM191.091 220.001L128 256L64.909 220.001L77.741 188.903H178.259L191.091 220.001ZM128 68.2545L161.06 148.628H94.9399L128 68.2545ZM15.72 179.814L7.07642 42.681L99.3058 0L15.72 179.814Z" fill="url(#paint1_linear_381_25)"/>
</g>
<defs>
<linearGradient id="paint0_linear_381_25" x1="67.7111" y1="232.779" x2="243.383" y2="149.296" gradientUnits="userSpaceOnUse">
<stop stop-color="#E40035"/>
<stop offset="0.24" stop-color="#F60A48"/>
<stop offset="0.352" stop-color="#F20755"/>
<stop offset="0.494" stop-color="#DC087D"/>
<stop offset="0.745" stop-color="#9717E7"/>
<stop offset="1" stop-color="#6C00F5"/>
</linearGradient>
<linearGradient id="paint1_linear_381_25" x1="59.9511" y1="30.8673" x2="180.081" y2="167.902" gradientUnits="userSpaceOnUse">
<stop stop-color="#FF31D9"/>
<stop offset="1" stop-color="#FF5BE1" stop-opacity="0"/>
</linearGradient>
<clipPath id="clip0_381_25">
<rect width="256" height="256" fill="white"/>
</clipPath>
</defs>
</svg>
