<svg width="256" height="256" viewBox="0 0 256 256" fill="none" xmlns="http://www.w3.org/2000/svg">
<path d="M165.316 6.41442C167.401 9.01018 168.465 12.5128 170.592 19.5181L217.06 172.556C199.879 163.62 181.202 157.176 161.505 153.699L131.25 51.1962C130.755 49.519 129.218 48.3684 127.474 48.3684C125.725 48.3684 124.185 49.525 123.694 51.208L93.805 153.647C74.0164 157.109 55.2541 163.565 38 172.532L84.6961 19.4827C86.8297 12.4895 87.8966 8.9928 89.9824 6.40183C91.8236 4.11443 94.2187 2.33798 96.9391 1.24174C100.021 0 103.668 0 110.962 0H144.315C151.619 0 155.271 0 158.355 1.24433C161.078 2.34284 163.475 4.1229 165.316 6.41442Z" fill="black"/>
<path d="M170.876 179.839C163.216 186.406 147.926 190.885 130.314 190.885C108.698 190.885 90.5802 184.138 85.7725 175.064C84.0538 180.265 83.6684 186.216 83.6684 190.018C83.6684 190.018 82.5359 208.687 95.4874 221.672C95.4874 214.929 100.939 209.464 107.664 209.464C119.191 209.464 119.178 219.546 119.168 227.726C119.168 227.97 119.167 228.214 119.167 228.456C119.167 240.871 126.736 251.514 137.5 256C135.892 252.685 134.99 248.962 134.99 245.028C134.99 233.187 141.924 228.778 149.983 223.654C156.395 219.577 163.52 215.047 168.429 205.96C170.991 201.219 172.446 195.789 172.446 190.018C172.446 186.469 171.896 183.049 170.876 179.839Z" fill="#FF5D01"/>
</svg>
