<svg width="256" height="256" viewBox="0 0 256 256" fill="none" xmlns="http://www.w3.org/2000/svg">
<g clip-path="url(#clip0_418_7)">
<path d="M128 256C198.692 256 256 198.692 256 128C256 57.3075 198.692 0 128 0C57.3075 0 0 57.3075 0 128C0 198.692 57.3075 256 128 256Z" fill="#1769FF"/>
<path d="M90.4293 70.0007C95.9486 70.0007 100.987 70.4923 105.544 71.4651C110.1 72.4379 113.992 74.0353 117.238 76.2574C120.484 78.4795 123.003 81.4286 124.795 85.115C126.587 88.8014 127.478 93.3479 127.478 98.7649C127.478 104.612 126.146 109.486 123.494 113.388C120.842 117.289 116.91 120.484 111.718 122.972C118.866 125.03 124.201 128.635 127.723 133.775C131.246 138.916 133.007 145.121 133.007 152.382C133.007 158.229 131.871 163.297 129.597 167.578C127.324 171.858 124.262 175.35 120.412 178.053C116.562 180.767 112.179 182.764 107.254 184.064C102.297 185.365 97.1877 186.02 92.0677 186.01H35.8398V70.0007H90.4293ZM87.1832 116.951C91.7298 116.951 95.4674 115.866 98.396 113.705C101.325 111.534 102.789 108.022 102.779 103.148C102.779 100.444 102.287 98.2222 101.314 96.4916C100.342 94.7611 99.0411 93.3991 97.413 92.4263C95.7848 91.4535 93.9211 90.7777 91.8117 90.3988C89.6408 90.0199 87.4392 89.8254 85.2274 89.8356H61.3579V116.972L87.1832 116.951ZM88.6475 166.175C91.0539 166.185 93.4501 165.939 95.795 165.448C98.0683 164.956 100.075 164.147 101.806 163.011C103.536 161.874 104.919 160.328 105.953 158.382C106.977 156.437 107.499 153.938 107.499 150.907C107.499 144.958 105.82 140.698 102.461 138.158C99.1026 135.608 94.6584 134.339 89.139 134.339H61.3579V166.185L88.6475 166.175ZM165.099 163.738C168.56 167.096 173.547 168.776 180.05 168.776C184.709 168.776 188.713 167.608 192.072 165.284C195.43 162.959 197.488 160.492 198.246 157.891H218.552C215.306 167.967 210.319 175.166 203.602 179.497C196.884 183.829 188.764 185.999 179.231 185.999C172.626 185.999 166.666 184.945 161.362 182.835C156.057 180.726 151.562 177.715 147.876 173.814C144.189 169.912 141.343 165.263 139.346 159.846C137.349 154.43 136.345 148.47 136.345 141.978C136.345 135.701 137.369 129.854 139.428 124.437C141.486 119.02 144.415 114.34 148.203 110.387C151.992 106.435 156.518 103.322 161.771 101.048C167.024 98.7751 172.851 97.6385 179.241 97.6385C186.388 97.6385 192.614 99.0209 197.929 101.786C203.233 104.55 207.595 108.257 211.005 112.917C214.415 117.576 216.883 122.88 218.399 128.84C219.914 134.799 220.457 141.025 220.027 147.528H159.426C159.744 154.972 161.638 160.389 165.099 163.738ZM191.181 119.552C188.416 116.521 184.217 115.006 178.585 115.006C174.899 115.006 171.837 115.63 169.41 116.869C166.973 118.118 165.028 119.654 163.563 121.498C162.099 123.341 161.075 125.286 160.481 127.345C159.887 129.403 159.529 131.246 159.426 132.864H196.956C195.86 127.027 193.935 122.583 191.181 119.552ZM155.474 75.8887H202.363V88.8935H155.474V75.8887Z" fill="white"/>
</g>
<defs>
<clipPath id="clip0_418_7">
<rect width="256" height="256" fill="white"/>
</clipPath>
</defs>
</svg>
