<svg width="256" height="256" viewBox="0 0 256 256" fill="none" xmlns="http://www.w3.org/2000/svg">
<path d="M100.43 139.219C101.361 122.61 109.492 107.978 121.76 97.605C133.79 87.4166 149.982 81.1895 167.65 81.1895C185.3 81.1895 201.493 87.4166 213.532 97.605C225.79 107.978 233.922 122.61 234.861 139.201C235.792 156.267 228.934 172.12 216.904 183.872C204.637 195.826 187.188 203.326 167.65 203.326C148.112 203.326 130.629 195.826 118.37 183.872C106.331 172.12 99.4907 156.267 100.43 139.219Z" fill="white"/>
<path d="M133.168 140.701C133.645 132.179 137.818 124.671 144.112 119.348C150.285 114.121 158.593 110.926 167.659 110.926C176.715 110.926 185.024 114.121 191.201 119.348C197.491 124.671 201.663 132.179 202.145 140.692C202.623 149.448 199.104 157.583 192.931 163.613C186.637 169.746 177.684 173.595 167.659 173.595C157.634 173.595 148.663 169.746 142.373 163.613C136.196 157.583 132.686 149.448 133.168 140.701Z" fill="#265787"/>
<path d="M78.4108 158.208C78.4695 161.55 79.5351 168.044 81.1335 173.116C84.4929 183.851 90.1913 193.783 98.1203 202.535C106.257 211.532 116.276 218.758 127.849 223.888C140.014 229.276 153.194 232.022 166.884 232C180.552 231.982 193.733 229.182 205.897 223.753C217.47 218.573 227.48 211.315 235.604 202.314C243.528 193.525 249.217 183.576 252.586 172.841C254.279 167.417 255.349 161.911 255.778 156.388C256.198 150.946 256.022 145.494 255.25 140.048C253.742 129.434 250.071 119.476 244.417 110.398C239.247 102.057 232.583 94.7536 224.658 88.6069L224.676 88.5934L144.705 27.1761C144.633 27.1219 144.574 27.0632 144.497 27.0135C139.251 22.985 130.428 22.9985 124.657 27.0361C118.823 31.1188 118.155 37.8707 123.348 42.1296L123.325 42.1522L156.68 69.2817L55.0168 69.39H54.8813C46.4782 69.3991 38.4003 74.9135 36.8019 81.8822C35.1583 88.9818 40.8657 94.8711 49.6029 94.9027L49.5893 94.9343L101.118 94.8349L9.16793 165.429C9.05054 165.515 8.92411 165.605 8.81574 165.691C0.141756 172.335 -2.66227 183.382 2.8013 190.373C8.34614 197.482 20.1357 197.495 28.9 190.414L79.0836 149.333C79.0836 149.333 78.3521 154.879 78.4108 158.208ZM207.365 176.779C197.024 187.315 182.548 193.29 166.884 193.322C151.198 193.349 136.722 187.428 126.382 176.91C121.329 171.784 117.618 165.885 115.328 159.603C113.084 153.43 112.213 146.876 112.791 140.264C113.337 133.802 115.261 127.637 118.331 122.059C121.347 116.576 125.501 111.622 130.631 107.431C140.682 99.2383 153.478 94.8033 166.862 94.7852C180.259 94.7672 193.046 99.1615 203.107 107.327C208.227 111.5 212.377 116.436 215.393 121.91C218.477 127.483 220.387 133.625 220.956 140.106C221.525 146.709 220.653 153.253 218.409 159.432C216.115 165.732 212.417 171.63 207.365 176.779Z" fill="#EA7600"/>
</svg>
