<svg width="256" height="256" viewBox="0 0 256 256" fill="none" xmlns="http://www.w3.org/2000/svg">
<path d="M53.1721 26C38.5649 26 27.7565 38.7891 28.2403 52.6589C28.7045 65.984 28.1014 83.2415 23.7581 97.3154C19.4018 111.43 12.0342 120.372 0 121.52V134.48C12.0342 135.628 19.4018 144.57 23.7581 158.685C28.1014 172.758 28.7045 190.016 28.2403 203.341C27.7565 217.209 38.5649 230 53.1742 230H202.847C217.455 230 228.261 217.211 227.777 203.341C227.313 190.016 227.916 172.758 232.259 158.685C236.618 144.57 243.966 135.628 256 134.48V121.52C243.966 120.372 236.618 111.43 232.259 97.3154C227.916 83.2437 227.313 65.984 227.777 52.6589C228.261 38.7912 217.455 26 202.847 26H53.1699H53.1721ZM173.559 151.575C173.559 170.673 159.319 182.255 135.687 182.255H95.4576C93.0613 182.255 91.1186 180.312 91.1186 177.915V78.0851C91.1186 75.688 93.0613 73.7447 95.4576 73.7447H135.457C155.162 73.7447 168.094 84.4221 168.094 100.816C168.094 112.322 159.395 122.624 148.311 124.428V125.029C163.4 126.685 173.559 137.137 173.559 151.575ZM131.3 87.5038H108.362V119.914H127.681C142.616 119.914 150.851 113.898 150.851 103.145C150.851 93.0683 143.77 87.5038 131.3 87.5038ZM108.362 132.774V168.492H132.144C147.692 168.492 155.93 162.25 155.93 150.52C155.93 138.788 147.463 132.772 131.144 132.772H108.362V132.774Z" fill="#7E13F8"/>
</svg>
