<svg width="256" height="256" viewBox="0 0 256 256" fill="none" xmlns="http://www.w3.org/2000/svg">
<path d="M84.0111 110.896V131.076C84.0111 135.535 86.4753 138.168 90.7524 138.168C95.5368 138.168 98.287 135.242 98.287 129.612V110.896H107.204V145.624H98.2936V141.601C96.1928 144.891 92.7845 146.5 88.0731 146.5C80.0997 146.502 75.0981 140.653 75.0981 132.171V110.896H84.0111ZM179.776 110.239C189.926 110.259 197.086 118.46 197.062 128.119C197.063 129.074 196.989 130.028 196.84 130.971L170.599 130.922C171.606 135.09 175.007 138.094 180.155 138.105C183.271 138.105 186.608 136.948 188.643 134.319L194.724 139.236C191.597 143.691 186.081 146.312 180.213 146.301C169.853 146.265 161.893 138.427 161.91 128.265C161.93 118.54 168.831 110.219 179.776 110.239ZM236.357 110.239C241.793 110.239 244.911 111.92 247.012 115.138L247.847 110.892H256V145.624H247.847L246.794 142.048C244.403 144.681 241.429 146.294 236.357 146.294C228.527 146.283 219.61 139.337 219.61 128.517C219.61 117.624 228.381 110.239 236.357 110.239ZM53.6687 110.239C63.8892 110.239 72.0089 118.285 72.0089 128.224C72.0089 138.094 63.8892 146.283 53.6687 146.283C43.5191 146.283 35.4017 138.085 35.4017 128.224C35.4017 118.281 43.5191 110.239 53.6687 110.239ZM145.358 110.018C151.107 110.018 156.199 112.586 158.965 117.355L151.111 121.546C149.948 119.197 147.765 117.876 144.999 117.876C142.309 117.876 140.997 118.831 140.997 120.444C140.997 125.875 159.77 122.427 159.77 135.419C159.77 142.171 154.314 146.279 145.509 146.279C138.014 146.272 132.776 143.778 130.158 138.054L138.083 133.87C139.393 136.733 142.012 138.42 145.724 138.42C149.143 138.42 150.453 137.321 150.453 135.779C150.453 130.191 131.681 133.577 131.681 120.804C131.681 113.759 137.793 110.018 145.358 110.018ZM18.267 110.165C21.3187 110.144 24.3278 110.888 27.0232 112.332C29.7183 113.776 32.0151 115.873 33.7064 118.435L26.0964 122.887C25.216 121.618 24.0439 120.583 22.6806 119.87C21.3171 119.157 19.8028 118.787 18.267 118.793C13.0482 118.793 8.77119 123.18 8.77119 128.224C8.77119 133.269 13.0482 137.656 18.267 137.656C19.8752 137.667 21.4593 137.261 22.868 136.479C24.2766 135.696 25.4628 134.563 26.3136 133.186L33.8482 137.719C32.1775 140.356 29.8721 142.523 27.147 144.019C24.4217 145.515 21.3653 146.291 18.2626 146.275C8.11745 146.283 0 138.085 0 128.224C0 118.209 8.11745 110.165 18.267 110.165ZM130.105 110L128.461 118.392C128.158 118.359 127.853 118.342 127.548 118.341C122.766 118.352 120.016 121.282 120.029 126.91L120.078 145.622L111.162 145.642L111.087 110.916L120.002 110.896V114.919C122.079 111.652 125.452 110.038 130.105 110ZM219.692 110.025L218.039 118.408C217.744 118.379 217.443 118.357 217.126 118.357C212.348 118.357 209.591 121.28 209.591 126.91V145.624H200.676V110.894H209.591V114.917C211.676 111.656 215.045 110.049 219.692 110.025ZM53.6687 118.866C48.4499 118.866 44.1729 123.254 44.1729 128.224C44.1729 133.269 48.4499 137.656 53.6687 137.656C58.9695 137.656 63.2377 133.269 63.2377 128.224C63.2377 123.254 58.9607 118.866 53.6687 118.866ZM237.881 118.87C235.353 118.879 232.933 119.901 231.153 121.711C229.372 123.52 228.379 125.968 228.388 128.517C228.388 133.342 232.665 137.656 237.886 137.656C243.171 137.656 247.446 133.342 247.446 128.443C247.437 125.894 246.422 123.454 244.629 121.658C242.834 119.863 240.408 118.86 237.881 118.87ZM179.69 118.428C175.557 118.428 172.219 120.9 170.907 124.626L188.086 124.657C187.586 121.148 183.967 118.435 179.69 118.428Z" fill="#0056D2"/>
</svg>
