<svg width="256" height="256" viewBox="0 0 256 256" fill="none" xmlns="http://www.w3.org/2000/svg">
<path d="M219.833 128.027L191.573 99.5789L205.696 71.1404L251.612 117.363C257.463 123.253 257.463 132.802 251.612 138.691L195.098 195.583C189.247 201.472 179.762 201.472 173.911 195.583C168.061 189.693 168.061 180.145 173.911 174.255L219.833 128.027Z" fill="#7C7C7D"/>
<path d="M173.922 60.4159C179.772 54.5264 189.26 54.5289 195.111 60.4183L205.706 71.0846L82.0887 195.527C76.2383 201.417 66.7504 201.414 60.9 195.525L50.3044 184.858L173.922 60.4159ZM120.942 99.5281L99.7504 120.861L71.4906 92.4123L36.1672 127.971L64.4269 156.42L50.3044 184.858L4.38781 138.635C-1.4626 132.746 -1.4626 123.197 4.38781 117.308L60.9 60.4183C66.7504 54.5289 76.2383 54.5264 82.0887 60.4159L120.942 99.5281Z" fill="#151618"/>
</svg>
