<svg width="256" height="256" viewBox="0 0 256 256" fill="none" xmlns="http://www.w3.org/2000/svg">
<path d="M58.1601 76.2C59.5176 75.0713 60.7381 74.6828 60.7381 74.6828C60.5959 77.286 60.9235 79.4984 61.515 81.3644C61.9279 82.7064 62.5239 83.9858 63.2854 85.1651C65.5364 88.6319 68.4352 89.9893 68.4352 89.9893C68.7809 83.3208 72.2001 81.068 72.2001 81.068C71.6331 84.9615 71.67 94.9369 75.075 102.852C79.0469 112.07 74.9453 111.657 80.4716 123.218C87.4287 137.754 107.147 137.575 107.147 137.575C95.8412 140.832 83.3516 136.89 77.2333 126.765C74.8219 122.761 73.8471 119.474 73.4092 116.61C70.6213 115.673 66.0642 111.724 65.7866 111.478C66.0079 111.527 69.6289 112.353 73.0327 112.367C72.9161 109.879 72.8547 107.674 71.9595 105.451C68.6666 105.051 65.1013 102.854 65.1013 102.854C64.7379 109.246 61.4598 112.429 57.7501 113.535L56.8094 118.375C60.3923 123.181 69.4282 130.258 69.4282 130.258C69.4282 130.258 61.8363 127.889 56.0446 122.274C55.3393 125.89 54.634 129.505 53.9287 133.12C57.6238 136.106 61.4774 138.686 65.1627 140.955C76.0054 147.637 90.8115 150.675 94.6463 150.49C98.3345 149.835 102.14 149.028 105.92 148.127C102.041 147.233 92.8145 144.917 87.6704 142.088C91.47 142.278 106.204 144.228 120.322 144.314C133.521 140.501 143.833 136.726 143.833 136.726C143.833 136.726 138.401 129.131 142.254 120.26C146.107 111.388 154.361 109.277 158.327 108.714C161.689 106.178 166.179 96.6214 166.721 87.8981C167.283 78.7976 160.911 75.6573 157.261 70.9315C153.61 66.2058 151.246 60.0305 146.498 53.9347C150.939 56.1247 153.868 60.08 153.868 60.08C154.497 58.4205 157.791 49.0793 154.898 43.4218C151.709 37.2031 144.506 34.4018 144.506 34.4018C145.314 33.4757 147.392 32.5267 147.392 32.5267C136.961 27.2824 127.415 34.1185 127.415 34.1185C127.144 32.5749 127.335 30.9165 127.335 30.9165C122.018 35.3891 120.513 43.7182 120.513 43.7182C131.77 43.644 135.778 48 135.778 48C123.672 45.9143 110.078 47.0251 99.543 52.3677C89.008 57.71 79.5718 68.8221 79.5718 68.8221C80.8492 62.4238 84.1984 59.5429 84.1984 59.5429C78.6226 55.1744 72.7017 55.8907 72.7017 55.8907C73.8181 56.6988 75.0761 58.796 75.0761 58.796C72.6636 58.9371 70.2977 59.5185 68.0945 60.5112C67.1163 60.9481 66.1756 61.4641 65.2816 62.0552C62.8515 63.6407 60.8786 65.6648 59.5336 67.8049C57.6647 70.754 56.9805 73.9176 57.874 76.4549C57.9684 76.3667 58.0674 76.2802 58.1601 76.2ZM114.927 72.9118C114.927 72.9118 116.555 67.3839 122.365 64.8916C128.175 62.3988 139.79 64.3859 146.383 71.5175C152.976 78.6496 151.045 86.238 145.648 89.1439C137.433 93.5614 134.441 88.7184 127.658 86.4047C120.873 84.0916 112.572 82.2405 114.927 72.9118ZM119.706 91.7477C123.697 91.1862 125.042 93.728 123.543 97.2011C122.044 100.674 119.873 102.326 118.023 102.766C114.341 103.631 109.937 100.44 109.825 97.9725C109.714 95.5047 115.717 92.303 119.706 91.7477ZM121.883 106.203C124.696 107.9 130.95 106.561 131.357 98.8486C131.357 98.8486 134.959 103.562 130.981 107.652C132.085 109.201 133.855 117.604 127.571 120.874C120.669 124.47 115.889 117.24 114.859 115.223C110.189 114.747 109.339 110.546 109.339 110.546C118.047 114.747 121.883 106.203 121.883 106.203ZM81.5038 95.1963C82.4297 84.4489 90.4224 74.2942 99.8899 76.5709C109.061 78.7793 107.445 87.2131 105.478 92.6545C103.51 98.096 104.17 101.057 102.653 105.172C101.136 109.287 97.2067 112.502 92.0075 112.181C85.3262 111.767 80.6837 105.58 81.5038 95.1963Z" fill="#797979"/>
<path d="M170.886 105.992C170.886 105.992 168.776 110.913 160.037 112.625C150.274 114.539 143.593 121.589 148.09 127.69C152.691 133.934 164.188 132.286 164.188 132.286C153.857 137.956 146.036 131.405 146.036 131.405C149.694 140.234 163.072 143.083 173.865 134.137C184.658 125.191 185.608 113.858 185.608 113.858C184.32 116.746 181.631 119.861 181.464 120.053C181.611 119.694 184.85 111.76 184.4 105.733C183.937 99.5634 179.138 94.8377 170.67 91.0312C170.294 99.6806 164.009 108.059 164.009 108.059C166.797 107.641 170.886 105.992 170.886 105.992Z" fill="#797979"/>
<path d="M112.898 99.1817C115.871 101.538 118.122 100.557 120.09 98.3551C122.058 96.1524 121.44 94.3081 118.535 95.1711C115.63 96.0341 114.163 96.8999 112.83 97.7134C112.516 97.9052 111.825 98.3301 112.898 99.1817Z" fill="#797979"/>
<path d="M156.048 158.331C162.27 161.669 172.249 169.869 175.401 186.075C175.075 185.384 164.723 163.625 141.823 162.792C116.467 170.164 89.9657 175.155 85.2833 175.044C85.2038 178.999 92.8087 225.426 95.9975 241.109C113.495 250.289 139.328 246.47 150.581 243.694C170.09 238.178 183.22 215.456 183.22 215.456C182.252 226.845 174.27 235.932 174.024 236.217C185.538 230.818 201.155 217.122 203.443 212.038C196.667 190.16 189.891 168.283 183.115 146.405C176.604 150.592 166.884 154.652 156.048 158.331Z" fill="#797979"/>
<path d="M49.3834 112.841C48.2723 112.273 47.3977 111.527 46.8853 110.669C46.8853 110.669 48.0143 111.051 49.6426 111.237C50.5678 111.344 51.5012 111.362 52.43 111.292C53.546 111.2 54.7181 110.953 55.8408 110.441C56.9776 109.934 57.9855 109.177 58.7885 108.226C61.1015 105.493 61.54 101.958 60.6704 98.5644C60.2979 97.1245 59.7224 95.745 58.9614 94.4678C58.114 93.0274 57.0513 91.7252 55.81 90.6062C55.0446 89.907 54.2073 89.2904 53.312 88.7675C52.3231 88.185 51.2612 87.7367 50.1542 87.4346C41.5684 85.121 31.3179 95.7387 36.6366 110.311C38.9865 116.759 42.7239 122.194 47.097 126.827L49.3834 112.841Z" fill="#797979"/>
<path d="M188.563 103.627C188.563 103.627 194.219 118.175 179.49 134.296C169.93 144.475 154.671 146.943 146.652 139.997C146.652 139.997 122.29 149.102 102.087 153.033C81.8938 156.963 67.1782 157.845 70.6007 148.381C69.0783 147.733 67.2464 146.764 65.4453 145.741C55.318 149.281 52.8139 157.308 55.4458 163.095C50.1659 160.214 47.563 150.504 60.2074 142.612C58.8066 141.737 57.8876 141.131 57.8876 141.131C57.8876 141.131 46.7613 145.733 41.8764 153.803C36.9916 161.873 40.8468 169.893 51.2332 171.231C61.6195 172.57 90.7573 171.853 132.545 160.747C174.332 149.641 206.243 130.053 210.564 117.715C214.884 105.377 197.198 102.55 188.563 103.627Z" fill="#797979"/>
<path d="M119.873 80.698C120.039 81.0763 121.672 82.4718 121.991 82.8336C122.31 83.1954 123.008 83.4224 123.008 83.4224C124.199 83.7911 125.389 84.1597 126.58 84.5278C127.771 84.8964 130.435 85.3509 130.564 85.4283C130.693 85.5051 133.783 86.2663 133.783 86.2663C133.783 86.2663 139.764 86.0962 139.866 86.0962C139.969 86.0962 141.897 85.5051 141.974 85.4533C142.05 85.4016 144.004 83.601 144.004 83.601C144.269 82.1782 144.535 80.756 144.8 79.3332C144.8 78.0225 144.8 76.7112 144.8 75.4005C144.8 74.0892 142.616 70.7993 142.59 70.6964C142.564 70.5934 141.625 69.2764 141.625 69.2764C141.056 68.8247 140.487 68.373 139.917 67.9213L135.651 66.4581C135.651 66.4581 133.629 65.8893 133.553 65.8716C133.477 65.8546 130.87 65.6617 130.792 65.7311C130.715 65.8 128.015 65.7311 128.015 65.7311C127.142 65.6941 126.268 65.6566 125.395 65.6196C124.522 65.5826 122.349 66.4126 122.247 66.4581C122.146 66.5042 119.691 68.4129 119.64 68.4897C119.587 68.5665 118.611 71.1776 118.611 71.1776C118.611 71.1776 118.201 73.2968 118.175 73.3741C118.149 73.4515 118.715 77.8985 118.715 77.8985C118.715 77.8985 119.706 80.3197 119.873 80.698Z" fill="#797979"/>
<path d="M87.8264 104.991C88.9314 105.402 90.0364 105.814 91.1414 106.225C92.7993 106.225 94.4565 106.225 96.1143 106.225C96.2303 106.225 98.9284 104.568 98.9284 104.568C99.7376 104.016 100.547 103.464 101.357 102.912C102.167 102.36 102.668 100.133 102.706 99.8247C102.745 99.5158 103.053 95.9887 103.053 95.9887C103.053 95.9887 103.905 93.2598 103.982 93.0379C104.06 92.816 104.326 91.3801 104.507 91.1856C104.688 90.991 105.1 89.3333 105.1 89.3333L105.633 87.3274C105.607 86.6015 105.582 85.8756 105.556 85.1497C105.582 84.3976 105.607 83.6455 105.633 82.8935C105.171 82.1869 104.708 81.4798 104.246 80.7726C103.731 80.1833 103.217 79.5945 102.702 79.0051C101.713 78.8612 100.724 78.7167 99.7342 78.5728C99.6057 80.218 99.4772 81.8632 99.3486 83.5084C97.3701 83.1614 95.3915 82.8144 93.4123 82.4674C90.5795 83.8463 87.7467 85.2253 84.914 86.6043L84.2611 87.9446C83.7026 89.8857 83.1435 91.8261 82.5845 93.7672C82.8796 95.785 83.1754 97.8029 83.4705 99.8207C83.7663 101.839 85.8995 103.599 86.015 103.677C86.1304 103.754 87.8264 104.991 87.8264 104.991Z" fill="#797979"/>
<path d="M204.049 205.284C202.956 202.238 201.864 199.192 200.772 196.146C199.526 192.084 198.279 188.022 197.033 183.961L192.368 170.001C191.302 166.157 190.236 162.314 189.169 158.471C187.511 153.548 185.854 148.626 184.196 143.703L154.025 156.839C148.387 158.416 142.75 159.993 137.112 161.57C132.178 163.026 127.244 164.483 122.31 165.94L107.099 169.074C101.618 170.239 96.1351 171.405 90.6532 172.57C88.9226 173.067 87.1925 173.565 85.4619 174.062C99.6475 180.489 114.967 169.023 134.289 175.605C153.613 182.188 166.258 196.582 166.669 206.865C166.669 206.865 171.758 201.106 172.067 194.887C177.668 218.896 164.511 239.976 120.823 247.995C120.823 247.995 138.454 249.281 147.807 247.121C157.161 244.962 165.282 242.135 165.282 242.135C168.837 240.648 172.392 239.161 175.947 237.674C178.543 236.389 181.138 235.104 183.734 233.818C186.522 231.633 189.31 229.448 192.099 227.263C195.157 224.372 198.215 221.479 201.273 218.588C202.751 216.506 204.228 214.423 205.706 212.341L204.049 205.284Z" fill="#4B4B4B"/>
<path d="M111.572 148.524C112.883 147.881 114.193 147.239 115.504 146.596C111.572 136.3 107.64 126.005 103.708 115.71L73.9239 108.95C73.9239 108.95 68.7838 107.895 63.9241 104.991L62.1536 100.787C57.2674 92.0991 48.1988 91.0319 42.6486 97.4586C37.0984 103.885 39.5624 114.784 48.9704 123.73C58.3785 132.676 79.706 147.431 104.788 149.693L111.572 148.524Z" fill="#4B4B4B"/>
<path d="M126.658 83.1903C131.719 85.1951 139.209 89.7604 144.143 86.904C149.077 84.0482 149.139 77.5885 142.515 71.9559C141.305 70.9314 134.737 65.891 127.682 66.5077C120.626 67.1243 116.456 72.6778 117.559 76.9468C118.662 81.2151 121.958 81.3272 126.658 83.1903ZM125.036 76.3853C125.294 73.2513 128.212 70.9257 131.561 71.1987C134.91 71.4724 137.415 74.2241 137.161 77.3558C137.143 77.6283 137.101 77.8985 137.038 78.1642C136.168 76.2886 134.244 74.892 131.915 74.7025C128.861 74.4556 126.16 76.3625 125.525 79.0773C125.133 78.237 124.964 77.3097 125.036 76.3853Z" fill="#4B4B4B"/>
<path d="M92.2178 109.577C99.6618 109.349 100.624 102.137 101.778 96.4301C102.931 90.723 107.292 84.7207 101.778 80.4261C95.8872 75.8363 85.4455 82.9867 84.3967 93.2278C83.8297 98.7557 84.7795 109.812 92.2178 109.577ZM90.4354 91.5314C91.934 88.5271 95.431 87.2318 98.2434 88.6295C99.072 89.0454 99.7795 89.6683 100.298 90.4374C97.6434 89.5796 94.6189 90.9056 93.2483 93.6477C92.2058 95.7389 92.4026 98.1083 93.5622 99.8218C93.3012 99.7399 93.0475 99.6369 92.8036 99.5135C89.9907 98.1083 88.9306 94.5363 90.4354 91.5314Z" fill="#4B4B4B"/>
<path d="M115.324 100.849C117.176 101.543 117.342 101.852 118.601 100.849C119.86 99.8462 121.633 98.1111 121.633 98.1111C121.865 97.6184 122.096 97.1263 122.327 96.6337C122.327 96.2907 122.327 95.9476 122.327 95.6051C122.327 95.5539 121.762 94.1528 121.762 94.1528C121.762 94.1528 121.083 93.6897 121.042 93.6897C121.001 93.6897 120.065 93.6647 119.796 93.7415C119.526 93.8188 118.909 93.8569 118.51 94.0504C118.112 94.2438 115.17 95.7593 115.17 95.7593C115.17 95.7593 113.472 100.157 115.324 100.849Z" fill="#4B4B4B"/>
<path d="M64.4656 80.5047C64.8318 79.194 67.01 77.2535 67.01 77.2535C65.9312 83.6802 69.5545 87.4844 69.5545 87.4844C77.495 88.6153 80.8362 86.1481 80.8362 86.1481C80.8362 86.1481 96.2053 65.0173 83.4574 61.6239C70.7096 58.2304 64.6584 67.86 64.6584 67.86C66.3742 67.1853 69.5545 67.2815 69.5545 67.2815C63.0785 71.9446 64.4656 80.5047 64.4656 80.5047Z" fill="#4B4B4B"/>
<path d="M146.624 60.4415C148.184 59.8931 149.743 59.3446 151.301 58.7957C155.875 48.1022 148.462 43.3721 148.462 43.3721C150.01 43.3235 151.56 43.375 153.101 43.5264C146.1 34.9918 135.677 38.2048 135.677 38.2048C136.55 36.2772 138.709 34.3237 138.709 34.3237C130.383 34.5293 124.138 40.3646 123.316 44.8631L126.786 51.7017L146.624 60.4415Z" fill="#4B4B4B"/>
<path d="M168.912 107.748C173.268 105.376 171.836 99.8747 168.7 97.251C168.7 97.251 163.766 105.451 162.918 108.056C162.07 110.661 164.556 110.119 168.912 107.748Z" fill="#4B4B4B"/>
<path d="M145.584 150.722C176.82 143.318 202.134 125.016 204.087 116.841C206.04 108.666 192.882 108.717 192.882 108.717C191.803 113.293 188.129 117.291 188.129 117.291C188.129 117.291 184.668 122.646 183.863 124.368C184.574 122.845 185.285 121.322 185.996 119.799C186.296 118.745 186.596 117.691 186.896 116.637C187.127 114.82 187.358 113.004 187.59 111.188C187.41 109.448 187.23 107.709 187.05 105.969C186.467 104.238 185.885 102.507 185.303 100.776C184.077 98.9172 182.852 97.0575 181.627 95.1983C180.582 94.5043 179.537 93.8103 178.492 93.1162C178.021 93.2789 177.55 93.4422 177.079 93.6049C176.608 93.7682 184.582 103.604 179.11 116.252C179.11 116.252 179.855 111.085 178.724 108.026C178.724 108.026 175.615 120.802 164.462 126.663C153.308 132.524 145.159 121.974 152.743 114.273C152.743 114.273 148.425 114.864 147.712 116.502C146.998 118.141 144.981 118.798 144.365 121.676C143.992 123.45 143.837 125.263 143.901 127.074C143.726 128.51 143.72 129.96 143.885 131.396C144.159 133.761 146.42 136.435 146.42 136.435C146.72 136.679 147.02 136.925 147.319 137.169C145.529 137.884 143.739 138.599 141.949 139.314C136.244 141.331 130.539 143.347 124.834 145.365C119.361 146.675 113.888 147.987 108.415 149.297C103.083 150.506 97.7497 151.714 92.4174 152.922C89.1535 152.974 85.8896 153.025 82.6263 153.076C80.6216 152.703 78.6174 152.331 76.6127 151.958C75.842 150.609 75.0709 149.259 74.2997 147.909C71.2866 146.386 68.2729 144.863 65.2599 143.341C64.0974 143.643 62.9344 143.945 61.7713 144.247C60.1095 145.276 58.4483 146.305 56.7865 147.334C55.1249 148.363 51.9035 154.017 52.7775 157.769C53.6769 161.675 54.8329 170.776 90.2972 165.017C125.761 159.26 145.584 150.722 145.584 150.722ZM179.702 130.619C180.255 129.893 180.808 129.167 181.362 128.44C180.629 129.528 179.826 130.701 179.034 131.905C177.07 134.891 174.205 135.89 172.087 137.515C173.34 136.553 174.593 135.591 175.847 134.629L179.702 130.619ZM166.673 139.642C168.357 139.02 170.041 138.399 171.725 137.777C169.935 139.027 167.55 139.826 164.215 140.533L166.673 139.642ZM149.945 139.308L156.988 141.439C155.142 141.439 153.625 141.208 152.392 140.811C150.125 140.082 147.337 137.186 147.317 137.166L149.945 139.308Z" fill="#4B4B4B"/>
<path d="M120.823 99.4121C122.185 98.7693 121.992 97.4068 122.006 97.3425C122.019 97.2782 122.339 96.4687 122.481 95.6717C122.623 94.8747 121.851 94.6687 120.876 94.1425C119.901 93.6157 117.998 93.9622 117.998 93.9622C117.698 94.2705 117.398 94.5794 117.098 94.8883C120.003 96.5074 116.405 98.3329 116.147 101.264C117.61 101.816 119.459 100.055 120.823 99.4121Z" fill="#383838"/>
<path d="M79.9238 96.9698C79.9238 97.124 80.9259 103.988 81.0425 105.281C81.1585 106.573 83.0848 110.273 83.2025 110.581C83.3202 110.889 90.4105 115.517 91.0281 115.787C91.6451 116.057 95.9617 116.133 96.0778 116.057C96.1938 115.979 101.783 112.661 101.898 112.548C102.013 112.435 105.021 103.949 105.021 103.949C104.468 101.07 103.915 98.1907 103.363 95.3115C101.474 95.3508 96.746 104.065 92.1968 104.45C87.6482 104.834 85.2328 100.439 83.9225 94.4758C83.9202 94.4764 79.9238 96.8157 79.9238 96.9698Z" fill="#383838"/>
<path d="M140.92 94.4765C141.074 94.4765 148.167 93.2938 149.76 92.7795C151.354 92.2652 153.82 88.6152 153.82 88.6152C154.643 86.1815 155.466 83.7484 156.289 81.3147C157.112 78.8815 154.336 76.2248 154.285 76.0701C154.234 75.9159 146.882 65.7886 142.564 63.8651C138.247 61.9417 139.532 62.8087 139.018 62.6545C138.505 62.4998 136.139 63.7343 136.037 63.8651C135.935 63.996 135.779 67.4355 135.779 67.4355C143.13 71.2914 144.684 79.6205 140.637 82.358C136.589 85.0961 132.541 82.7443 127.248 84.3247C127.248 84.3247 128.07 88.1527 128.174 88.3097C128.278 88.4662 140.765 94.4765 140.92 94.4765Z" fill="#383838"/>
<path d="M71.1226 73.6033C70.3008 76.1963 70.4031 80.1967 71.1351 83.0303C71.1351 83.0303 71.1737 84.361 71.1737 84.4764C71.1737 84.5919 81.235 80.0806 81.235 80.0806C83.201 77.4586 85.1671 74.8366 87.1326 72.2146C89.0987 69.5926 87.9425 66.8932 81.8134 65.004C75.6843 63.1147 72.3021 66.9063 72.3021 66.9063C73.1762 66.8546 74.4098 67.1635 74.4098 67.1635C69.6297 70.364 68.9614 75.1967 68.9614 75.1967C69.401 74.5283 71.1226 73.6033 71.1226 73.6033Z" fill="#383838"/>
<path d="M144.184 58.9876C144.184 58.9876 146.458 59.9513 148.347 55.6331C150.236 51.3149 145.716 47.0442 145.716 47.0442C146.414 47.2603 147.099 47.5145 147.769 47.8055C144.492 41.1743 137.668 42.177 137.668 42.177C138.178 41.4929 139.557 40.7502 139.557 40.7502C132.464 39.0924 128.121 45.3518 128.121 45.3518C128.014 46.2985 127.907 47.2452 127.799 48.192C129.085 50.0171 130.369 51.8422 131.654 53.6673L144.184 58.9876Z" fill="#383838"/>
<path d="M167.133 100.877C165.522 103.088 163.912 105.299 162.301 107.51C162.233 108.366 162.164 109.223 162.096 110.08C163.954 109.343 165.813 108.606 167.673 107.869C170.012 104.81 168.726 102.084 167.133 100.877Z" fill="#383838"/>
<path d="M148.328 131.307C147.505 130.857 146.682 130.407 145.859 129.957C145.428 130.182 144.998 130.407 144.568 130.632C144.568 131.223 144.568 131.815 144.568 132.406C144.568 132.464 145.338 134.237 145.338 134.237C146.141 135.33 146.943 136.422 147.745 137.515C149.076 138.26 150.405 139.006 151.735 139.751C153.483 140.15 155.23 140.548 156.977 140.947C158.14 141.062 159.303 141.178 160.466 141.294C161.629 141.409 165.034 140.504 165.112 140.445C165.189 140.387 168.967 139.193 169.043 139.096C169.12 138.999 171.523 138.28 175.894 136.66C180.265 135.04 183.604 131.417 184.786 129.694C189.078 127.483 194.256 120.761 187.317 118.872C187.317 118.872 185.826 118.023 186.33 115.325C186.832 112.626 185.16 110.389 183.541 115.672C181.921 120.954 176.127 126.686 176.127 126.686C176.847 125.196 177.142 120.141 177.142 120.141C173.904 124.885 167.646 133.238 159.217 133.188C156.57 132.92 153.923 132.652 151.276 132.385L148.328 131.307Z" fill="#383838"/>
<path d="M159.487 142.74C155.388 141.313 151.289 139.886 147.19 138.46C146.599 138.297 146.008 138.135 145.416 137.972C141.459 139.557 137.501 141.141 133.544 142.726C129.903 143.806 126.262 144.886 122.622 145.965C121.632 146.215 120.641 146.464 119.651 146.714C121.173 146.224 122.696 145.734 124.218 145.245C126.531 144.512 128.844 143.78 131.157 143.047L146.494 137.303C145.749 135.953 145.004 134.604 144.258 133.254C143.835 131.146 143.41 129.039 142.987 126.93C142.665 126.545 142.344 126.159 142.023 125.773C142.425 124.767 142.828 123.76 143.23 122.753C131.153 123.336 119.075 123.918 106.998 124.501C94.9208 125.084 75.6969 116.995 70.608 113.036C70.608 113.036 66.342 111.879 64.852 111.082C64.852 111.082 66.4319 114.399 68.5333 115.979C68.5333 115.979 63.0013 113.551 59.8785 110.947C60.4245 109.675 60.971 108.403 61.517 107.13C61.4203 106.725 61.3242 106.32 61.2281 105.915C61.132 105.511 59.3763 97.2009 50.538 99.052C41.6997 100.903 43.7274 113.242 49.8436 117.406C49.8436 117.406 53.0051 116.995 56.8597 120.748C60.7145 124.501 62.7124 126.024 62.7124 126.024C63.9204 126.789 65.1278 127.554 66.3358 128.319C71.1062 131.538 80.001 135.992 87.094 138.575C87.094 138.575 80.7073 138.999 76.5448 138.328C76.5448 138.328 89.5736 143.47 99.6986 144.806C109.824 146.143 114.116 147.942 114.116 147.942C114.744 147.839 115.372 147.736 116.001 147.633L112.522 148.514C109.121 149.414 105.721 150.314 102.32 151.214C99.1765 151.754 96.0326 152.294 92.8887 152.834C89.2739 153.15 85.6586 153.467 82.0438 153.784C79.1826 151.608 76.3213 149.432 73.4607 147.255C71.3615 146.86 69.263 146.466 67.1644 146.071C62.3075 149.209 59.5066 157.357 69.6827 160.698C79.8593 164.04 117.431 159.362 147.652 143.938C147.652 143.935 156.864 144.783 159.487 142.74Z" fill="#383838"/>
<path d="M203.033 203.213C202.348 200.763 201.663 198.313 200.977 195.862L197.38 185.683C196.292 182.135 195.204 178.588 194.116 175.04C193.31 172.435 192.505 169.83 191.7 167.225L189.207 158.511C188.274 155.485 187.34 152.46 186.406 149.434C185.464 147.592 184.521 145.75 183.579 143.908C181.858 144.679 180.136 145.45 178.415 146.221C175.862 147.497 173.309 148.773 170.756 150.049C166.867 151.669 162.978 153.289 159.089 154.909C155.561 155.911 152.031 156.914 148.502 157.916C144.973 158.918 156.366 161.052 158.524 163.559C160.683 166.065 164.769 167.53 166.196 169.921C167.622 172.312 169.549 173.739 170.281 175.589C171.014 177.44 172.133 178.282 172.941 180.679C176.295 187.427 179.263 195.345 179.417 198.687C179.417 198.687 181.319 192.157 181.371 184.548C181.371 184.548 190.544 212.697 177.157 226.758C164.152 240.485 170.628 240.048 174.714 238.145C178.801 236.243 186.253 231.564 186.253 231.564C188.789 229.568 191.324 227.571 193.859 225.575C196.052 223.536 198.246 221.497 200.439 219.457C202.143 217.34 203.848 215.224 205.553 213.107C205.613 212.722 205.672 212.336 205.732 211.95L203.033 203.213Z" fill="#383838"/>
<path d="M117.586 215.039C114.191 188.356 92.3751 177.636 83.7402 177.983C87.1326 199.247 90.5245 220.511 93.9169 241.774C94.1143 242.014 94.311 242.254 94.5084 242.494C98.7914 243.985 103.074 245.476 107.358 246.966C134.906 239.46 123.291 206.299 120.155 202.34C120.721 209.948 117.586 215.039 117.586 215.039Z" fill="#A7A5A5"/>
<path d="M212.857 110.562C212.285 109.643 211.713 108.724 211.141 107.806C210.203 106.912 209.265 106.019 208.327 105.125C207.004 104.547 205.68 103.968 204.357 103.39C202.089 102.992 199.821 102.593 197.553 102.195C197.341 102.432 197.13 102.67 196.917 102.908C208.327 105.222 210.946 116.403 202.545 129.282C203.721 128.775 204.897 128.267 206.072 127.759C206.83 126.898 207.588 126.037 208.346 125.176C209.105 124.315 211.199 121.59 211.219 121.533C211.237 121.476 212.722 117.677 212.722 117.677C212.831 116.572 212.94 115.466 213.049 114.36L212.857 110.562Z" fill="#A7A5A5"/>
<path d="M48.9705 166.609C40.3359 159.616 45.1158 150.798 56.0638 140.773C56.0638 140.773 50.6938 142.907 43.703 148.383C36.7121 153.859 37.2781 158.562 37.2781 158.562C37.4579 160.559 37.6377 162.555 37.8176 164.552C37.9974 166.548 40.31 168.973 40.7217 169.385C41.1334 169.797 46.4003 172.101 46.4003 172.101C48.3792 172.42 50.3581 172.74 52.3369 173.058C54.3158 173.377 60.894 174.472 60.9969 174.472C62.8817 174.472 64.7659 174.472 66.6506 174.472C70.8313 173.624 75.0113 172.775 79.192 171.927C83.3721 171.078 57.6051 173.601 48.9705 166.609Z" fill="#A7A5A5"/>
<path d="M49.7199 127.892C35.7869 114.551 34.2889 100.503 39.0249 94.2228C43.761 87.9428 50.41 87.4815 54.3158 88.7159C53.729 87.9445 53.1423 87.1737 52.5555 86.4023C51.3416 86.1065 50.1277 85.8106 48.9137 85.5154C47.6737 85.5154 46.4337 85.5154 45.1936 85.5154C43.9602 85.9062 42.7267 86.297 41.4932 86.6884C40.0668 87.8899 38.6404 89.0914 37.214 90.2935C36.4238 91.6946 35.6338 93.0958 34.8437 94.497C34.2977 96.0068 33.7516 97.5172 33.2056 99.0276C33.2056 100.217 33.2056 101.406 33.2056 102.595C33.4175 104.471 33.6294 106.347 33.8413 108.223C34.4195 109.83 34.9976 111.437 35.5758 113.043C36.5716 115.074 37.5674 117.105 38.5632 119.136C40.0025 121.43 41.4417 123.725 42.8808 126.019C44.0822 127.336 45.2835 128.653 46.4849 129.97C48.65 131.796 50.8151 133.621 52.9801 135.446L59.9574 140.079C61.9615 141.229 63.9663 142.38 65.9704 143.53C68.2135 144.655 70.4559 145.779 72.6984 146.904C75.8724 147.984 79.0459 149.064 82.2193 150.143L92.9181 151.493C79.3786 147.335 63.6535 141.236 49.7199 127.892Z" fill="#A7A5A5"/>
<path d="M58.4012 79.0268C58.5894 78.6069 58.7782 78.1871 58.9665 77.7672C59.3179 79.2065 59.6688 80.6464 60.0203 82.0862C60.6715 83.3543 61.3227 84.6223 61.9739 85.8904C62.625 87.159 64.5433 89.0273 64.6207 89.1809C64.6975 89.3345 69.1437 92.1118 69.1437 92.1118C69.1778 91.135 69.212 90.1576 69.2461 89.1809C67.28 88.1398 61.5365 82.0089 62.4618 73.2946C62.4618 73.2946 60.7659 73.3202 59.376 74.194C59.376 74.194 60.1869 62.4203 74.4612 58.5906C74.2349 58.293 74.0085 57.9949 73.7822 57.6974C73.5558 57.3993 79.7538 56.7402 84.8677 60.159C85.1674 59.9616 85.4671 59.7648 85.7674 59.5673C85.5962 59.0701 85.425 58.5735 85.2539 58.0763C84.2085 57.3993 83.1632 56.7224 82.1179 56.0456C80.6705 55.5916 79.2226 55.1375 77.7752 54.6836C76.6104 54.572 75.4451 54.4604 74.2804 54.3489C73.218 54.4689 72.1557 54.5889 71.0933 54.7089C70.8192 54.9488 70.5456 55.1888 70.2715 55.4287C70.3744 55.8058 70.4774 56.1829 70.5797 56.5599L68.8093 58.3084C67.5758 58.6685 66.3422 59.0286 65.1086 59.3882C63.6522 60.5794 62.1962 61.7701 60.7397 62.9613C60.0118 64.1185 59.2838 65.275 58.5553 66.4321C57.9814 67.6666 57.4076 68.9017 56.8339 70.1362C56.5684 71.6528 56.3028 73.1695 56.0371 74.6861C56.2513 75.8592 56.4655 77.0322 56.6796 78.2053L58.4012 79.0268Z" fill="#A7A5A5"/>
<path d="M84.2024 88.3454C84.0869 89.3267 83.9715 90.3075 83.8555 91.2888C83.8555 91.8714 83.8555 92.4539 83.8555 93.0364C87.1711 86.443 90.7558 79.7722 102.166 80.1323C101.721 79.4941 101.275 78.8563 100.83 78.218C100.136 78.098 99.4424 77.978 98.7485 77.8585C98.1531 77.7641 97.5576 77.6696 96.9622 77.5752C95.8657 77.7851 94.7692 77.995 93.6727 78.205C92.9959 78.5696 92.3197 78.9337 91.643 79.2978C90.9019 79.9361 90.1614 80.5738 89.421 81.2121C88.6754 81.9915 87.9303 82.7714 87.1853 83.5508C86.7139 84.1635 86.243 84.7762 85.7715 85.3889L84.2024 88.3454Z" fill="#A7A5A5"/>
<path d="M126.786 65.9429C126.786 65.9429 124.717 65.0617 121.401 66.8747C118.085 68.6872 116.68 72.2149 116.68 72.2149C116.333 73.0233 115.986 73.8316 115.638 74.64C115.844 75.6242 116.05 76.609 116.256 77.5937C116.462 78.5785 117.625 80.0809 117.702 80.1583C117.778 80.2362 119.668 81.6402 119.668 81.6402C120.708 82.1738 121.749 82.7074 122.79 83.2405C123.779 83.3435 124.768 83.4464 125.758 83.5494C117.534 79.0757 117.585 70.0946 126.786 65.9429Z" fill="#A7A5A5"/>
<path d="M153.378 38.1666C153.378 38.1666 151.778 36.3353 151.72 36.2772C151.662 36.2192 148.752 33.7903 148.752 33.7903C149.33 33.4367 149.909 33.0831 150.486 32.7295C151.065 32.376 149.06 31.4947 149.002 31.4379C148.944 31.3811 146.516 30.0116 146.516 30.0116L142.488 29.1657H136.434C135.393 29.365 134.352 29.5642 133.311 29.7634C132.277 29.9692 131.243 30.175 130.208 30.3808C129.174 30.5866 128.59 30.1684 128.59 30.0147C128.59 29.861 128.454 28.7422 128.454 28.7422L127.146 29.104C127.146 29.104 124.948 30.2222 123.676 32.4011C122.404 34.58 121.151 36.5267 121.151 36.5267C120.599 37.7541 120.046 38.9816 119.493 40.209C119.134 41.8479 118.775 43.4867 118.415 45.1256C119.513 45.042 120.612 44.9584 121.71 44.8749C122.808 44.7913 123.406 37.8573 126.644 34.4638C126.786 35.2221 126.927 35.9803 127.068 36.7385C127.21 37.4966 135.048 29.2195 144.721 32.4202C144.066 33.2107 143.411 34.0012 142.756 34.7918C142.1 35.5822 152.741 37.4602 156.186 45.7374C156.213 44.8463 156.241 43.9551 156.269 43.064C155.774 42.0806 155.28 41.0973 154.785 40.1139L153.378 38.1666Z" fill="#A7A5A5"/>
<path d="M175.561 100.8C174.251 101.083 174.503 107.252 170.345 111.134C168.413 112.938 167.947 112.84 167.293 114.244C166.198 116.594 168.622 119.45 173.132 114.244C177.643 109.039 176.872 100.518 175.561 100.8Z" fill="#A7A5A5"/>
<path d="M163.477 116.539C162.525 116.539 161.668 117.112 161.304 117.991C160.94 118.87 161.141 119.882 161.814 120.555C162.486 121.227 163.498 121.429 164.377 121.064C165.256 120.7 165.828 119.842 165.828 118.89C165.828 118.267 165.58 117.668 165.14 117.227C164.698 116.787 164.1 116.539 163.477 116.539Z" fill="#A7A5A5"/>
<path d="M152.575 60.9125C151.772 59.8345 150.97 58.757 150.167 57.6789C149.859 57.2597 149.569 56.8708 149.31 56.5195C146.88 53.5713 138.733 48.2028 131.498 46.7284C129.469 46.3419 127.44 45.9554 125.41 45.5688H118.973C118.973 45.5688 110.103 46.2684 109.992 46.3024C109.882 46.3363 101.05 49.1592 100.933 49.232C100.816 49.3049 93.6855 53.588 93.6855 53.588C94.7775 55.6712 95.8688 57.7546 96.9608 59.8373L103.966 63.8611C103.966 63.8611 108.179 71.3391 108.283 71.6469C108.387 71.9552 110.849 81.1109 110.849 81.5182C110.849 81.9261 109.209 89.8468 108.689 91.6672C108.169 93.4871 106.018 109.232 104.094 113.242C102.17 117.252 93.7572 124.427 89.7483 126.198C85.7394 127.969 86.5902 133.268 86.6396 133.342C86.6891 133.416 90.7037 135.533 90.7037 135.533C92.1676 136.055 93.6315 136.577 95.0954 137.1C96.2942 137.116 97.4925 137.132 98.6914 137.148C105.568 138.111 117.36 137.556 127.393 135.229C129.716 133.777 132.039 132.326 134.362 130.874C135.423 128.211 136.484 125.548 137.545 122.884C138.112 119.849 138.68 116.814 139.247 113.779C140.454 110.567 141.661 107.354 142.868 104.142C144.075 100.93 147.339 97.3555 147.574 96.7383C147.808 96.1216 151.503 86.7128 151.503 86.7128L152.969 70.2861L152.575 60.9125ZM114.779 101.404C114.705 101.367 114.107 101.053 114.021 101.004C113.935 100.954 113.169 100.584 112.996 100.294C112.825 100.004 112.263 99.3438 112.206 99.2823C112.15 99.2203 111.202 98.4307 111.202 98.4307C111.202 98.4307 111.337 97.4312 111.362 97.3754C111.387 97.3203 112.206 96.4317 112.206 96.4317C112.252 96.2507 112.297 96.0698 112.343 95.8889C112.398 95.8889 113.971 95.5066 114.021 95.4691C114.071 95.4315 116.983 93.9701 116.983 93.9701C117.687 93.8654 118.39 93.7607 119.093 93.6555C119.549 93.6105 120.006 93.565 120.462 93.5201C120.674 93.5775 120.886 93.635 121.097 93.693C121.194 93.7852 121.29 93.8773 121.387 93.9701C121.623 94.1737 121.859 94.3768 122.096 94.5805C122.062 94.7267 122.062 94.8791 122.096 95.0254C122.158 95.2722 122.096 95.8895 122.096 95.8895C122.115 96.1028 122.123 96.3167 122.121 96.5312C122.115 96.7411 121.677 97.7657 121.633 97.8385C121.589 97.9119 120.863 98.8819 120.826 99.0173C120.788 99.1532 120.074 99.8626 119.919 100.017C119.765 100.172 118.957 100.751 118.876 100.825C118.796 100.899 117.551 101.35 117.551 101.35C117.551 101.35 116.145 101.522 116.083 101.522C116.021 101.522 114.847 101.433 114.779 101.404ZM129.323 116.557C128.915 117.816 127.355 118.642 127.318 118.697C127.281 118.752 124.832 119.802 124.777 119.82C124.721 119.839 122.692 119.82 122.654 119.82C122.617 119.82 119.552 118.66 119.552 118.66C119.552 118.66 117.74 117.174 117.701 117.1C117.662 117.026 116.233 113.762 116.233 113.762C116.484 113.377 116.735 112.993 116.985 112.608C118.328 111.792 119.67 110.975 121.013 110.159C121.36 109.844 121.707 109.53 122.054 109.215C124.362 109.073 126.668 108.931 128.975 108.79C131.282 108.647 129.746 110.72 129.955 112.047C130.164 113.374 129.73 115.303 129.323 116.555V116.557ZM148.991 82.8591C148.806 84.2466 148.065 85.3514 146.882 86.3572C145.698 87.363 143.385 88.8495 141.128 89.2318C138.87 89.6141 135.521 88.7943 132.542 87.1036C129.556 85.4009 126.374 84.2222 126.349 84.1169C126.349 84.1169 121.415 82.908 120.157 82.3716C118.899 81.8351 117.431 79.774 116.454 78.2813C115.477 76.7885 115.578 75.5847 115.967 73.8081C116.355 72.0309 118.97 68.799 118.97 68.799C119.99 67.9576 121.01 67.1168 122.029 66.2754C123.296 66.0285 124.562 65.7816 125.829 65.5347C127.2 65.4232 128.571 65.3123 129.943 65.2014C130.808 65.3453 131.674 65.4892 132.539 65.6332C133.935 65.9603 135.331 66.2868 136.727 66.6139C138.123 66.9405 140.508 68.514 140.582 68.539C140.656 68.5635 144.023 71.0313 144.023 71.0313C144.023 71.0313 145.8 72.9377 145.849 73.0611C145.899 73.1846 148.113 76.4051 148.039 76.4853C147.965 76.5655 149.062 79.7735 149.088 79.9032C149.114 80.0329 149.169 81.4687 148.991 82.8568V82.8591Z" fill="#C6CACD"/>
<path d="M65.584 25.1915C65.4105 25.4551 65.2371 25.7188 65.0636 25.9824C63.1749 37.3282 61.2862 48.674 59.3975 60.02C60.0145 60.1196 60.6316 60.2191 61.2492 60.3193C62.1034 60.3642 62.9576 60.4091 63.8124 60.4546C65.2297 59.8573 66.6469 59.2605 68.0642 58.6638C69.4809 58.067 68.4509 50.3163 70.4045 41.5761C72.358 32.8358 73.3339 26.6153 73.3339 26.6153C73.3339 26.6153 69.4394 24.266 65.584 25.1915Z" fill="#C6CACD"/>
<path d="M57.854 79.6581L56.4999 81.1094L54.8291 87.3558L60.4831 91.3659L61.8708 86.9194L58.9152 79.4897L57.854 79.6581Z" fill="#C6CACD"/>
<path d="M49.0475 122.646L47.3315 135.76L48.6043 137.072H51.6683L56.5765 113.14L51.2059 112.754L49.0475 122.646Z" fill="#C6CACD"/>
<path d="M168.212 82.8569C167.338 78.7444 165.283 76.8933 165.283 76.8933C165.283 76.8933 162.505 73.86 160.348 71.4433C158.192 69.0267 156.545 66.2516 156.545 66.2516C156.545 66.2516 154.051 62.9026 151.779 59.8465C151.656 59.9933 151.532 60.1401 151.409 60.2874C140.564 50.7245 128.897 50.9806 128.897 50.9806C136.041 55.6602 135.218 61.8297 135.218 61.8297C146.989 67.5874 148.324 75.1257 148.324 75.1257C148.324 75.1257 147.425 75.1457 147.938 76.0963C148.452 77.0469 148.453 79.2069 149.018 81.1349C149.583 83.0634 148.324 83.0629 147.912 84.9908C147.501 86.9194 146.628 86.173 145.472 87.4336C144.316 88.6937 142.106 88.5379 139.664 89.2325C137.222 89.9271 131.825 87.2271 131.825 87.2271C134.394 89.798 134.911 97.1497 131.523 99.3217C131.523 99.3217 131.581 99.9583 131.735 100.883C131.89 101.808 130.906 103.988 130.254 105.877C129.601 107.766 129.54 107.844 129.54 107.844C129.54 107.844 129.746 111.16 130.183 113.319C130.62 115.478 129.721 117.304 129.721 117.304C135.425 126.198 127.405 135.231 127.405 135.231C133.472 133.827 138.899 131.773 142.21 129.026C142.159 128.717 142.107 128.409 142.056 128.1C143.512 124.09 144.969 120.08 146.425 116.07C147.557 115.384 148.688 114.698 149.82 114.013C150.762 113.636 151.704 113.259 152.646 112.882C154.085 112.386 155.525 111.888 156.963 111.391C158.142 110.921 159.236 110.261 160.202 109.438C161.745 108.101 162.206 107.277 163.492 104.759C164.777 102.241 166.113 100.543 166.987 97.6128C167.86 94.6824 167.912 93.5509 168.221 90.723C168.529 87.895 169.086 86.97 168.212 82.8569Z" fill="#A1A5A8"/>
<path d="M64.543 59.5161C65.6821 59.0149 66.8213 58.5132 67.9604 58.012C68.0594 56.7224 68.1578 55.4329 68.2561 54.1432C68.2994 53.6505 68.342 53.1579 68.3847 52.6652C68.4273 52.1724 69.1303 49.0026 69.1433 48.9507C69.1564 48.8989 70.4287 43.3321 70.4287 43.3321C70.5737 42.0339 70.7193 40.7357 70.8649 39.4375C71.263 38.0065 71.6616 36.5755 72.0597 35.1445C72.2525 33.645 72.4453 32.1455 72.6381 30.6459C72.7968 29.5449 72.9555 28.4438 73.1142 27.3427C73.1693 26.833 73.2251 26.3232 73.2808 25.8134C72.1286 25.5606 70.9763 25.3079 69.8241 25.0552C71.3278 29.1042 65.3142 53.3468 64.543 59.5161Z" fill="#A1A5A8"/>
<path d="M58.6064 90.1323L60.1494 91.4436L61.8709 87.0217L59.9691 84.9907L58.6064 90.1323Z" fill="#A1A5A8"/>
<path d="M54.174 120.722L56.501 113.371C55.0317 113.288 53.5625 113.206 52.0933 113.124C53.3647 114.247 54.3672 116.48 54.174 120.722Z" fill="#A1A5A8"/>
<path d="M113.305 95.9676C114.616 95.0545 115.928 94.1409 117.24 93.2278C125.449 88.4839 122.544 85.5968 120.003 83.1164C113.372 72.832 117.197 72.5231 115.683 65.379C112.697 50.3627 93.6827 53.5894 93.6827 53.5894C91.1292 56.1393 88.5756 58.6895 86.0221 61.2392C81.3472 65.3762 73.7548 76.416 70.8617 84.1285C70.7076 85.4426 70.554 86.7567 70.3999 88.0709C70.5535 90.2013 70.7076 92.3318 70.8617 94.4623C71.1068 95.723 71.3514 96.9836 71.5959 98.2437C71.8405 99.5044 73.4033 103.908 73.4477 104.18C73.492 104.451 74.638 107.227 74.638 107.227C74.9093 108.886 75.1806 110.546 75.4518 112.206C75.7851 114.505 76.1178 116.804 76.4511 119.103C76.7844 121.402 77.5305 121.379 80.1546 126.587C82.7787 131.794 87.7527 132.756 87.7527 132.756C103.011 138.148 121.096 131.492 118.511 118.449C118.511 118.449 118.122 117.561 117.161 115.321C116.199 113.082 116.815 111.925 116.815 111.925C122.483 105.953 116.698 102.326 116.698 102.326C116.698 102.326 116.914 101.943 115.582 101.672C114.25 101.401 112.307 99.8952 111.363 98.7227C110.419 97.5497 113.305 95.9676 113.305 95.9676ZM105.46 87.5828C105.46 87.6755 104.805 90.7054 104.805 90.7054C104.479 91.6315 104.152 92.5577 103.825 93.4838C103.445 94.7172 103.065 95.9511 102.684 97.185C102.518 98.1499 102.351 99.1141 102.185 100.079C101.927 101.272 101.67 102.466 101.413 103.66C100.713 105.015 100.011 106.37 99.3108 107.726C98.3218 108.497 97.3328 109.268 96.3443 110.039C95.6306 110.258 94.9169 110.475 94.2037 110.694C94.1479 110.718 91.5085 110.694 91.5085 110.694C91.5085 110.694 89.5225 110.175 89.4236 110.119C89.3246 110.064 87.5184 109.113 87.5184 109.113C86.7927 108.357 86.067 107.6 85.3413 106.844C84.8391 105.924 84.3375 105.005 83.8359 104.086C83.5601 103.403 83.2848 102.72 83.009 102.038C82.7337 101.354 83.0278 98.7614 83.009 98.5145C82.9908 98.2676 82.7559 94.2763 82.7559 94.2268C82.7559 94.1773 83.6818 90.6667 83.7182 90.5688C83.7546 90.4704 84.5326 87.4092 84.5326 87.3478C84.5326 87.2858 86.6477 83.4185 86.7284 83.3189C86.8098 83.2194 89.6704 80.6975 89.7529 80.6417C89.8359 80.586 93.9961 77.9395 93.9961 77.9395C93.9961 77.9395 95.692 77.6869 95.791 77.6676C95.8899 77.6482 98.3878 77.6676 98.3878 77.6676C99.3517 77.9247 100.316 78.1819 101.28 78.439C101.912 78.9078 102.543 79.3771 103.174 79.8459C103.764 80.6895 104.354 81.5338 104.944 82.3774C105.15 83.3036 105.356 84.2297 105.562 85.1559C105.767 86.082 105.46 87.4843 105.46 87.5828Z" fill="#F6FBFD"/>
<path d="M64.7485 25.6869C64.1314 30.3482 63.5144 35.0095 62.8967 39.6709C61.6461 46.9392 60.3955 54.2075 59.1449 61.476C57.8943 68.7441 60.1083 62.7679 60.1663 62.7873C60.2243 62.8066 61.4385 62.9028 61.4385 62.9028C62.1898 61.9971 62.9417 61.0914 63.6929 60.1863C62.2171 58.2424 64.5415 51.3945 65.5447 45.2252C66.5485 39.0559 69.2454 27.8349 67.4721 25.02L64.7485 25.6869Z" fill="#F6FBFD"/>
<path d="M55.8897 80.9487L55.1953 86.8287L57.7336 88.5376L59.198 83.0115L58.4143 79.2898L55.8897 80.9487Z" fill="#F6FBFD"/>
<path d="M51.0007 114.065L48.9706 122.985C48.6965 125.229 48.4225 127.475 48.1484 129.72C47.8744 131.964 46.7609 132.059 47.9941 134.09C49.2274 136.12 50.8211 132.021 51.3606 128.358C51.9 124.694 52.6197 118.232 51.592 113.961L51.0007 114.065Z" fill="#F6FBFD"/>
<path d="M96.0111 181.735C91.0394 181.76 87.0122 181.403 84.3296 180.693C84.5065 182.116 84.6828 183.539 84.8596 184.962C84.8659 185.005 84.8722 185.049 84.8784 185.092C85.7542 190.585 86.6301 196.078 87.5059 201.571C96.4666 202.459 105.355 202.44 113.959 201.719C109.645 191.903 102.574 185.406 96.0111 181.735Z" fill="#DF6064"/>
<path d="M122.575 110.854C122.575 110.854 120.923 113.18 118.073 114.525C121.249 121.861 131.074 118.683 128.189 110.04C125.659 111.681 122.575 110.854 122.575 110.854Z" fill="#AA282A"/>
<path d="M65.4192 45.2061C65.3823 45.453 65.339 45.7 65.2896 45.947C65.8691 46.0272 66.655 46.3298 67.1362 46.6014C67.445 45.0715 67.7601 43.489 68.0621 41.9275C67.532 41.7182 66.7404 41.528 66.1415 41.4336C65.8827 42.8049 65.5984 44.0891 65.4192 45.2061Z" fill="#AA282A"/>
<path d="M172.94 180.682C172.133 178.288 171.016 177.443 170.282 175.592C169.549 173.741 167.624 172.317 166.192 169.923C165.625 168.973 164.644 168.17 163.529 167.391C154.999 171.118 145.599 174.08 136.292 176.326C145.846 179.928 153.63 185.425 158.921 191.28C164.633 189.041 169.869 186.573 174.513 184C174.007 182.877 173.477 181.767 172.94 180.682Z" fill="#AA282A"/>
<path d="M186.817 152.774C180.823 158.549 172.668 163.41 163.528 167.389C164.644 168.167 165.627 168.969 166.192 169.921C167.624 172.315 169.548 173.739 170.282 175.59C171.017 177.44 172.134 178.286 172.94 180.68C173.477 181.766 174.007 182.877 174.513 184C182 179.853 187.94 175.43 191.826 171.234L186.817 152.774Z" fill="#771C1C"/>
<path d="M67.9601 41.8848C67.6575 43.4456 67.343 45.0126 67.0342 46.5426C67.7087 46.9245 68.324 47.4029 68.8603 47.9627C69.1805 46.4965 69.5013 45.0303 69.822 43.5641C69.5394 42.7553 68.8359 42.2311 67.9601 41.8848Z" fill="#771C1C"/>
<path d="M126.027 119.642C126.027 119.642 128.059 119.03 129.15 117.214C130.242 115.398 129.973 115.272 130.246 113.727C130.519 112.181 129.15 110.658 129.15 110.658C125.72 113.204 123.985 116.673 126.027 119.642Z" fill="#771C1C"/>
<path d="M136.292 176.325C121.304 179.934 106.551 181.687 96.0112 181.736C102.574 185.407 109.647 191.903 113.959 201.719C130.451 200.343 145.914 196.395 158.921 191.28C153.63 185.425 145.846 179.928 136.292 176.325Z" fill="#D63D3D"/>
<path d="M62.6064 41.3427L62.3027 43.1135C62.3027 44.5117 62.3027 45.91 62.3027 47.3083C63.2906 46.087 64.4013 45.8091 65.4176 45.9635C65.4671 45.7165 65.5103 45.4696 65.5473 45.2226C65.7259 44.1057 65.9664 42.8147 66.2263 41.4464C64.7408 41.2192 63.2286 41.2933 62.6064 41.3427Z" fill="#D63D3D"/>
<path d="M121.208 119.078C121.5 119.078 121.792 119.078 122.083 119.078C121.595 116.353 124.331 111.314 127.299 109.926C125.541 109.673 123.784 109.42 122.026 109.167C120.104 110.787 118.183 112.406 116.262 114.026C117.08 115.195 117.898 116.365 118.716 117.535L121.208 119.078Z" fill="#D63D3D"/>
<path d="M211.783 124.119C219.727 113.631 215.718 97.1514 186.883 98.928C186.883 98.928 181.95 89.3713 171.12 86.4039C170.848 80.4938 167.406 76.2732 164.168 73.4998C160.93 70.7265 158.956 66.4917 157.199 64.7765C157.199 64.7765 160.516 58.2861 159.949 50.3645C159.382 42.4429 155.928 37.8586 152.574 34.9289C153.496 34.8486 154.419 34.7683 155.342 34.6881C151.303 29.7647 144.907 25.365 131.184 28.0681C131.619 26.941 132.055 25.8141 132.491 24.687C124.899 25.6866 119.397 31.9109 116.159 43.8376C109.221 43.5043 94.19 48.9518 86.9673 56.3306C83.6062 53.6961 75.5076 51.6049 69.4513 53.0978C71.1796 44.2404 72.908 35.3831 74.6363 26.5257C72.8972 23.2497 66.668 21.1338 63.5531 25.4706C61.4045 38.6281 59.2564 51.7856 57.1079 64.9432C56.5577 65.6799 56.0511 66.4485 55.5907 67.2443C53.031 71.6743 53.6155 76.024 54.8197 78.9669C54.4887 80.9904 54.1577 83.0139 53.8266 85.0369C47.7208 82.3825 37.8832 82.7978 32.949 93.915C28.1759 104.662 34.307 120.58 46.1049 132.351C45.924 133.462 45.7432 134.573 45.5624 135.685C45.7716 137.93 49.9448 140.608 52.8149 138.115C53.0866 138.319 53.3643 138.516 53.642 138.714C53.642 138.714 43.0705 144.452 37.1617 152.421C31.2529 160.39 32.9984 173.243 48.6214 175.353C64.2447 177.463 80.1813 175.865 80.1813 175.865C83.8103 198.303 87.4388 220.742 91.0672 243.181C94.6956 265.619 102.694 251.596 122.584 252.447C142.475 253.298 189.505 245.578 208.007 212.571L187.063 143.821C187.063 143.821 203.845 134.607 211.783 124.119ZM184.312 105.734C184.762 111.761 181.524 119.695 181.377 120.053C181.543 119.862 184.231 116.746 185.521 113.859C185.521 113.859 184.571 125.192 173.777 134.138C162.984 143.083 149.606 140.234 145.949 131.405C145.949 131.405 153.77 137.957 164.101 132.288C164.101 132.288 152.604 133.935 148.003 127.69C143.506 121.589 150.187 114.539 159.949 112.626C168.689 110.911 170.799 105.993 170.799 105.993C170.799 105.993 166.71 107.641 163.921 108.06C163.921 108.06 170.206 99.6818 170.583 91.0324C179.05 94.8383 183.849 99.564 184.312 105.734ZM66.2568 26.1102C66.2568 26.1102 69.2972 24.8019 71.9969 27.1648C70.2452 36.1435 68.4936 45.1224 66.7419 54.1011C66.1601 54.3971 65.6119 54.755 65.1074 55.1687C65.5749 55.2515 66.027 55.4076 66.4462 55.6311C66.329 56.2296 66.2113 56.8281 66.0941 57.4265C65.373 57.7718 63.0475 58.9812 60.519 61.2392L66.2568 26.1102ZM59.4475 67.8036C60.792 65.6628 62.7654 63.6393 65.1956 62.0538C66.089 61.4627 67.0303 60.9462 68.0085 60.5098C70.2122 59.5171 72.5787 58.9363 74.9918 58.7958C77.4048 58.6558 73.7338 56.6968 72.6174 55.8904C72.6174 55.8904 78.5383 55.1742 84.114 59.5427C84.114 59.5427 80.7648 62.4236 79.4875 68.8219C79.4875 68.8219 88.9248 57.716 99.4587 52.3674C109.992 47.0186 123.585 45.9141 135.692 47.9972C135.692 47.9972 131.683 43.6413 120.427 43.7155C120.427 43.7155 121.932 35.3864 127.249 30.9137C127.249 30.9137 127.058 32.5734 127.329 34.1157C127.329 34.1157 136.876 27.2796 147.306 32.524C147.306 32.524 145.228 33.4742 144.419 34.3991C144.419 34.3991 151.623 37.2004 154.812 43.4191C157.705 49.0765 154.411 58.4175 153.782 60.0769C153.782 60.0769 150.853 56.1219 146.412 53.932C151.16 60.028 153.529 66.197 157.174 70.929C160.82 75.661 167.197 78.7951 166.635 87.895C166.093 96.6189 161.602 106.175 158.241 108.711C154.275 109.272 146.023 111.389 142.168 120.257C138.313 129.125 143.747 136.721 143.747 136.721C143.747 136.721 133.435 140.497 120.236 144.31C106.118 144.224 91.384 142.272 87.5844 142.083C92.7284 144.914 101.955 147.228 105.834 148.123C102.054 149.023 98.2484 149.831 94.5603 150.485C90.7237 150.671 75.9154 147.635 65.0722 140.954C61.3897 138.683 57.5355 136.104 53.8383 133.118L55.9567 122.274C61.7474 127.888 69.3404 130.257 69.3404 130.257C69.3404 130.257 60.3046 123.181 56.7215 118.375C57.0361 116.76 57.3506 115.146 57.6651 113.532C61.3772 112.427 64.653 109.244 65.0164 102.851C65.0164 102.851 68.5817 105.047 71.8746 105.448C72.7698 107.671 72.8312 109.877 72.9484 112.363C69.544 112.35 65.9235 111.524 65.7017 111.475C65.9787 111.722 70.5364 115.669 73.3249 116.607C73.7622 119.47 74.737 122.758 77.1484 126.762C83.2666 136.888 95.7563 140.829 107.062 137.572C107.062 137.572 87.3438 137.75 80.3866 123.215C74.8604 111.653 78.962 112.067 74.9901 102.849C71.5851 94.9339 71.5482 84.9584 72.1158 81.0649C72.1158 81.0649 68.6926 83.3166 68.3503 89.9857C68.3503 89.9857 65.4492 88.6277 63.2005 85.1621C62.439 83.9822 61.843 82.7033 61.4306 81.3613C60.838 79.4976 60.5116 77.283 60.6532 74.6792C60.6532 74.6792 59.4316 75.0683 58.0752 76.1969C57.9825 76.2772 57.8835 76.3636 57.7914 76.4501C56.8944 73.9174 57.5793 70.7527 59.4475 67.8036ZM61.7929 92.3949C61.9391 91.6445 62.0847 90.8936 62.2308 90.1432C63.7743 92.0991 65.8576 93.9434 68.6454 95.1409C68.6454 95.1409 69.1078 98.2317 70.0206 99.9532C70.0206 99.9532 66.6157 98.8791 64.1486 97.0843C64.1468 97.0825 63.4132 94.9617 61.7906 92.3949H61.7929ZM57.0622 82.4069C57.0622 82.4069 57.5002 81.6293 58.0496 81.1104C58.0496 81.1104 58.537 83.9503 60.2949 87.1879C60.1323 88.0184 59.9702 88.8496 59.8075 89.6802C58.8037 88.4798 57.6583 87.4046 56.3968 86.4785L57.0622 82.4069ZM36.5488 110.314C31.2319 95.7434 41.4824 85.1234 50.0664 87.4376C51.1734 87.7403 52.2353 88.1885 53.2242 88.7705C54.1195 89.2939 54.9568 89.91 55.7222 90.6092C56.9635 91.7282 58.0263 93.0304 58.8737 94.4708C59.6346 95.7485 60.2102 97.1275 60.5821 98.5673C61.4523 101.963 61.0143 105.496 58.7008 108.229C57.8978 109.18 56.8898 109.937 55.7531 110.444C54.6303 110.956 53.4582 111.203 52.3422 111.296C51.4134 111.366 50.4801 111.347 49.5547 111.24C47.9265 111.055 46.7975 110.673 46.7975 110.673C47.3098 111.53 48.1851 112.278 49.2955 112.844C48.5328 117.506 47.7701 122.168 47.0074 126.831C42.6342 122.194 38.8968 116.759 36.547 110.311L36.5488 110.314ZM51.6842 131.315C51.3492 133.033 51.0143 134.75 50.6793 136.467C50.6793 136.471 50.6793 136.475 50.6793 136.48C49.8153 136.481 48.9883 136.129 48.3906 135.505C48.4379 135.215 48.4853 134.925 48.5326 134.635C48.8266 132.837 49.1206 131.04 49.4146 129.242C50.2581 124.078 51.1017 118.914 51.9453 113.75C52.9706 113.967 54.02 114.046 55.0661 113.986L51.6842 131.315ZM51.1478 171.238C40.7615 169.9 36.9062 161.88 41.7911 153.809C46.6759 145.74 57.8022 141.137 57.8022 141.137C57.8022 141.137 58.7213 141.743 60.122 142.619C47.4777 150.511 50.0806 160.221 55.3605 163.102C52.7267 157.315 55.2309 149.288 65.3599 145.747C67.1611 146.771 68.9929 147.74 70.5154 148.388C67.0928 157.852 81.8113 156.97 102.003 153.04C122.207 149.109 146.567 140.003 146.567 140.003C154.585 146.95 169.844 144.482 179.404 134.303C194.133 118.181 188.478 103.634 188.478 103.634C197.112 102.555 214.795 105.38 210.477 117.72C206.16 130.059 174.245 149.646 132.458 160.754C90.6708 171.861 61.5262 172.573 51.146 171.235L51.1478 171.238ZM203.359 212.037C201.07 217.117 185.453 230.816 173.935 236.213C174.182 235.929 182.162 226.841 183.133 215.452C183.133 215.452 170.002 238.173 150.493 243.69C139.237 246.468 113.407 250.285 95.9093 241.105C92.721 225.422 85.1156 178.997 85.1957 175.04C89.878 175.152 116.38 170.163 141.736 162.788C164.635 163.621 174.985 185.38 175.313 186.071C172.162 169.866 162.182 161.665 155.96 158.331C166.796 154.654 176.514 150.594 183.029 146.405L203.359 212.037Z" fill="black"/>
<path d="M114.859 115.223C115.889 117.24 120.669 124.47 127.571 120.874C133.856 117.601 132.086 109.201 130.981 107.652C134.96 103.562 131.358 98.8486 131.358 98.8486C130.951 106.561 124.697 107.9 121.884 106.203C121.884 106.203 118.048 114.747 109.339 110.546C109.337 110.546 110.19 114.747 114.859 115.223ZM122.575 110.854C122.575 110.854 125.661 111.681 128.188 110.04C131.074 118.684 121.248 121.861 118.072 114.525C120.922 113.18 122.575 110.854 122.575 110.854Z" fill="black"/>
<path d="M118.023 102.766C119.875 102.328 122.036 100.675 123.543 97.2009C125.052 93.7273 123.698 91.1861 119.707 91.7476C115.716 92.3085 109.708 95.4988 109.826 97.9724C109.944 100.446 114.341 103.627 118.023 102.766ZM112.83 97.7135C114.162 96.8989 115.63 96.029 118.535 95.1712C121.44 94.3127 122.057 96.1587 120.09 98.3552C118.122 100.551 115.871 101.538 112.898 99.1818C111.824 98.3302 112.515 97.9052 112.83 97.7135Z" fill="black"/>
<path d="M127.657 86.4044C134.441 88.718 137.433 93.561 145.648 89.1436C151.045 86.2377 152.969 78.6555 146.383 71.5171C139.796 64.3793 128.174 62.3933 122.365 64.8913C116.556 67.3893 114.927 72.9115 114.927 72.9115C112.572 82.2401 120.873 84.0907 127.657 86.4044ZM127.682 66.5075C134.737 65.8902 141.306 70.9312 142.515 71.9557C149.139 77.5883 149.077 84.0571 144.143 86.9039C139.209 89.7511 131.722 85.1949 126.658 83.1901C121.958 81.327 118.665 81.2099 117.56 76.946C116.456 72.6828 120.632 67.1247 127.682 66.5075Z" fill="black"/>
<path d="M92.0082 112.18C97.2074 112.502 101.137 109.278 102.654 105.172C104.171 101.065 103.518 98.0895 105.478 92.6544C107.439 87.2192 109.062 78.7792 99.8906 76.5708C90.4232 74.2941 82.4298 84.4487 81.5045 95.1962C80.6844 105.58 85.3263 111.767 92.0082 112.18ZM84.397 93.2255C85.4463 82.9844 95.8874 75.834 101.778 80.4238C107.292 84.7178 102.937 90.7207 101.778 96.4272C100.619 102.134 99.662 109.347 92.218 109.575C84.7741 109.804 83.83 98.7557 84.4004 93.2278L84.397 93.2255Z" fill="black"/>
<path d="M92.8035 99.5146C93.0475 99.6381 93.3012 99.741 93.5622 99.8235C92.4026 98.1083 92.2041 95.7389 93.2483 93.6488C94.6166 90.9096 97.645 89.5835 100.298 90.4386C99.7794 89.6694 99.072 89.0471 98.2433 88.6307C95.431 87.2306 91.934 88.526 90.4354 91.5325C88.9368 94.5397 89.9906 98.1083 92.8035 99.5146Z" fill="#040002"/>
<path d="M131.913 74.7007C134.244 74.8924 136.169 76.2862 137.036 78.1624C137.1 77.8967 137.141 77.6265 137.16 77.354C137.413 74.22 134.903 71.462 131.56 71.1969C128.217 70.9318 125.293 73.2512 125.034 76.3835C124.963 77.3068 125.13 78.2335 125.521 79.0732C126.159 76.3607 128.86 74.4538 131.913 74.7007Z" fill="#040002"/>
<path d="M45.3435 184.271C45.3435 184.271 43.3684 191.391 37.6089 196.067C43.3702 200.744 45.3435 207.864 45.3435 207.864C45.3435 207.864 47.3236 200.744 53.0838 196.067C47.3236 191.391 45.3435 184.271 45.3435 184.271Z" fill="black"/>
<path d="M28.049 131.727C28.049 131.727 26.5059 137.296 22 140.954C26.5059 144.613 28.049 150.181 28.049 150.181C28.049 150.181 29.5976 144.613 34.1034 140.954C29.5976 137.296 28.049 131.727 28.049 131.727Z" fill="#040002"/>
<path d="M28.049 131.727C28.049 131.727 26.5059 137.296 22 140.954C26.5059 144.613 28.049 150.181 28.049 150.181C28.049 150.181 29.5976 144.613 34.1034 140.954C29.5976 137.296 28.049 131.727 28.049 131.727Z" fill="black"/>
<path d="M105.589 21.7568C105.589 21.7568 107.415 15.193 112.732 10.8796C107.418 6.5663 105.592 0 105.592 0C105.592 0 103.769 6.56818 98.4556 10.8796C103.769 15.193 105.589 21.7568 105.589 21.7568Z" fill="#040002"/>
<path d="M105.589 21.7568C105.589 21.7568 107.415 15.193 112.732 10.8796C107.418 6.5663 105.592 0 105.592 0C105.592 0 103.769 6.56818 98.4556 10.8796C103.769 15.193 105.589 21.7568 105.589 21.7568Z" fill="black"/>
<path d="M181.71 66.1555C181.71 66.1555 183.364 60.2118 188.173 56.3073C183.364 52.4027 181.71 46.4587 181.71 46.4587C181.71 46.4587 180.063 52.4027 175.254 56.3073C180.063 60.2118 181.71 66.1555 181.71 66.1555Z" fill="#040002"/>
<path d="M181.71 66.1555C181.71 66.1555 183.364 60.2118 188.173 56.3073C183.364 52.4027 181.71 46.4587 181.71 46.4587C181.71 46.4587 180.063 52.4027 175.254 56.3073C180.063 60.2118 181.71 66.1555 181.71 66.1555Z" fill="black"/>
<path d="M230.218 111.827C230.218 111.827 229.054 116.026 225.658 118.781C229.053 121.538 230.218 125.735 230.218 125.735C230.218 125.735 231.384 121.537 234.78 118.781C231.384 116.024 230.218 111.827 230.218 111.827Z" fill="#040002"/>
<path d="M230.218 111.827C230.218 111.827 229.054 116.026 225.658 118.781C229.053 121.538 230.218 125.735 230.218 125.735C230.218 125.735 231.384 121.537 234.78 118.781C231.384 116.024 230.218 111.827 230.218 111.827Z" fill="black"/>
<path d="M218.723 133.838C218.723 133.838 216.902 140.404 211.589 144.718C216.902 149.031 218.723 155.598 218.723 155.598C218.723 155.598 220.548 149.031 225.862 144.718C220.548 140.404 218.723 133.838 218.723 133.838Z" fill="black"/>
<path d="M86.7292 35.2427C86.7292 35.2427 88.2778 29.8878 92.7832 26.3697C88.2778 22.8504 86.7292 17.4961 86.7292 17.4961C86.7292 17.4961 85.1857 22.851 80.6797 26.3697C85.1851 29.8878 86.7292 35.2427 86.7292 35.2427Z" fill="black"/>
</svg>
