<svg width="256" height="256" viewBox="0 0 256 256" fill="none" xmlns="http://www.w3.org/2000/svg">
<path d="M85.3333 256C108.885 256 128 236.885 128 213.333V170.667H85.3333C61.7813 170.667 42.6667 189.781 42.6667 213.333C42.6667 236.885 61.7813 256 85.3333 256Z" fill="#0ACF83"/>
<path d="M42.6667 128C42.6667 104.448 61.7813 85.3334 85.3333 85.3334H128V170.667H85.3333C61.7813 170.667 42.6667 151.552 42.6667 128Z" fill="#A259FF"/>
<path d="M42.6667 42.6667C42.6667 19.1147 61.7813 0 85.3333 0H128V85.3333H85.3333C61.7813 85.3333 42.6667 66.2187 42.6667 42.6667Z" fill="#F24E1E"/>
<path d="M128 0H170.667C194.219 0 213.333 19.1147 213.333 42.6667C213.333 66.2187 194.219 85.3333 170.667 85.3333H128V0Z" fill="#FF7262"/>
<path d="M213.333 128C213.333 151.552 194.219 170.667 170.667 170.667C147.115 170.667 128 151.552 128 128C128 104.448 147.115 85.3334 170.667 85.3334C194.219 85.3334 213.333 104.448 213.333 128Z" fill="#1ABCFE"/>
</svg>
