<svg width="256" height="256" viewBox="0 0 256 256" fill="none" xmlns="http://www.w3.org/2000/svg">
<rect width="256" height="256" rx="32" fill="#0A0A23"/>
<path d="M52.3716 121.023L52.8374 121.077L53.2924 121.164L53.7149 121.262L54.1157 121.392L54.5058 121.543L54.8524 121.717L55.1883 121.912L55.4916 122.139L55.7841 122.377L56.0441 122.637L56.2824 122.93L56.4991 123.233L56.6941 123.569L56.8674 123.927L57.0083 124.306L57.1383 124.707L57.2358 125.129L57.3224 125.573L57.3766 126.05L57.4091 126.537L57.4199 127.047V127.296L57.4091 127.404L57.3658 127.621L57.3224 127.816L57.2899 127.902L57.2141 128.065L57.1708 128.13L57.1166 128.195L57.0733 128.26L57.0083 128.314L56.9541 128.368L56.8891 128.401L56.8241 128.444L56.7483 128.477L56.6616 128.498L56.5858 128.52L56.4124 128.542H46.7707V128.466H46.7491V130.459L46.7599 130.719L46.7924 130.979L46.8249 131.228L46.8899 131.467L46.9657 131.683L47.0632 131.9L47.1716 132.084L47.3016 132.279L47.4424 132.442L47.6049 132.615L47.7891 132.756L47.9841 132.897L48.2007 133.016L48.4282 133.135L48.6774 133.232L48.9374 133.33L49.2299 133.395L49.5224 133.471L49.8474 133.525L50.1832 133.557L50.5299 133.59L50.8983 133.612L51.2882 133.622H51.4291L51.5699 133.612H51.7108L51.8407 133.601H51.9816L52.2416 133.579L52.4907 133.557L52.6099 133.547L52.7291 133.525L52.9566 133.492L53.0649 133.482L53.1732 133.46L53.4874 133.395L53.5849 133.362L53.6824 133.341L53.7691 133.308L53.8666 133.276L53.9533 133.243L54.0074 133.232L54.1699 133.167L54.2349 133.135L54.2999 133.113L54.4299 133.048L54.6574 132.929L54.7441 132.886L54.8199 132.832L55.0041 132.734L55.0908 132.68L55.1883 132.626L55.2858 132.561L55.4916 132.42L55.5999 132.355L55.7083 132.279L55.8274 132.203L55.9574 132.073L56.0983 131.965L56.1632 131.911L56.2174 131.867L56.2824 131.824L56.3366 131.77L56.4341 131.694L56.5424 131.629L56.5858 131.597L56.6291 131.575L56.6724 131.542L56.7483 131.51L56.7808 131.499L56.8241 131.488L56.8458 131.477L56.8999 131.467H56.9974L57.1058 131.477L57.2683 131.51L57.3116 131.532L57.3874 131.575L57.4308 131.607L57.5283 131.705L57.5608 131.748L57.6041 131.835L57.6149 131.889L57.6366 131.943L57.6474 132.008L57.6691 132.117V132.333L57.6583 132.409L57.6474 132.474L57.6366 132.55L57.5716 132.767L57.5391 132.832L57.4958 132.907L57.4633 132.983L57.4199 133.059L57.3658 133.135L57.3116 133.2L57.2033 133.352L57.0624 133.492L56.9216 133.644L56.7483 133.796L56.6508 133.861L56.5641 133.947L56.4016 134.056L56.2391 134.175L55.8924 134.392L55.7083 134.489L55.5133 134.587L55.3183 134.673L55.1124 134.749L54.9066 134.836L54.6791 134.912L54.2241 135.042L53.9858 135.096L53.7366 135.15L53.2274 135.247L52.6857 135.312L52.1224 135.356L51.8299 135.367L51.5266 135.377H50.7032L50.1941 135.345L49.7066 135.302L49.2516 135.226L48.8074 135.15L48.3957 135.052L48.0057 134.933L47.6374 134.792L47.3016 134.63L46.9766 134.457L46.6841 134.262L46.4024 134.045L46.1641 133.817L45.9366 133.568L45.7307 133.297L45.5574 133.016L45.4057 132.702L45.2649 132.387L45.1566 132.041L45.0807 131.672L45.0157 131.293L44.9832 130.892L44.9724 130.47V125.367L44.9832 125.216L44.9941 125.086L45.0049 124.945L45.0482 124.663L45.0916 124.522L45.1241 124.392L45.2107 124.132L45.3191 123.872L45.4491 123.623L45.5141 123.504L45.5899 123.374L45.6766 123.266L45.7632 123.147L45.8499 123.038L45.9474 122.919L46.1532 122.702L46.4024 122.453L46.7274 122.193L46.8899 122.074L47.0741 121.955L47.2582 121.847L47.4424 121.749L47.6374 121.652L48.0491 121.478L48.2657 121.402L48.7207 121.272L48.9591 121.218L49.2082 121.164L49.4466 121.121L49.7066 121.088L49.9666 121.045L50.2266 121.023L50.4974 121.002L51.0607 120.98H51.3532L51.8624 120.991L52.3716 121.023ZM50.1616 122.757L49.7174 122.832L49.2949 122.941L48.8832 123.082L48.4824 123.244L48.1032 123.439L47.7566 123.71L47.4641 123.992L47.2149 124.295L47.0091 124.62L46.8682 124.956L46.7816 125.302L46.7491 125.682V126.722H55.6216L55.5241 125.66L55.2533 124.761L54.7874 124.013L54.1374 123.439L53.3141 123.027L52.2849 122.778L51.0824 122.702L50.6166 122.713L50.1616 122.757Z" fill="white"/>
<path d="M130.144 121.023L130.61 121.077L131.065 121.164L131.487 121.262L131.888 121.392L132.267 121.543L132.625 121.717L132.961 121.912L133.275 122.139L133.557 122.377L133.817 122.637L134.055 122.93L134.282 123.233L134.467 123.569L134.64 123.927L134.792 124.306L134.911 124.707L135.019 125.129L135.095 125.573L135.149 126.05L135.182 126.537L135.192 127.047V127.177L135.182 127.296L135.16 127.512L135.138 127.621L135.117 127.718L135.084 127.816L135.062 127.902L135.03 127.978L134.987 128.065L134.943 128.13L134.835 128.26L134.727 128.368L134.586 128.444L134.445 128.498L134.358 128.52L134.185 128.542L124.522 128.552V130.459L124.532 130.719L124.554 130.979L124.597 131.228L124.662 131.467L124.738 131.683L124.825 131.9L124.944 132.084L125.063 132.279L125.215 132.442L125.377 132.615L125.562 132.756L125.757 132.897L125.962 133.016L126.201 133.135L126.45 133.232L126.71 133.33L126.992 133.395L127.295 133.471L127.62 133.525L127.956 133.557L128.302 133.59L128.671 133.612L129.061 133.622H129.202L129.342 133.612H129.483L129.754 133.601L130.014 133.579L130.252 133.557L130.382 133.547L130.502 133.525L130.837 133.482L131.054 133.438L131.26 133.395L131.357 133.362L131.455 133.341L131.552 133.308L131.639 133.276L131.78 133.232L131.823 133.211L131.888 133.189L131.942 133.167L132.007 133.135L132.062 133.113L132.137 133.081L132.354 132.972L132.506 132.886L132.592 132.832L132.679 132.788L132.766 132.734L132.961 132.626L133.156 132.496L133.372 132.355L133.481 132.279L133.6 132.203L133.665 132.138L133.741 132.073L133.795 132.019L133.871 131.965L133.925 131.911L133.99 131.867L134.109 131.77L134.163 131.737L134.217 131.694L134.261 131.662L134.315 131.629L134.358 131.597L134.402 131.575L134.445 131.542L134.521 131.51L134.651 131.467H134.824L134.889 131.477L134.987 131.499L135.041 131.51L135.171 131.575L135.301 131.705L135.333 131.748L135.377 131.835L135.387 131.889L135.409 131.943L135.431 132.062L135.442 132.117V132.333L135.431 132.409L135.42 132.474L135.409 132.55L135.366 132.702L135.344 132.767L135.312 132.832L135.268 132.907L135.236 132.983L135.138 133.135L135.084 133.2L135.03 133.276L134.911 133.427L134.683 133.644L134.434 133.861L134.337 133.947L134.012 134.175L133.849 134.283L133.665 134.392L133.481 134.489L133.286 134.587L133.091 134.673L132.885 134.749L132.668 134.836L132.452 134.912L131.997 135.042L131.758 135.096L131.509 135.15L131.26 135.193L131 135.247L130.458 135.312L129.895 135.356L129.299 135.377H128.465L127.967 135.345L127.479 135.302L127.013 135.226L126.591 135.15L126.168 135.052L125.778 134.933L125.421 134.792L125.063 134.63L124.749 134.457L124.457 134.262L124.186 134.045L123.937 133.817L123.698 133.568L123.503 133.297L123.319 133.016L123.167 132.702L123.037 132.387L122.929 132.041L122.842 131.672L122.788 131.293L122.745 130.892L122.734 130.47V125.508L122.745 125.367V125.216L122.767 125.086L122.777 124.945L122.799 124.804L122.853 124.522L122.983 124.132L123.092 123.872L123.211 123.623L123.287 123.504L123.362 123.374L123.438 123.266L123.536 123.147L123.622 123.038L123.72 122.919L123.926 122.702L124.034 122.594L124.186 122.453L124.337 122.323L124.5 122.193L124.662 122.074L124.847 121.955L125.031 121.847L125.215 121.749L125.421 121.652L125.616 121.565L125.822 121.478L126.038 121.402L126.493 121.272L126.97 121.164L127.219 121.121L127.468 121.088L127.739 121.045L127.999 121.023L128.27 121.002L128.833 120.98H129.126L129.646 120.991L130.144 121.023ZM127.934 122.757L127.49 122.832L127.067 122.941L126.656 123.082L126.255 123.244L125.887 123.439L125.518 123.71L125.204 123.992L124.955 124.295L124.771 124.62L124.63 124.956L124.554 125.302L124.522 125.682V126.722H133.394L133.297 125.66L133.026 124.761L132.56 124.013L131.91 123.439L131.087 123.027L130.057 122.778L128.855 122.702L128.389 122.713L127.934 122.757Z" fill="white"/>
<path d="M234.534 115.184C234.404 115.314 234.274 115.498 234.274 115.672C234.274 115.986 234.643 116.419 235.325 117.113C238.174 119.853 239.604 123.201 239.594 127.242C239.583 131.716 238.077 135.313 235.152 138.086C234.534 138.638 234.285 139.072 234.285 139.44C234.285 139.624 234.415 139.808 234.534 139.993C234.654 140.123 234.903 140.242 235.087 140.242C235.759 140.242 236.712 139.451 237.947 137.891C240.352 134.944 241.435 131.683 241.5 127.253C241.554 122.811 240.168 119.799 237.438 116.69C236.463 115.574 235.639 115 235.087 115C234.903 115 234.708 115.065 234.534 115.184V115.184Z" fill="white"/>
<path d="M149.146 116.907C150.381 117.838 151.02 119.149 151.02 120.752C151.02 121.489 150.706 121.857 150.088 121.857C149.666 121.857 149.352 121.489 149.168 120.752C149.048 120.135 148.799 119.582 148.496 118.997C147.933 118.022 146.752 117.567 144.899 117.567C143.285 117.567 142.169 117.936 141.498 118.737C140.88 119.474 140.512 120.601 140.512 122.269V128.715C140.512 130.394 140.88 131.564 141.563 132.301C142.299 133.102 143.426 133.525 145.029 133.525C147.445 133.525 148.864 132.669 149.168 130.99C149.298 130.372 149.352 130.058 149.352 130.004C149.482 129.636 149.731 129.452 150.088 129.452C150.706 129.452 151.02 129.82 151.02 130.557C151.02 132.117 150.403 133.287 149.092 134.218C148.041 134.89 146.73 135.258 145.008 135.258C143.014 135.258 141.476 134.825 140.349 133.904C139.093 133.037 138.475 131.564 138.475 129.636V121.879C138.475 117.795 140.588 115.802 144.921 115.802C146.665 115.802 148.019 116.17 149.146 116.907V116.907Z" fill="white"/>
<path d="M29.3943 122.118C29.3943 121.511 29.7626 121.262 30.4993 121.262H34.096C34.7135 121.262 35.0168 121.814 35.0168 122.822C36.1218 121.652 37.3135 120.948 38.5485 120.948C39.5885 120.948 40.4118 121.262 40.9643 121.879C41.5818 122.497 41.831 123.374 41.831 124.36C41.831 125.043 41.5168 125.411 40.9643 125.411C40.596 125.411 40.3468 125.162 40.2276 124.728C39.9785 123.862 39.8593 123.439 39.7943 123.374C39.556 122.952 39.0576 122.703 38.4401 122.703C37.7685 122.703 37.086 122.952 36.5118 123.439C36.1435 123.688 35.6451 124.241 35.0168 125.053V133.363H38.3535C39.0901 133.363 39.4693 133.677 39.4693 134.229C39.4693 134.847 39.0901 135.161 38.3535 135.161H30.4126C29.676 135.161 29.3076 134.847 29.3076 134.294C29.3076 133.677 29.676 133.428 30.4126 133.428H33.1426V133.352H33.1643V122.984H30.4993C29.7626 122.984 29.3943 122.681 29.3943 122.118V122.118Z" fill="white"/>
<path d="M118.737 115.043L118.802 115.065L118.867 115.098L118.921 115.13L118.986 115.173L119.127 115.314L119.159 115.379L119.203 115.444L119.235 115.52L119.257 115.596L119.3 115.769L119.343 115.964L119.354 116.181V134.619L119.343 134.695V134.771L119.3 134.912L119.289 134.966L119.257 135.031L119.235 135.085L119.17 135.183L119.094 135.269L119.04 135.302L118.997 135.334L118.943 135.367L118.834 135.41L118.769 135.432L118.639 135.453L118.563 135.464H118.444L118.303 135.443L118.26 135.432L118.217 135.41L118.173 135.399L118.141 135.378L118.108 135.367L118.076 135.334L118.043 135.313L117.978 135.258L117.957 135.226L117.881 135.096L117.87 135.053L117.848 134.998L117.838 134.955L117.816 134.901V134.673L117.805 134.63V134.587L117.794 134.543V134.457L117.783 134.403V134.305L117.773 134.208V134.143L117.762 134.099V133.915L117.751 133.85V133.709L117.61 133.807L117.469 133.893L117.328 133.991L117.068 134.143L116.949 134.229L116.819 134.305L116.592 134.435L116.483 134.5L116.386 134.565L116.278 134.619L116.007 134.771L115.855 134.858L115.703 134.923L115.573 134.977L115.519 134.998L115.422 135.042L115.324 135.074L115.227 135.096L115.021 135.161L114.588 135.248L114.36 135.28L114.122 135.313L114.003 135.334L113.753 135.356H113.623L113.493 135.367H113.374L113.244 135.378H112.746L112.518 135.367L112.302 135.356L112.085 135.334L111.879 135.323L111.663 135.291L111.468 135.269L111.067 135.193L110.698 135.107L110.503 135.053L110.157 134.944L109.81 134.814L109.648 134.738L109.485 134.673L109.03 134.413L108.889 134.327L108.738 134.218L108.434 133.98L108.304 133.861L108.174 133.72L108.055 133.59L107.936 133.449L107.828 133.298L107.73 133.146L107.546 132.832L107.47 132.669L107.394 132.496L107.329 132.323L107.275 132.149L107.221 131.954L107.178 131.759L107.145 131.575L107.123 131.369L107.091 131.163L107.08 130.958V125.313L107.091 125.108L107.123 124.913L107.145 124.718L107.178 124.523L107.264 124.154L107.318 123.981L107.383 123.808L107.448 123.645L107.535 123.483L107.611 123.32L107.806 123.017L108.023 122.735L108.131 122.605L108.391 122.345L108.673 122.107L108.824 121.998L109.247 121.738L109.409 121.663L109.713 121.511L110.048 121.381L110.211 121.327L110.568 121.218L110.926 121.132L111.706 121.002L112.107 120.969L112.518 120.948H113.006L113.277 120.969H113.548L113.678 120.991L113.808 121.002L114.046 121.023L114.284 121.067L114.403 121.078L114.631 121.121L114.739 121.143L114.837 121.164L115.14 121.251L115.238 121.283L115.335 121.327L115.422 121.359L115.519 121.392L115.606 121.435L115.703 121.468L115.801 121.511L115.909 121.565L116.093 121.663L116.408 121.836L116.505 121.89L116.819 122.096L117.036 122.248L117.133 122.323L117.567 122.67V116.289L117.578 116.181V115.964L117.621 115.769L117.632 115.683L117.664 115.596L117.686 115.52L117.718 115.444L117.751 115.379L117.794 115.314L117.838 115.271L117.881 115.217L117.924 115.173L117.978 115.13L118.087 115.065L118.152 115.043L118.293 115.011L118.358 115H118.509L118.585 115.011L118.737 115.043ZM112.562 122.833L112.28 122.865L111.998 122.887L111.728 122.941L111.468 122.995L111.218 123.049L110.763 123.223L110.558 123.32L110.363 123.428L110.146 123.591L109.929 123.764L109.745 123.948L109.583 124.133L109.431 124.338L109.312 124.555L109.203 124.772L109.117 125.021L109.063 125.27L109.019 125.519L109.008 125.801V130.698L109.019 130.979L109.052 131.25L109.106 131.499L109.182 131.748L109.279 131.976L109.409 132.193L109.55 132.398L109.723 132.583L109.908 132.756L110.124 132.908L110.363 133.059L110.568 133.157L111.023 133.33L111.262 133.406L111.5 133.471L111.76 133.536L112.031 133.579L112.313 133.623L112.605 133.655L113.212 133.677L113.721 133.666L114.198 133.623L114.663 133.558L114.891 133.514L115.108 133.449L115.519 133.319L115.703 133.243L115.855 133.135L116.028 133.016L116.191 132.897L116.364 132.767L116.548 132.637L116.722 132.496L116.917 132.355L117.101 132.193L117.296 132.03L117.686 131.683V124.544L117.458 124.371L117.231 124.219L117.014 124.068L116.798 123.927L116.592 123.797L116.397 123.678L116.213 123.558L116.039 123.461L115.714 123.309L115.573 123.244L115.368 123.168L114.956 123.038L114.739 122.984L114.306 122.898L114.078 122.865L113.851 122.843L113.623 122.833L113.158 122.822H112.854L112.562 122.833Z" fill="white"/>
<path d="M225.965 128.043C224.893 127.772 229.28 122.594 221.491 116.397C221.491 116.397 222.509 119.647 217.363 126.895C212.207 134.132 219.649 138.443 219.649 138.443C219.649 138.443 216.161 136.58 220.223 129.95C220.949 128.747 221.903 127.664 223.083 125.205C223.083 125.205 224.123 126.689 223.582 129.885C222.769 134.727 227.124 133.341 227.189 133.406C228.717 135.193 225.933 138.346 225.759 138.443C225.586 138.541 233.711 133.568 227.937 126.072C227.547 126.462 227.038 128.325 225.965 128.043V128.043Z" fill="white"/>
<path d="M160.532 120.817L160.737 120.828L160.932 120.85L161.127 120.861L161.322 120.882L161.691 120.926L161.864 120.947L162.037 120.991L162.2 121.012L162.352 121.056L162.514 121.088L162.817 121.175L163.099 121.262L163.489 121.424L163.619 121.489L163.738 121.543L163.847 121.608L163.966 121.673L164.096 121.76L164.204 121.857L164.323 121.955L164.54 122.172L164.735 122.41L164.908 122.67L164.984 122.8L165.136 123.082L165.266 123.396L165.32 123.547L165.363 123.71L165.417 123.883L165.461 124.046L165.493 124.23L165.515 124.403L165.558 124.793L165.569 124.988L165.591 125.183V131.965L165.612 132.268L165.623 132.344L165.645 132.474L165.667 132.539L165.677 132.604L165.71 132.723L165.732 132.777L165.797 132.929L165.829 132.972L165.851 133.016L165.883 133.059L165.948 133.135L166.035 133.222L166.057 133.232V133.243H166.089L166.1 133.265L166.154 133.287L166.176 133.297L166.23 133.319L166.262 133.341L166.306 133.352L166.425 133.395L166.555 133.449L166.663 133.492L166.707 133.503L166.761 133.525L166.815 133.557L166.912 133.59L166.988 133.622L167.01 133.644L167.042 133.666L167.097 133.709L167.118 133.731L167.14 133.763L167.162 133.785L167.205 133.85L167.237 133.915L167.248 133.958L167.259 133.991L167.281 134.077V134.121L167.292 134.164L167.302 134.218V134.272L167.313 134.327V134.554L167.292 134.608V134.652L167.281 134.706L167.27 134.749L167.248 134.792L167.237 134.836L167.216 134.868L167.183 134.912L167.129 134.977L167.107 135.009L167.064 135.031L166.945 135.096L166.858 135.139L166.75 135.161L166.642 135.172H166.425L166.392 135.161H166.349L166.241 135.139L166.208 135.117H166.176L166.111 135.096L165.992 135.063L165.862 135.031L165.807 135.02L165.764 135.009L165.71 134.987L165.482 134.912L165.407 134.89L165.331 134.857L165.071 134.771L164.962 134.727L164.908 134.717L164.865 134.695L164.811 134.684L164.767 134.673L164.724 134.652L164.692 134.641L164.616 134.619L164.54 134.587L164.507 134.576L164.497 134.565L164.475 134.554H164.399L164.367 134.532L164.334 134.522L164.291 134.511L164.269 134.489L164.204 134.446L164.172 134.413L164.15 134.381L164.117 134.348L164.096 134.316L164.074 134.272L164.042 134.229L164.02 134.186L164.009 134.142L163.977 134.099L163.955 134.045L163.922 133.947L163.857 133.72L163.836 133.655L163.587 133.828L163.348 133.991L163.24 134.067L163.023 134.197L162.915 134.272L162.547 134.511L162.46 134.554L162.384 134.608L162.157 134.738L162.092 134.782L161.918 134.868L161.864 134.89L161.767 134.933L161.723 134.944L161.658 134.987L161.582 135.009L161.42 135.063L160.987 135.172L160.9 135.182L160.705 135.215L160.607 135.226L160.51 135.247L160.207 135.28L159.99 135.302H159.882L159.762 135.312H158.95L158.777 135.302L158.441 135.28L158.116 135.247L157.953 135.226L157.791 135.193L157.487 135.139L157.195 135.074L157.043 135.031L156.902 134.987L156.772 134.944L156.632 134.89L156.372 134.792L156.242 134.727L156.122 134.673L156.003 134.608L155.884 134.532L155.765 134.467L155.657 134.392L155.397 134.218L155.158 134.012L155.05 133.904L154.952 133.796L154.844 133.687L154.584 133.33L154.432 133.07L154.367 132.94L154.302 132.799L154.248 132.669L154.194 132.528L154.107 132.236L154.042 131.932L153.999 131.607L153.977 131.282V130.936L153.988 130.773L153.999 130.6L154.021 130.448L154.075 130.123L154.151 129.82L154.205 129.668L154.324 129.387L154.454 129.105L154.617 128.845L154.79 128.607L154.887 128.487L154.996 128.368L155.212 128.152L155.332 128.054L155.581 127.859L155.722 127.772L156.079 127.512L156.339 127.372L156.621 127.231L156.762 127.177L157.043 127.057L157.195 127.003L157.65 126.873L157.812 126.841L157.964 126.797L158.127 126.776L158.289 126.743L158.462 126.722L158.625 126.711L158.798 126.689L159.318 126.657H159.643L159.784 126.667H159.936L160.25 126.689L160.402 126.711L160.564 126.732L160.716 126.754L160.889 126.776L161.041 126.797L161.203 126.841L161.377 126.862L161.539 126.895L161.886 126.982L162.417 127.112L162.59 127.166L163.142 127.328L163.532 127.458L163.717 127.523V125.216L163.706 125.097L163.695 124.988L163.684 124.858L163.662 124.761L163.641 124.642L163.597 124.533L163.565 124.425L163.532 124.327L163.478 124.23L163.435 124.132L163.316 123.959L163.251 123.862L163.186 123.786L163.11 123.699L162.947 123.547L162.861 123.472L162.666 123.342L162.557 123.277L162.341 123.168L162.222 123.103L162.146 123.071L161.972 123.006L161.604 122.887L161.322 122.822L161.214 122.8L161.117 122.789L161.008 122.767L160.911 122.757L160.586 122.724L160.477 122.702H160.369L160.25 122.692L160.142 122.681H159.405L159.134 122.692L158.874 122.702L158.625 122.724L158.17 122.789L157.953 122.822L157.747 122.865L157.563 122.919L157.379 122.984L157.206 123.038L157.043 123.114L156.892 123.19L156.751 123.266L156.621 123.363L156.491 123.45L156.382 123.558L156.285 123.667L156.187 123.786L156.101 123.905L156.036 124.024L155.971 124.165L155.917 124.306L155.873 124.457L155.841 124.609L155.83 124.685L155.808 124.75L155.765 124.988L155.743 125.086L155.732 125.14L155.722 125.183L155.711 125.216V125.259L155.689 125.324L155.678 125.389L155.667 125.432V125.454L155.657 125.476V125.53L155.635 125.562L155.602 125.638L155.592 125.66L155.537 125.725L155.527 125.747L155.494 125.768L155.44 125.822L155.418 125.833L155.397 125.855L155.364 125.866L155.332 125.887L155.234 125.92L155.191 125.931L155.126 125.952H155.039L155.007 125.963H154.844L154.779 125.952L154.638 125.931L154.573 125.92L154.411 125.855L154.302 125.79L154.259 125.747L154.216 125.714L154.129 125.627L154.097 125.573L154.042 125.476L154.01 125.411L153.999 125.346L153.956 125.216L153.945 125.151V125.075L153.934 124.988V124.804L153.945 124.696V124.587L153.967 124.479L153.977 124.371L154.021 124.154L154.075 123.937L154.107 123.829L154.14 123.732L154.227 123.515L154.281 123.407L154.378 123.201L154.573 122.897L154.638 122.8L154.714 122.702L154.952 122.41L155.039 122.312L155.147 122.193L155.386 121.977L155.516 121.879L155.797 121.684L155.949 121.597L156.112 121.511L156.285 121.424L156.447 121.359L156.632 121.283L156.827 121.218L157.022 121.164L157.433 121.056L157.65 121.012L158.105 120.926L158.582 120.872L159.08 120.828L159.34 120.817H159.611L159.882 120.807H160.098L160.315 120.817H160.532ZM157.921 128.737L157.184 128.997L156.599 129.376L156.187 129.852L155.938 130.437L155.862 131.131L155.884 131.499L155.949 131.835L156.068 132.16L156.231 132.452L156.447 132.723L156.718 132.94L157.032 133.124L157.303 133.265L157.607 133.395L157.932 133.492L158.278 133.579L158.647 133.633L159.037 133.666L159.448 133.677L159.817 133.666L160.163 133.644L160.51 133.601L160.846 133.525L161.171 133.449L161.496 133.33L161.81 133.189L162.027 133.059L162.265 132.897L162.536 132.723L162.817 132.528L163.121 132.301L163.446 132.062L163.782 131.813V129.202L163.197 129.029L162.622 128.877L162.048 128.758L161.485 128.661L160.932 128.585L160.402 128.542L159.882 128.531L158.82 128.585L157.921 128.737Z" fill="white"/>
<path d="M15.0508 121.283H17.0442V119.539C17.0442 116.506 18.6042 115 21.6375 115C22.8725 115 23.9342 115.249 24.7358 115.683C25.7758 116.3 26.3608 117.308 26.3608 118.478C26.3608 119.268 26.0467 119.583 25.4942 119.583C25.1258 119.583 24.7575 119.333 24.5625 118.9C24.3242 118.109 24.075 117.676 23.9558 117.47C23.5875 117.037 22.84 116.788 21.7783 116.788C19.915 116.788 18.9942 117.708 18.9942 119.583V121.262H22.58C23.3817 121.262 23.75 121.576 23.75 122.118C23.75 122.735 23.3817 122.984 22.58 122.984H18.9942V134.338C18.9942 135.009 18.68 135.378 18.1275 135.378C17.51 135.378 17.2608 135.009 17.2608 134.338V123.006H15.0508C14.3683 123.006 14 122.703 14 122.15C14 121.522 14.3683 121.283 15.0508 121.283V121.283Z" fill="white"/>
<path d="M99.3667 121.013L100.027 121.099L100.634 121.229L101.197 121.392L101.717 121.587L102.183 121.825L102.595 122.096L102.963 122.41L103.277 122.757L103.548 123.136L103.776 123.558L103.949 124.013L104.068 124.501L104.144 125.032L104.166 125.584V130.687L104.144 131.25L104.068 131.77L103.949 132.268L103.787 132.723L103.57 133.135L103.31 133.514L102.996 133.861L102.638 134.175L102.227 134.446L101.772 134.684L101.262 134.89L100.71 135.053L100.114 135.172L99.4642 135.269L98.7708 135.323L98.0342 135.345L97.2542 135.334L96.5175 135.291L95.835 135.204L95.2067 135.085L94.6325 134.923L94.1125 134.728L93.6467 134.489L93.2242 134.218L92.8558 133.904L92.5308 133.558L92.26 133.168L92.0325 132.756L91.87 132.29L91.7508 131.792L91.675 131.261L91.6533 130.687V125.584L91.675 125.032L91.7508 124.501L91.87 124.013L92.0433 123.558L92.26 123.136L92.5417 122.757L92.8558 122.41L93.2242 122.096L93.6467 121.825L94.1125 121.587L94.6217 121.392L95.185 121.229L95.7917 121.099L96.4525 121.013L97.1567 120.948L97.915 120.937L98.6625 120.948L99.3667 121.013ZM96.4742 122.757L95.9 122.865L95.3908 123.006L94.9358 123.19L94.535 123.418L94.1992 123.678L93.9283 123.981L93.7117 124.328L93.56 124.707L93.4625 125.129L93.4408 125.584V130.687L93.4625 131.142L93.56 131.564L93.7117 131.954L93.9392 132.29L94.2208 132.593L94.5567 132.853L94.9575 133.07L95.4233 133.254L95.9542 133.384L96.55 133.482L97.2 133.525H98.6083L99.2475 133.482L99.8325 133.395L100.352 133.265L100.807 133.092L101.208 132.875L101.544 132.626L101.826 132.323L102.042 131.976L102.194 131.586L102.292 131.153L102.324 130.687V125.584L102.292 125.129L102.194 124.707L102.042 124.328L101.826 123.981L101.533 123.678L101.197 123.418L100.786 123.19L100.309 123.006L99.7783 122.865L99.1825 122.757L98.5108 122.703L97.785 122.681L97.1025 122.703L96.4742 122.757Z" fill="white"/>
<path d="M211.037 115.195C211.167 115.314 211.286 115.498 211.286 115.683C211.286 115.997 210.918 116.419 210.235 117.113C207.397 119.853 205.967 123.201 205.978 127.253C205.988 131.716 207.494 135.313 210.419 138.097C211.026 138.638 211.286 139.072 211.286 139.44C211.286 139.624 211.156 139.819 211.037 139.993C210.918 140.123 210.668 140.253 210.484 140.253C209.802 140.253 208.859 139.451 207.624 137.891C205.219 134.944 204.136 131.694 204.071 127.253C204.017 122.811 205.403 119.799 208.133 116.69C209.108 115.585 209.932 115 210.484 115C210.668 115 210.853 115.065 211.037 115.195V115.195Z" fill="white"/>
<path d="M176.056 122.518C176.543 121.901 176.977 121.522 177.41 121.348C177.833 121.099 178.45 120.98 179.143 120.98C181.267 120.98 182.372 122.02 182.372 124.068V134.132C182.372 134.988 182.068 135.367 181.451 135.367C180.833 135.367 180.584 134.988 180.584 134.132V124.707C180.584 123.418 180.032 122.724 178.97 122.724C178.168 122.724 177.345 123.212 176.673 124.154V134.218C176.673 135.074 176.359 135.443 175.807 135.443C175.254 135.443 174.94 135.074 174.94 134.218V124.913C174.94 123.472 174.333 122.8 173.196 122.8C172.459 122.8 171.766 123.298 171.029 124.241V134.229C171.029 135.096 170.715 135.464 170.098 135.464C169.48 135.464 169.242 135.096 169.242 134.229V121.901C169.242 121.283 169.48 121.034 169.978 121.034C170.228 121.034 170.466 121.218 170.596 121.587C170.715 121.749 170.78 122.063 170.78 122.432C171.354 121.814 171.723 121.446 171.885 121.316C172.253 121.078 172.752 120.948 173.445 120.948C174.431 120.948 175.308 121.446 176.056 122.518V122.518Z" fill="white"/>
<path d="M67.9392 121.023L68.4159 121.077L68.86 121.164L69.2934 121.262L69.6942 121.392L70.0734 121.543L70.4309 121.717L70.7667 121.912L71.07 122.139L71.3625 122.377L71.6225 122.637L71.8609 122.93L72.0775 123.233L72.2725 123.569L72.4459 123.927L72.5867 124.306L72.7059 124.707L72.8142 125.129L72.89 125.573L72.955 126.05L72.9875 126.537L72.9984 127.047V127.177L72.9875 127.296L72.9767 127.404L72.9442 127.621L72.9225 127.718L72.89 127.816L72.8684 127.902L72.7817 128.065L72.7492 128.13L72.6409 128.26L72.5867 128.314L72.5217 128.368L72.4675 128.401L72.3917 128.444L72.3159 128.477L72.1642 128.52L72.0775 128.531L71.98 128.542H62.3492V128.466H62.3275V130.459L62.3384 130.719L62.36 130.979L62.4034 131.228L62.4684 131.467L62.5334 131.683L62.6309 131.9L62.7392 132.084L62.8692 132.279L63.0209 132.442L63.1834 132.615L63.3567 132.756L63.5517 132.897L63.7684 133.016L64.0067 133.135L64.245 133.232L64.5159 133.33L64.7975 133.395L65.1009 133.471L65.415 133.525L65.7509 133.557L66.1084 133.59L66.4767 133.612L66.8667 133.622H67.0075L67.1484 133.612H67.2784L67.4192 133.601H67.5492L67.8092 133.579L68.0584 133.557L68.1775 133.547L68.3075 133.525L68.6434 133.482L68.7517 133.46L68.8492 133.438L68.9575 133.417L69.055 133.395L69.1634 133.362L69.2609 133.341L69.4342 133.276L69.5317 133.243L69.575 133.232L69.6292 133.211L69.6942 133.189L69.7484 133.167L69.8025 133.135L69.8675 133.113L69.9325 133.081L70.0084 133.048L70.16 132.972L70.3117 132.886L70.3984 132.832L70.485 132.788L70.5717 132.734L70.7667 132.626L70.8534 132.561L71.0592 132.42L71.1675 132.355L71.2867 132.279L71.395 132.203L71.5359 132.073L71.6767 131.965L71.7309 131.911L71.7959 131.867L71.85 131.824L71.915 131.77L72.0125 131.694L72.11 131.629L72.1642 131.597L72.2075 131.575L72.2509 131.542L72.3267 131.51L72.4242 131.477L72.4784 131.467H72.5759L72.6842 131.477L72.8467 131.51L72.89 131.532L72.9659 131.575L73.0092 131.607L73.1067 131.705L73.1392 131.748L73.1825 131.835L73.2042 131.943L73.2259 132.008V132.062L73.2367 132.117V132.192L73.2475 132.268L73.2367 132.333V132.409L73.2259 132.474L73.215 132.55L73.1392 132.767L73.1067 132.832L73.0417 132.983L72.9442 133.135L72.89 133.2L72.7709 133.352L72.6409 133.492L72.4892 133.644L72.3159 133.796L72.2292 133.861L72.1425 133.947L71.98 134.056L71.8175 134.175L71.4709 134.392L71.2867 134.489L71.0917 134.587L70.8967 134.673L70.6909 134.749L70.4742 134.836L70.2575 134.912L70.03 134.977L69.7917 135.042L69.315 135.15L68.8059 135.247L68.2642 135.312L67.7009 135.356L67.105 135.377H66.2709L65.7617 135.345L65.285 135.302L64.8192 135.226L64.3859 135.15L63.9742 135.052L63.5842 134.933L63.2159 134.792L62.8692 134.63L62.555 134.457L62.2625 134.262L61.9809 134.045L61.7317 133.817L61.5042 133.568L61.2984 133.297L61.125 133.016L60.9734 132.702L60.8434 132.387L60.735 132.041L60.6484 131.672L60.5834 131.293L60.5509 130.892L60.54 130.47V125.367L60.5509 125.216L60.5617 125.086L60.6267 124.663L60.6592 124.522L60.6917 124.392L60.7459 124.262L60.8325 124.002L60.8975 123.872L61.0167 123.623L61.0925 123.504L61.1684 123.374L61.2442 123.266L61.3309 123.147L61.4284 123.038L61.5259 122.919L61.7209 122.702L61.8292 122.594L61.9809 122.453L62.295 122.193L62.6417 121.955L62.8259 121.847L63.2159 121.652L63.6275 121.478L63.8442 121.402L64.2992 121.272L64.7759 121.164L65.025 121.121L65.2742 121.088L65.5342 121.045L65.7942 121.023L66.0759 121.002L66.6392 120.98H66.9209L67.4409 120.991L67.9392 121.023ZM65.7292 122.757L65.2959 122.832L64.8625 122.941L64.4509 123.082L64.0609 123.244L63.6817 123.439L63.3134 123.71L63.01 123.992L62.7609 124.295L62.5767 124.62L62.4359 124.956L62.3492 125.302L62.3275 125.682V126.722H71.1892L71.1025 125.66L70.8209 124.761L70.3659 124.013L69.7159 123.439L68.8817 123.027L67.8634 122.778L66.6609 122.702L66.1842 122.713L65.7292 122.757Z" fill="white"/>
<path d="M86.9516 116.907C88.1866 117.838 88.8258 119.149 88.8258 120.752C88.8258 121.489 88.5116 121.857 87.8941 121.857C87.4608 121.857 87.1574 121.489 86.9733 120.752C86.8433 120.135 86.6049 119.582 86.3016 118.997C85.7383 118.022 84.5574 117.567 82.7049 117.567C81.0799 117.567 79.9749 117.936 79.3033 118.737C78.6858 119.474 78.3066 120.601 78.3066 122.269V128.715C78.3066 130.394 78.6858 131.564 79.3574 132.301C80.0941 133.102 81.2316 133.525 82.8349 133.525C85.2508 133.525 86.6699 132.669 86.9733 130.99C87.0924 130.372 87.1574 130.058 87.1574 130.004C87.2766 129.636 87.5258 129.452 87.8941 129.452C88.5116 129.452 88.8258 129.82 88.8258 130.557C88.8258 132.117 88.1974 133.287 86.8866 134.218C85.8466 134.89 84.5249 135.258 82.8024 135.258C80.8199 135.258 79.2816 134.825 78.1441 133.904C76.8333 133.037 76.2808 131.564 76.2808 129.636V121.879C76.2808 117.795 78.3716 115.802 82.7266 115.802C84.4708 115.802 85.8249 116.17 86.9516 116.907V116.907Z" fill="white"/>
<path d="M186.023 120.883L186.153 120.926L186.185 120.948L186.218 120.958L186.25 120.991L186.315 121.034L186.348 121.067L186.38 121.088L186.488 121.24L186.553 121.327L186.575 121.381L186.597 121.424L186.608 121.468L186.629 121.565L186.64 121.608L186.662 121.652L186.673 121.706L186.683 121.749L186.705 121.793L186.716 121.847L186.77 121.977L186.792 122.031L186.824 122.118L186.835 122.172L186.868 122.302L186.889 122.345L186.911 122.432L187.182 122.302L187.713 122.053L187.973 121.933L188.222 121.825L188.72 121.63L188.958 121.543L189.186 121.457L189.413 121.381L189.63 121.316L189.847 121.24L190.063 121.186L190.475 121.088L190.681 121.045L191.049 120.98L191.233 120.958L191.58 120.937H191.753L192.252 120.948L192.728 120.98L193.194 121.023L193.617 121.088L194.028 121.186L194.418 121.294L194.776 121.424L195.112 121.576L195.426 121.738L195.718 121.923L195.989 122.139L196.228 122.356L196.455 122.605L196.65 122.865L196.823 123.147L196.975 123.45L197.105 123.775L197.203 124.111L197.289 124.468L197.354 124.848L197.387 125.238L197.398 125.649V130.806L197.387 131.012L197.376 131.207L197.365 131.391L197.333 131.586L197.311 131.77L197.224 132.117L197.17 132.29L197.116 132.453L196.986 132.778L196.899 132.929L196.823 133.081L196.726 133.233L196.628 133.373L196.531 133.503L196.423 133.644L196.303 133.774L196.173 133.904L196.054 134.034L195.773 134.273L195.513 134.468L195.231 134.641L195.079 134.717L194.938 134.793L194.776 134.868L194.613 134.933L194.451 134.988L194.104 135.107L193.747 135.193L193.563 135.237L193.173 135.302L192.783 135.345L192.577 135.367L192.36 135.378H191.678L191.418 135.367L191.158 135.345L190.908 135.334L190.41 135.269L190.172 135.226L189.695 135.128L189.468 135.064L189.24 135.009L189.013 134.933L188.785 134.847L188.352 134.673L188.135 134.565L187.929 134.457L187.713 134.348L187.507 134.229L187.301 134.099L186.911 133.818V139.765L186.889 139.982L186.878 140.079L186.857 140.177L186.792 140.437L186.759 140.513L186.716 140.589L186.683 140.643L186.64 140.708L186.553 140.816L186.445 140.903L186.38 140.924L186.326 140.957L186.261 140.979L186.196 140.989L186.12 141H185.903L185.828 140.979L185.773 140.957L185.708 140.935L185.589 140.87L185.546 140.827L185.492 140.784L185.405 140.675L185.362 140.61L185.329 140.545L185.308 140.469L185.275 140.383L185.232 140.209L185.21 140.101L185.199 140.004L185.188 139.884V121.998L185.199 121.901L185.21 121.793L185.221 121.695L185.232 121.608L185.253 121.522L185.286 121.446L185.308 121.359L185.362 121.229L185.405 121.164L185.438 121.11L185.481 121.056L185.524 121.023L185.578 120.98L185.622 120.948L185.676 120.915L185.795 120.883L185.86 120.872H185.958L185.99 120.883H186.023ZM190.887 122.768L190.388 122.811L190.15 122.843L189.923 122.876L189.695 122.93L189.283 123.038L188.893 123.19L188.731 123.266L188.558 123.353L188.395 123.461L188.211 123.58L188.038 123.71L187.853 123.862L187.669 124.024L187.474 124.198L187.279 124.393L187.063 124.598L186.846 124.815V131.9H186.911V131.868L187.42 132.171L187.908 132.442L188.395 132.702L188.85 132.908L189.294 133.103L189.728 133.254L190.139 133.384L190.529 133.482L190.908 133.558L191.277 133.601L191.623 133.623L191.927 133.612L192.219 133.601L192.501 133.568L192.761 133.536L193.032 133.493L193.281 133.438L193.519 133.373L193.747 133.298L193.963 133.211L194.169 133.113L194.353 133.005L194.581 132.864L194.776 132.702L194.96 132.539L195.112 132.366L195.242 132.182L195.35 131.976L195.437 131.77L195.502 131.553L195.556 131.315L195.578 131.077L195.588 130.828V125.682L195.578 125.378L195.545 125.097L195.491 124.848L195.415 124.598L195.318 124.371L195.198 124.154L195.047 123.959L194.884 123.775L194.689 123.613L194.473 123.45L194.234 123.32L194.039 123.223L193.833 123.125L193.617 123.06L193.389 122.984L193.151 122.93L192.891 122.876L192.631 122.833L192.349 122.8L192.057 122.778L191.753 122.768L191.439 122.757L191.168 122.768H190.887Z" fill="white"/>
</svg>
