<svg width="256" height="256" viewBox="0 0 256 256" fill="none" xmlns="http://www.w3.org/2000/svg">
<rect width="256" height="256" rx="40" fill="#1273EB"/>
<path d="M78.3665 135.548C78.2719 135.366 78.3399 135.063 78.4758 135.063H79.0552C79.0552 135.063 79.0818 135.063 79.0965 135.063C84.1479 134.103 88.3687 128.014 88.3687 117.208C88.3687 104.758 82.9863 99.0054 76.8206 99.0054H47.9432C47.556 99.0054 47.2397 99.5901 47.2397 100.318V155.56C47.2397 156.283 47.5531 156.873 47.9432 156.873H57.1651C57.5523 156.873 57.8685 156.288 57.8685 155.56V137.92C57.8685 137.198 58.1818 136.607 58.572 136.607H64.5662C65.3968 136.607 66.1889 137.275 66.7416 138.433L75.2807 156.426C75.464 156.581 75.6236 156.713 75.8068 156.867H87.9785C88.6022 156.867 88.9155 155.466 88.478 154.634L78.3694 135.548H78.3665ZM74.5211 123.645H58.569C58.1818 123.645 57.8656 123.06 57.8656 122.332V113.965C57.8656 113.242 58.1789 112.652 58.569 112.652H74.2905C76.5458 112.652 78.0177 114.715 78.0177 117.975C78.0177 121.753 76.6374 123.64 74.5211 123.64V123.645Z" fill="white"/>
<path d="M194.923 99.0054H185.704C185.316 99.0054 185 99.5931 185 100.318V136.988C185 137.713 185.316 138.301 185.704 138.301H194.923C195.311 138.301 195.626 137.713 195.626 136.988V100.318C195.626 99.5931 195.311 99.0054 194.923 99.0054Z" fill="white"/>
<path d="M194.923 146.112H185.704C185.316 146.112 185 146.699 185 147.424V155.56C185 156.285 185.316 156.873 185.704 156.873H194.923C195.311 156.873 195.626 156.285 195.626 155.56V147.424C195.626 146.699 195.311 146.112 194.923 146.112Z" fill="white"/>
<path d="M232.895 155.141L221.031 125.824C220.765 125.167 220.788 124.257 221.084 123.651L232.289 100.715C232.608 100.059 232.36 99.0054 231.884 99.0054H222.189C221.932 99.0054 221.687 99.2095 221.515 99.5625L210.697 121.753H210.692C210.656 121.825 210.609 121.88 210.55 121.88H210.159C210.056 121.88 209.976 121.725 209.973 121.538V100.213C209.973 99.5459 209.684 99.0054 209.326 99.0054H200.462C200.104 99.0054 199.814 99.5459 199.814 100.213V155.593C199.814 156.206 200.08 156.702 200.409 156.702H209.376C209.704 156.702 209.97 156.206 209.97 155.593V145.284C209.97 144.854 210.059 144.435 210.216 144.12L214.153 136.26C214.153 136.26 214.188 136.161 214.268 136.161H214.8C214.865 136.161 214.903 136.26 214.903 136.26L222.837 156.018C223.008 156.448 223.28 156.702 223.567 156.702H232.475C232.907 156.702 233.155 155.781 232.892 155.135L232.895 155.141Z" fill="white"/>
<path d="M102.713 112.227H111.731C112.118 112.227 112.435 111.643 112.435 110.914V100.313C112.435 99.5902 112.121 99 111.731 99H93.0775C92.6903 99 92.374 99.5847 92.374 100.313V155.555C92.374 156.277 92.6873 156.868 93.0775 156.868H111.731C112.118 156.868 112.435 156.283 112.435 155.555V144.953C112.435 144.231 112.121 143.64 111.731 143.64H102.648C102.261 143.64 101.945 143.056 101.945 142.328V135.455C101.945 134.666 102.288 134.021 102.713 134.021H111.731C112.118 134.021 112.435 133.436 112.435 132.708V122.365C112.435 121.643 112.121 121.053 111.731 121.053H102.713C102.29 121.053 101.945 120.413 101.945 119.619V113.639C101.945 112.851 102.288 112.205 102.713 112.205V112.227Z" fill="white"/>
<path d="M126.956 112.227H135.974C136.361 112.227 136.678 111.643 136.678 110.914V100.313C136.678 99.5902 136.364 99 135.974 99H117.321C116.933 99 116.617 99.5847 116.617 100.313V155.555C116.617 156.277 116.93 156.868 117.321 156.868H135.974C136.361 156.868 136.678 156.283 136.678 155.555V144.953C136.678 144.231 136.364 143.64 135.974 143.64H126.891C126.504 143.64 126.188 143.056 126.188 142.328V135.455C126.188 134.666 126.531 134.021 126.956 134.021H135.974C136.361 134.021 136.678 133.436 136.678 132.708V122.365C136.678 121.643 136.364 121.053 135.974 121.053H126.956C126.534 121.053 126.188 120.413 126.188 119.619V113.639C126.188 112.851 126.531 112.205 126.956 112.205V112.227Z" fill="white"/>
<path d="M33.3391 112.227H42.357C42.7442 112.227 43.0605 111.643 43.0605 110.914V100.313C43.0605 99.5902 42.7472 99 42.357 99H23.7035C23.3163 99 23 99.5847 23 100.313V155.555C23 156.277 23.3133 156.868 23.7035 156.868H31.8642C32.2514 156.868 32.5677 156.283 32.5677 155.555L32.5736 135.46C32.5736 134.672 32.9165 134.026 33.3421 134.026H42.36C42.7472 134.026 43.0635 133.441 43.0635 132.713V122.371C43.0635 121.648 42.7501 121.058 42.36 121.058H33.3421C32.9194 121.058 32.5736 120.418 32.5736 119.624V113.645C32.5736 112.856 32.9165 112.211 33.3421 112.211L33.3391 112.227Z" fill="white"/>
<path d="M169.486 99.0054H141.566C141.179 99.0054 140.863 99.5901 140.863 100.318V155.56C140.863 156.283 141.176 156.873 141.566 156.873H150.788C151.175 156.873 151.492 156.288 151.492 155.56V137.275C151.492 136.905 151.651 136.607 151.849 136.607H169.533C176.621 136.607 181.992 129.713 181.992 117.539C181.992 105.365 176.621 99.0054 169.489 99.0054H169.486ZM168.144 123.645H152.192C151.805 123.645 151.489 123.06 151.489 122.332V113.965C151.489 113.242 151.802 112.657 152.192 112.657H167.914C170.169 112.657 171.641 114.715 171.641 117.98C171.641 121.759 170.26 123.645 168.144 123.645Z" fill="white"/>
</svg>
