<svg width="256" height="256" viewBox="0 0 256 256" fill="none" xmlns="http://www.w3.org/2000/svg">
<g clip-path="url(#clip0_327_16)">
<path d="M248.197 133.078C247.096 133.079 246.007 132.848 245.001 132.401L177.982 102.366C176.607 101.748 175.441 100.745 174.622 99.4792C173.804 98.2131 173.368 96.7373 173.368 95.2294C173.368 93.7215 173.804 92.2458 174.622 90.9797C175.441 89.7136 176.607 88.7112 177.982 88.0931L245.001 58.1621C246.893 57.3216 249.04 57.2652 250.973 58.0052C252.907 58.7451 254.469 60.2212 255.317 62.1105C256.156 64.0051 256.211 66.1553 255.47 68.0903C254.728 70.0252 253.251 71.5874 251.361 72.4348L200.3 95.2398L251.372 118.128C253.005 118.857 254.339 120.125 255.15 121.719C255.961 123.314 256.201 125.139 255.829 126.889C255.458 128.639 254.497 130.209 253.108 131.335C251.718 132.462 249.985 133.077 248.197 133.078Z" fill="#67BECE"/>
<path d="M156.87 242.04C83.1883 242.04 18.7714 192.263 0.25209 120.983C-0.26972 118.978 0.0255436 116.848 1.07292 115.061C2.12031 113.275 3.83401 111.978 5.83704 111.455C7.84007 110.933 9.96835 111.229 11.7537 112.277C13.539 113.325 14.8351 115.04 15.357 117.045C23.5266 148.376 41.8512 176.111 67.4599 195.902C93.0685 215.694 124.514 226.425 156.87 226.413C158.941 226.413 160.927 227.236 162.391 228.702C163.855 230.167 164.678 232.154 164.678 234.227C164.678 236.299 163.855 238.286 162.391 239.752C160.927 241.217 158.941 242.04 156.87 242.04Z" fill="#3F54A3"/>
<path d="M129.971 177.147C127.9 177.147 125.914 176.323 124.45 174.858C122.986 173.393 122.163 171.405 122.163 169.333V20.8138C122.163 18.7415 122.986 16.7541 124.45 15.2888C125.914 13.8235 127.9 13.0002 129.971 13.0002C132.041 13.0002 134.027 13.8235 135.492 15.2888C136.956 16.7541 137.778 18.7415 137.778 20.8138V169.344C137.776 171.414 136.952 173.399 135.488 174.862C134.024 176.325 132.04 177.147 129.971 177.147Z" fill="#67BECE"/>
</g>
<defs>
<clipPath id="clip0_327_16">
<rect width="256" height="256" fill="white"/>
</clipPath>
</defs>
</svg>
