<svg width="256" height="256" viewBox="0 0 256 256" fill="none" xmlns="http://www.w3.org/2000/svg">
<path d="M201.143 115.333C224.707 115.333 243.809 96.2308 243.809 72.6667C243.809 49.1025 224.707 30 201.143 30C177.579 30 158.476 49.1025 158.476 72.6667C158.476 96.2308 177.579 115.333 201.143 115.333Z" fill="#1A73E8"/>
<path d="M201.143 225.048C231.44 225.048 256 200.487 256 170.19C256 139.894 231.44 115.333 201.143 115.333C170.846 115.333 146.286 139.894 146.286 170.19C146.286 200.487 170.846 225.048 201.143 225.048Z" fill="#34A853"/>
<path d="M0 225.048L121.905 30H201.143V60.4762L97.5238 225.048" fill="#FBBC04"/>
<path d="M201.143 225.048H121.905V30H201.143V225.048Z" fill="#1A73E8"/>
<path d="M201.143 225.048C170.843 225.048 146.286 200.49 146.286 170.19C146.286 139.891 170.843 115.333 201.143 115.333V225.048Z" fill="#0D652D"/>
<path d="M201.143 115.333C177.572 115.333 158.476 96.2248 158.476 72.6667C158.476 49.1086 177.572 30 201.143 30V115.333Z" fill="#174EA6"/>
<path d="M6.09521 66.5714C6.09521 46.3779 22.4731 30 42.6666 30C62.8602 30 79.2381 46.3779 79.2381 66.5714C79.2381 86.7649 62.8602 103.143 42.6666 103.143C22.4731 103.143 6.09521 86.7649 6.09521 66.5714Z" fill="#EA4335"/>
</svg>
