<svg width="256" height="256" viewBox="0 0 256 256" fill="none" xmlns="http://www.w3.org/2000/svg">
<path d="M52.7249 111.812C45.258 115.325 25.4948 131.136 21.6884 135.821C17.7354 140.506 16.5645 133.186 20.6635 121.035C23.8834 111.227 32.0828 97.9042 45.8437 86.4856C53.895 79.8976 71.6098 70.3823 82.4426 64.8185C84.639 63.647 113.04 51.6426 138.367 45.6404C140.563 45.0547 135.732 49.3003 135 51.6426C131.193 62.7687 55.2125 110.494 55.2125 110.494L52.7249 111.812Z" fill="black"/>
<path d="M159.741 246.058C161.058 253.964 159.887 254.549 151.689 255.574C143.491 256.599 137.488 253.525 135.293 251.475C133.096 249.425 132.658 244.887 134.854 240.789C136.172 238.153 137.489 237.275 138.222 234.054C138.953 230.98 139.539 230.247 140.124 229.077C140.709 228.051 140.856 227.026 141.002 219.853C141.149 212.68 141.002 199.211 141.735 193.502C142.467 187.646 167.794 196.137 167.794 196.137C167.794 196.137 161.791 211.069 160.181 214.729C158.57 218.39 158.717 225.416 158.717 226.88C158.717 228.344 158.132 231.272 157.692 231.418C157.253 231.564 159.156 235.371 158.277 237.567C157.691 239.617 159.595 244.887 159.741 246.058Z" fill="black"/>
<path d="M169.403 22.2168C168.524 16.6538 169.403 5.67293 170.574 3.91705C174.235 -1.06092 193.559 -1.64598 197.658 4.20958C199.415 6.84447 199.268 12.9933 198.976 16.9463C198.683 20.8987 197.658 29.3898 197.512 32.1721C197.366 34.2219 176.138 37.4418 171.453 31.8788C170.135 30.4155 169.403 22.2168 169.403 22.2168Z" fill="black"/>
<path d="M212.444 231.857C221.375 238.299 228.255 239.47 232.793 241.813C237.331 244.156 236.16 248.694 228.548 250.011C222.399 251.182 212.737 248.84 206.295 248.84C199.854 248.84 185.507 249.572 181.7 246.937C177.309 243.863 179.211 238.153 179.211 238.153C180.383 234.933 183.31 227.758 182.432 221.903C181.554 216.047 180.382 212.827 178.186 207.409C175.991 201.993 174.381 188.671 176.431 187.939C178.48 187.207 177.894 187.939 180.529 188.524C183.164 189.109 186.092 189.988 191.802 189.988C197.512 189.988 203.806 189.109 206.003 188.671C208.199 188.231 209.955 187.792 209.223 192.33C208.491 196.868 206.295 205.36 206.149 211.948C206.003 218.536 206.003 226.148 206.442 227.466C206.881 228.783 210.102 230.247 212.444 231.857Z" fill="black"/>
<path d="M181.115 36.8567C165.012 50.765 133.829 54.5707 87.5678 72.4313C75.7093 76.9694 44.0877 90.5845 36.4749 104.785C62.0943 89.9994 71.6103 110.348 73.6595 131.283C75.562 150.9 85.3713 161.149 110.552 160.562C136.464 159.977 144.37 175.056 151.543 192.77C165.45 124.988 187.703 111.812 202.049 100.247C232.5 75.5053 195.023 31.8787 181.115 36.8567Z" fill="#88CE02"/>
<path d="M181.115 36.8567C142.467 50.3251 104.256 53.6924 59.313 81.3616C48.626 87.9496 26.0807 102.881 21.6885 131.43C38.0843 113.276 76.0013 90.4386 122.409 75.9452C145.833 68.6249 162.962 63.7943 183.75 55.7422C182.287 46.3721 182.287 42.7122 181.115 36.8567Z" fill="#88CE02"/>
<path d="M230.451 117.082C230.451 117.082 227.669 126.598 222.106 129.673C222.106 129.673 218.007 131.137 209.809 126.599C207.467 125.281 205.71 120.743 205.856 119.279C206.003 115.765 208.199 114.155 208.199 114.155C208.199 114.155 210.542 110.202 213.323 110.348C216.105 110.494 220.79 110.933 222.254 109.616C223.57 108.152 230.744 112.251 230.451 117.082Z" fill="black"/>
<path d="M170.721 24.9983C170.721 24.9983 170.136 32.4653 169.111 37.1493C168.964 38.0283 164.573 38.4667 161.351 39.7849C167.5 57.3523 204.539 57.2057 209.37 48.5686C207.028 46.9586 202.343 44.4696 200.147 43.5913C197.951 42.7123 198.097 42.8589 197.951 38.76C197.805 34.6603 197.512 27.0482 197.218 24.9983C196.926 22.9485 174.234 22.9485 170.721 24.9983Z" fill="black"/>
<path d="M172.185 24.9984C172.185 24.9984 172.185 29.244 171.746 33.3429C171.6 35.2461 171.453 36.4169 171.161 37.881C171.014 38.76 176.138 42.2725 177.602 50.032C184.629 65.6962 200.88 57.9374 207.614 50.4711C205.271 48.8605 201.465 46.6647 197.073 44.9081C194.877 44.0291 195.902 42.1266 195.756 38.0276C195.609 33.9287 195.024 27.9258 194.731 25.73C194.437 23.5343 175.699 22.9485 172.185 24.9984Z" fill="#EFEFEF"/>
<path d="M170.721 24.9983C170.721 24.9983 170.574 27.6339 170.136 30.708C172.038 32.6105 174.527 35.2461 176.431 36.8568C177.749 38.0283 180.969 37.8817 183.897 37.8817C186.532 37.8817 188.875 38.1742 189.9 37.5892C192.243 36.4176 195.609 33.4902 197.512 31.2937C197.367 28.6588 197.22 26.1699 197.074 24.9983C196.926 22.9485 174.234 22.9485 170.721 24.9983Z" fill="black"/>
<path d="M184.043 36.1243C182.286 36.1243 180.236 35.9784 178.626 35.6852C177.894 35.5392 177.162 35.1001 176.576 34.8069C175.552 34.0745 174.527 33.1969 173.357 32.3179C171.013 30.5613 170.868 29.5364 170.868 29.0979C171.892 19.8744 170.574 12.1156 170.574 12.1156C170.574 12.1156 169.549 8.16254 175.112 7.13762C180.675 6.1127 184.043 5.9668 184.043 5.9668C184.043 5.9668 187.557 5.9668 192.973 7.13762C198.536 8.16254 197.511 12.1156 197.511 12.1156C197.511 12.1156 196.194 19.8744 197.219 29.0979C197.219 29.5364 197.073 30.5613 194.73 32.3179C192.68 33.7819 191.07 35.3919 189.46 35.6852C187.849 35.9784 185.799 36.1243 184.043 36.1243Z" fill="black"/>
<path d="M184.043 2.1604C174.381 2.1604 172.477 4.79529 169.696 7.72343C169.111 8.4551 169.549 12.8473 170.575 22.2168H171.892C171.892 22.2168 171.013 19.5812 171.16 16.5071C171.307 13.4331 171.892 13.5797 171.453 12.8473C170.867 11.9683 169.696 10.5042 172.332 9.04087C174.966 7.57681 179.065 10.2117 184.043 10.3583C189.021 10.2117 193.266 7.57681 195.901 9.04087C198.536 10.5042 197.365 11.9683 196.78 12.8473C196.194 13.7256 196.926 13.4324 197.073 16.5071C197.219 19.5812 196.34 22.2168 196.34 22.2168H197.658C198.536 12.8473 199.122 8.74835 198.683 8.01595C196.194 4.79529 193.705 2.3063 184.043 2.1604Z" fill="black"/>
<path d="M230.451 117.521C230.451 117.521 227.669 126.452 222.253 129.526C221.081 128.941 221.228 128.062 220.203 126.744C219.91 126.306 218.885 126.012 218.446 125.573C218.007 125.134 218.154 124.402 217.421 123.817C216.836 123.231 216.396 123.67 215.811 123.231C215.226 122.646 215.078 121.914 214.64 121.475C214.347 121.182 213.176 121.036 212.883 120.743C212.151 120.01 205.71 118.693 206.003 117.229C206.588 115.032 207.759 113.422 207.759 113.422C207.759 113.422 210.541 109.323 213.322 109.469C216.103 109.616 218.739 110.202 220.203 108.884C221.814 107.42 230.891 112.837 230.451 117.521Z" fill="black"/>
<path d="M211.42 52.8142C211.42 52.8142 220.642 50.6177 226.938 56.6206C233.233 62.7694 232.793 70.3816 230.891 75.0663C232.501 76.9695 235.429 82.2393 233.233 88.5347C242.895 96.7327 238.65 109.323 230.013 117.668C230.013 117.668 227.963 110.055 219.765 109.616C220.057 106.689 212.152 104.346 215.812 96.7327C210.249 95.4152 210.395 91.6088 209.517 86.9248C208.785 82.2393 211.42 52.8142 211.42 52.8142Z" fill="black"/>
<path d="M208.052 56.9131C208.052 56.9131 218.739 51.4967 225.034 57.6455C231.329 63.7943 229.572 70.5282 227.669 75.2129C229.279 77.1154 233.086 82.5332 230.743 88.9738C230.304 90.4379 227.084 90.4379 224.74 94.2443C230.596 90.8763 234.257 91.7553 235.574 96.0002C237.624 102.588 233.085 110.494 229.133 114.886C229.133 114.739 228.986 114.593 228.986 114.447C228.401 116.643 227.669 120.888 223.277 125.573C221.081 127.915 219.324 127.623 216.835 127.037C213.908 126.304 212.883 124.986 208.784 122.791C206.441 121.474 207.759 119.863 207.759 118.546C207.759 118.253 208.051 117.813 208.491 117.228C208.784 116.496 209.662 115.326 210.98 114.007C210.98 114.007 212.883 111.373 215.665 111.518C218.446 111.665 221.374 111.08 222.106 110.348C222.106 105.224 216.251 105.077 218.3 96.2935C218.446 95.8543 219.179 95.1219 221.521 94.8294C218.007 94.097 216.397 93.9504 213.908 91.6087C212.151 89.9988 210.834 87.9489 210.394 85.314C209.516 80.7759 208.052 56.9131 208.052 56.9131Z" fill="#EFEFEF"/>
<path d="M177.162 47.6902C176.284 46.5187 171.746 40.6631 163.108 38.3207C160.619 37.5883 159.009 39.6382 156.521 41.1022C155.788 40.6631 152.568 39.199 150.811 40.2232C149.055 41.2474 147.884 42.2731 146.126 43.0047C145.247 42.5656 142.906 42.5656 141.003 43.2973C139.099 43.883 136.171 45.2005 133.39 49.0069C131.633 55.3023 164.425 50.6169 164.425 50.6169L177.162 47.6902Z" fill="black"/>
<path d="M177.455 47.6903C172.77 46.0796 173.502 40.6632 163.108 39.7849C161.058 39.6382 159.741 41.2482 158.277 42.2731C159.009 43.0055 159.741 44.1764 160.18 45.3472C158.862 43.8838 156.52 41.9799 154.177 41.5407C151.981 41.1023 150.517 42.7123 148.175 43.8838C148.613 44.3223 149.053 45.0547 149.638 45.9337C147.588 44.6162 146.125 44.1771 143.343 45.2013C141.44 45.7863 137.78 47.397 134.999 51.3501C133.242 57.6455 164.571 50.6177 164.571 50.6177L177.455 47.6903Z" fill="#88CE02"/>
<path d="M204.978 50.0327C204.978 50.0327 204.978 48.422 204.832 46.9586C204.832 46.6661 203.661 45.9337 203.661 45.6412L203.368 45.3479C203.368 45.3479 205.711 44.0305 207.467 44.7629C209.37 45.3479 210.395 47.8369 210.395 47.8369C213.762 46.6661 214.054 47.9835 215.665 49.7401C219.179 49.0077 219.617 50.3252 221.814 53.5466C221.814 53.5466 219.179 53.1074 214.055 53.985C209.077 54.7167 204.978 49.886 204.978 50.0327Z" fill="black"/>
<path d="M204.392 49.3003C204.392 49.3003 205.27 48.5679 204.977 48.4212C206.587 47.543 208.784 46.5188 209.809 49.3003C213.176 48.1287 213.615 49.7394 215.225 51.4967C219.324 49.5935 219.616 51.9352 219.91 52.9601C218.592 52.9601 216.69 53.1067 214.054 53.3992C209.077 54.1316 204.246 49.1536 204.392 49.3003Z" fill="#88CE02"/>
<path d="M154.618 45.6404C154.618 45.6404 162.962 48.5678 169.989 48.1287C177.016 47.5436 189.021 46.9578 195.462 50.7643C195.462 50.7643 202.05 48.4212 208.199 50.0319C214.348 51.6418 225.62 62.1828 222.254 73.3089C221.96 74.0413 220.057 75.2121 217.861 75.9445C217.861 75.9445 219.033 80.9218 216.983 85.0207C214.933 88.9738 210.395 96.5867 210.249 107.127C210.103 108.884 209.81 112.543 209.517 114.3C198.098 113.862 180.53 109.615 163.255 109.908C163.401 108.006 163.548 106.834 163.694 104.931H164.133C163.255 100.1 162.962 97.6109 162.083 93.951C156.52 90.4379 150.664 86.3389 145.687 78.5794C140.856 70.8199 154.618 45.6404 154.618 45.6404Z" fill="black"/>
<path d="M211.127 124.695C211.127 124.695 220.204 157.196 209.517 170.811C209.517 170.811 211.127 177.105 207.467 183.84C206.881 186.767 206.149 189.403 205.71 192.33C203.807 204.481 200.586 209.605 199.708 229.076L190.923 228.93C190.923 228.93 189.898 214.876 186.824 207.41C185.068 203.165 178.186 197.454 178.48 191.745C178.773 187.353 179.651 183.693 187.118 177.837C187.703 169.347 179.212 161.294 180.53 129.672L211.127 124.695Z" fill="black"/>
<path d="M208.492 123.377C210.834 138.309 216.251 160.416 206.442 171.248C206.881 173.298 207.174 176.226 206.588 179.593C206.295 181.35 205.71 183.253 204.978 185.302C203.514 188.816 202.928 193.94 202.489 197.014C200.586 209.165 200.586 209.751 199.708 229.222L190.923 229.075C190.923 229.075 189.898 215.021 186.824 207.555C185.068 203.31 181.408 199.65 181.115 193.94C180.823 189.549 183.897 180.765 191.217 181.058C190.778 163.344 182.579 166.857 180.384 129.965L208.492 123.377Z" fill="#EFEFEF"/>
<path d="M154.617 45.6404C154.617 45.6404 157.838 46.6653 161.351 46.9578C164.865 47.2504 168.672 46.9578 172.038 46.8112C179.065 46.2262 189.021 45.4938 195.609 49.3002C195.609 49.3002 199.268 48.1287 203.221 48.4212C204.978 48.5678 206.735 50.0319 208.784 50.6176C215.226 52.2276 221.375 62.9145 218.592 72.5772C218.3 73.3096 216.25 72.5772 213.908 73.3096C214.346 75.3595 214.64 80.0442 212.297 85.0214C209.809 89.9994 206.588 96.4407 207.173 108.738C191.801 108.006 184.921 106.982 169.695 106.249C168.378 100.832 167.499 95.4158 167.353 92.6343C169.403 91.6094 170.573 90.7318 172.184 88.9745C167.793 89.7069 166.035 89.4136 163.4 87.9496C160.765 86.4855 156.08 81.8008 153.738 78.7267C153.445 78.4335 151.835 83.2641 148.175 83.4115C146.857 81.5083 152.42 76.0911 151.395 74.042C147.736 66.5751 154.617 45.6404 154.617 45.6404Z" fill="#EFEFEF"/>
<path d="M209.662 111.226C209.662 111.226 209.955 116.496 209.955 117.814C209.955 119.278 211.126 123.669 211.272 125.719C209.662 128.501 202.635 134.796 189.898 137.138C177.308 139.773 160.619 120.01 160.619 120.01C161.058 118.107 162.522 112.543 163.547 109.616C163.694 109.323 163.986 108.591 163.986 108.298C165.305 106.395 209.662 111.226 209.662 111.226Z" fill="black"/>
<path d="M206.442 111.666C206.442 115.326 207.027 117.961 207.467 120.304C208.199 124.549 209.369 127.331 209.369 130.112C209.369 138.603 198.243 137.139 188.873 137.432C176.283 140.067 165.596 120.304 165.596 120.304C166.474 116.936 167.06 113.131 168.378 109.909C168.524 108.153 168.817 105.957 168.963 104.932C186.823 104.932 199.414 105.957 206.734 106.688C207.027 108.298 206.735 111.08 206.442 111.666Z" fill="#EFEFEF"/>
<path d="M192.387 130.551C192.387 130.551 184.628 113.276 161.351 118.4C155.788 134.065 148.321 152.072 153.153 171.542C148.321 178.13 142.758 181.791 142.758 193.941C142.758 206.092 143.344 208.142 143.344 208.142L160.472 209.021C160.472 209.021 166.035 201.848 168.231 194.088C168.817 191.892 169.403 187.94 168.963 183.402C169.549 182.523 172.038 180.474 172.331 176.521C172.331 176.521 180.675 172.13 185.507 161.443C190.045 151.779 188.874 143.434 192.387 130.551Z" fill="black"/>
<path d="M192.387 130.551C191.949 128.941 186.093 113.13 164.426 117.814C151.689 151.778 156.374 165.833 158.277 171.981C149.639 182.96 145.687 185.303 147.444 207.555H158.863C164.133 199.211 165.305 196.136 165.597 185.157C165.597 184.717 163.987 186.035 162.816 187.499C163.695 182.961 166.183 182.083 168.086 179.301C168.964 178.129 169.696 176.373 169.696 174.031C179.944 167.15 183.75 158.512 185.946 149.582C187.703 143.434 189.752 133.332 192.387 130.551Z" fill="#EFEFEF"/>
<path d="M156.227 106.981C156.227 106.981 160.181 107.127 163.694 108.299C167.062 109.469 167.062 110.201 168.379 111.666C169.697 113.131 172.917 115.326 172.332 117.521C172.039 118.693 171.307 118.985 170.282 120.01C169.843 120.449 166.622 123.963 165.89 124.402C165.451 124.694 164.865 125.134 164.426 125.427C163.988 125.719 162.67 126.598 162.23 126.891C160.766 127.623 159.741 128.062 158.131 127.916C158.131 127.916 154.472 127.769 152.128 125.281C152.128 125.281 151.836 124.109 152.422 123.524C152.422 123.524 149.347 120.889 148.469 119.132C147.59 117.376 147.59 114.887 148.176 113.57C148.469 112.251 154.178 108.591 156.227 106.981Z" fill="black"/>
<path d="M159.888 249.425L159.449 253.086C159.449 253.086 158.131 254.696 148.323 254.55C138.368 254.403 135.733 251.329 134.854 249.719L134.269 245.912C134.269 245.912 136.173 243.131 136.612 243.131C139.832 243.423 150.812 247.815 158.425 248.986C159.156 248.986 159.301 249.279 159.888 249.425Z" fill="black"/>
<path d="M181.115 241.959C181.115 243.569 180.969 243.569 180.969 245.18C182.725 246.497 187.118 247.23 195.462 247.082C207.613 246.79 218.886 250.743 232.646 248.4L232.793 245.765L231.476 245.619L182.725 241.666L181.115 241.959Z" fill="black"/>
<path d="M191.802 247.083C192.973 247.083 194.144 247.083 195.462 247.083C203.368 246.791 210.834 248.547 218.885 248.986C223.131 248.84 228.401 247.815 227.962 244.741L186.386 241.227C183.897 244.008 185.799 246.351 191.802 247.083Z" fill="black"/>
<path d="M144.076 185.45C145.394 186.328 154.324 191.599 168.818 190.866C168.524 193.648 168.671 199.065 162.23 208.58C159.009 213.265 156.227 221.464 155.642 231.858C155.788 234.2 157.106 236.25 155.349 239.324C155.934 241.227 158.277 245.033 159.448 247.376C160.619 249.719 161.205 252.354 153.445 252.5C145.54 252.646 132.803 251.768 134.56 245.62C135.439 242.399 137.928 239.032 138.221 237.714C138.513 236.396 138.513 232.444 141.002 229.808C143.198 222.489 142.466 215.462 142.027 208.874C141.295 201.992 141.148 191.013 144.076 185.45Z" fill="black"/>
<path d="M157.691 66.1361C168.086 52.2278 159.301 41.1024 142.613 44.469C135.879 45.7865 129.145 50.4719 128.705 58.9623C126.509 59.2549 121.532 59.5474 119.043 68.6243C117.14 75.6514 116.115 76.9689 112.747 80.4821C110.552 82.9711 112.894 88.0949 114.504 91.7555C119.921 104.346 136.61 105.516 147.883 115.032C151.689 114.008 155.642 109.763 156.813 106.981C147.297 95.7078 149.346 91.3163 145.54 85.4608C149.639 83.996 159.009 78.287 157.691 66.1361Z" fill="black"/>
<path d="M155.642 65.2576C156.227 64.3786 157.252 62.4761 157.691 61.7437C157.838 61.5971 159.448 64.3786 159.595 64.2327C163.547 57.7907 164.572 48.4212 160.033 47.5429C159.008 47.3963 157.106 46.9578 155.495 46.3714C152.568 45.3464 149.933 45.3464 145.247 46.2254C138.806 47.3963 132.365 52.081 132.365 58.8156C132.365 59.2547 136.902 60.5722 138.22 65.9893C136.024 62.9145 132.217 59.5472 127.679 62.4754C122.848 65.5494 125.337 72.5765 118.895 79.8961C116.699 82.3851 116.992 85.3133 119.334 91.1688C123.14 100.392 141.148 105.37 150.956 114.153C153.299 113.128 154.909 110.786 156.08 109.029C149.492 102.149 146.857 95.7069 144.954 91.0222C142.612 85.6058 139.976 82.5318 134.852 78.4314C137.488 79.4563 139.538 80.4812 140.708 81.3595C142.025 82.2378 143.928 82.3844 145.686 81.7986C151.982 79.6043 155.349 70.8199 155.642 65.2576Z" fill="#EFEFEF"/>
<path d="M219.325 67.6001C218.885 73.1631 214.787 70.3816 212.591 69.3566C208.199 67.4534 203.806 66.136 198.683 66.136C193.559 66.136 186.971 66.5751 181.262 68.0392C173.356 70.2349 171.013 70.089 167.5 68.3317C163.987 66.4285 157.839 61.7438 157.839 61.7438C157.839 61.7438 157.692 63.2078 159.156 65.1111C161.059 67.4534 165.305 70.3816 171.014 72.2841C173.795 73.1631 175.992 72.5766 178.481 71.9915C191.51 68.7709 205.271 68.1851 216.836 75.2122C217.422 75.5047 219.472 74.6264 220.35 73.309C221.52 71.4065 219.325 67.6001 219.325 67.6001Z" fill="black"/>
<path d="M152.714 123.377C153.885 124.109 155.349 124.548 156.959 125.866C156.959 125.866 155.642 125.866 155.057 125.281C154.324 124.842 152.86 123.524 152.714 123.377Z" fill="#001423"/>
<path d="M195.023 7.28431C194.584 5.96686 191.362 3.62378 183.897 3.62378C175.845 3.62378 173.502 6.11277 173.356 7.43021C173.356 7.86936 172.771 12.5548 172.624 14.4573C172.624 14.4573 172.624 16.7997 172.77 20.3129C172.917 22.6552 173.502 23.9727 173.795 27.0474C174.087 30.2674 174.966 32.3172 176.576 34.9528C177.309 35.3913 177.894 35.8311 178.626 35.9777C181.554 36.5628 186.678 36.7094 189.46 35.9777C191.07 35.5386 193.12 32.7571 193.559 30.2681C194.144 27.1941 194.73 24.9976 194.876 23.0951C195.169 21.1926 195.315 16.9463 195.461 15.7748C195.901 12.5548 195.169 7.57684 195.023 7.28431Z" fill="#EFEFEF"/>
<path d="M179.651 188.232C179.651 188.232 187.411 191.599 206.589 188.671C206.589 188.671 201.172 215.901 203.661 229.515C203.661 229.515 206.149 233.029 224.596 239.763C224.596 239.763 232.794 241.813 232.501 245.912C232.501 245.912 232.794 246.791 222.839 246.497C212.885 246.204 203.515 244.448 196.927 244.448C190.339 244.448 183.312 244.74 182.141 242.838C180.823 241.081 182.433 236.542 184.337 233.907C186.387 231.126 185.801 229.075 185.655 224.099C185.214 211.069 175.259 197.601 179.651 188.232Z" fill="black"/>
<path d="M178.04 190.72C177.016 192.184 178.186 197.747 179.65 203.164C181.115 208.58 184.336 211.802 185.068 220.731C185.799 229.515 185.946 230.686 183.457 235.81C180.968 240.933 180.236 245.618 188.873 245.765C197.51 245.912 202.196 245.618 210.979 246.936C219.764 248.254 222.838 248.693 227.669 247.961C232.501 247.23 233.525 245.618 231.476 244.155C229.426 242.691 220.935 241.081 217.275 238.152C213.761 235.517 203.806 231.125 203.661 229.954C203.221 226.001 203.075 211.654 203.806 206.97C204.539 202.284 205.563 195.55 205.856 193.794C206.15 192.037 207.613 190.28 205.124 190.866C202.636 191.451 193.266 192.769 186.239 192.33C179.212 191.891 178.48 190.281 178.04 190.72Z" fill="#88CE02"/>
<path opacity="0.3" d="M183.019 235.957C185.507 237.128 189.167 238.007 191.949 238.007C191.949 238.007 190.923 242.838 192.534 245.766C194.144 248.694 180.822 246.937 180.822 246.937L180.237 236.543L183.019 235.957Z" fill="black"/>
<path opacity="0.3" d="M221.814 248.547C224.156 247.815 225.767 245.18 223.864 242.692C221.814 240.203 220.057 239.764 222.692 239.618C225.328 239.471 234.99 245.327 234.99 245.327L230.012 249.865L221.814 248.547Z" fill="black"/>
<path opacity="0.3" d="M177.601 196.429C180.969 197.601 186.093 197.893 190.485 197.747C194.876 197.601 201.464 197.014 205.71 195.551C209.955 194.087 208.199 197.161 208.199 197.161L205.856 199.358C205.856 199.358 200.293 201.553 191.217 201.407C180.53 201.261 177.309 200.09 177.309 200.09L177.601 196.429Z" fill="black"/>
<path opacity="0.3" d="M177.894 203.75C181.262 204.921 186.385 205.214 190.777 205.067C195.169 204.921 201.025 204.921 205.271 203.311C207.027 202.725 206.003 205.214 206.003 205.214L205.271 206.531C205.271 206.531 199.561 208.581 190.631 208.434C179.944 208.288 178.04 207.409 178.04 207.409L177.894 203.75Z" fill="black"/>
<path d="M168.232 101.125C168.232 102.15 179.651 107.859 185.946 109.031C192.241 110.202 205.417 109.031 207.466 108.592L207.173 110.642C207.173 110.642 191.509 112.984 179.505 109.763C167.5 106.543 168.818 105.81 168.818 105.81L168.232 101.125Z" fill="black"/>
<path d="M143.783 226.002C145.54 226.881 151.835 228.491 155.934 227.613C156.519 227.466 155.934 217.511 157.545 212.973C159.887 206.677 163.694 201.553 165.45 190.428C159.301 189.842 152.274 188.232 148.614 187.06C143.93 201.407 145.541 213.704 143.783 226.002Z" fill="#EFEFEF"/>
<path d="M153.593 235.226C154.617 235.518 155.349 236.689 155.642 235.958C156.227 234.64 154.617 232.151 154.471 230.395C154.471 230.248 154.471 230.395 154.471 230.248C153.153 229.077 144.223 228.931 144.809 229.516C143.784 231.419 142.174 231.127 141.589 234.933C141.296 236.835 143.639 235.226 145.834 235.079C141.881 237.714 137.343 241.082 136.611 244.009C135.733 248.108 137.197 249.28 141.589 251.476C145.395 252.354 149.933 252.501 153.447 252.354C157.4 251.622 158.132 249.72 156.961 247.084C155.203 243.131 154.032 238.007 153.593 235.226Z" fill="#EFEFEF"/>
<path d="M155.203 45.0546C160.034 47.8361 166.768 47.1044 169.257 46.9578C169.842 46.9578 175.699 45.9329 175.991 46.0788C176.576 46.2254 176.576 46.6645 176.576 46.6645C176.576 46.6645 174.381 47.8354 169.403 48.1279C164.719 48.4204 159.156 48.1279 156.082 46.6645C152.421 45.0546 155.203 45.0546 155.203 45.0546Z" fill="black"/>
<path d="M204.978 47.8361C205.856 48.4211 211.566 50.6176 214.055 53.2525C216.251 55.5956 215.08 55.4489 214.64 54.8632C214.055 54.1308 209.516 51.0567 207.759 50.3251C206.003 49.5934 203.806 48.2752 203.806 47.9827C203.806 47.6902 204.978 47.8361 204.978 47.8361Z" fill="black"/>
<path d="M154.47 108.591C158.716 108.299 163.108 109.324 165.889 112.251C167.354 113.715 169.696 115.325 169.403 116.789C169.403 117.228 168.524 118.4 167.793 119.278C167.354 119.863 166.037 121.181 165.597 121.62C165.012 122.06 162.962 123.67 162.523 123.963C162.084 124.256 161.498 124.988 161.059 125.134C159.595 125.867 157.985 125.281 156.521 124.549C155.057 123.817 156.814 123.67 155.203 122.499C151.251 119.718 149.054 117.814 150.665 112.398C150.811 111.373 152.421 110.201 154.47 108.591Z" fill="#EFEFEF"/>
<path opacity="0.4" d="M117.14 75.0664C103.964 80.3369 70.4382 97.0267 60.9229 102.151C68.8282 107.128 72.4881 119.132 73.6596 131.283C73.8055 132.455 73.9521 133.48 74.0987 134.65C74.2447 135.675 74.3913 136.407 74.5372 136.847C74.5372 136.994 74.5372 137.286 74.6838 137.432C83.3216 113.862 114.211 88.9747 115.382 87.0715C115.967 86.1932 114.65 82.3867 116.7 78.7276C119.335 74.0415 124.46 71.9916 117.14 75.0664Z" fill="black"/>
<path opacity="0.4" d="M148.469 185.597C155.203 172.128 155.349 159.245 155.203 144.166C155.203 137.87 159.741 128.94 157.399 131.429C148.615 141.237 126.509 159.684 110.552 160.708C132.95 159.976 141.734 171.249 148.469 185.597Z" fill="black"/>
<path d="M48.0396 114.593C56.3841 108.591 99.5716 85.6074 109.966 82.386C120.36 79.0187 117.139 75.0657 117.139 75.0657C117.139 75.0657 74.9764 93.2188 49.7961 108.884" fill="black"/>
<path opacity="0.4" d="M171.013 72.2848C167.646 70.9673 165.011 74.9204 165.889 78.7268C166.768 82.5333 174.674 86.7781 174.234 100.686C173.941 112.106 171.452 116.79 171.452 116.79L165.889 109.763C165.889 109.763 165.011 93.9519 163.108 91.6095C161.205 89.2671 155.202 85.0215 152.86 82.8258C150.518 80.6293 155.495 77.7019 155.202 73.6022C154.91 69.6499 157.691 61.7445 157.691 61.7445L171.013 72.2848Z" fill="black"/>
<path opacity="0.4" d="M191.363 134.65C191.071 145.629 193.559 161.88 194.584 169.639C195.609 177.398 196.926 177.984 194.584 181.498C192.241 184.865 189.167 190.428 189.167 190.428L179.065 189.549C179.065 189.549 187.117 179.301 187.556 177.398C187.995 175.496 183.457 161.002 183.457 161.002L191.363 134.65Z" fill="black"/>
<path opacity="0.4" d="M171.892 32.1719C173.942 36.7093 176.43 38.7591 180.383 40.0773C182.725 40.9556 191.948 42.1271 195.609 38.0275C197.218 36.1242 196.194 31.0004 196.194 31.0004L187.849 37.7342L176.576 35.6851L175.259 32.3178L171.892 32.1719Z" fill="black"/>
<path d="M172.77 42.2732C176.576 44.7622 186.092 47.1045 188.727 47.5437C191.362 48.1287 195.608 44.7622 197.658 43.8839C199.854 42.859 203.661 42.2732 208.052 46.2262C208.491 46.6654 207.027 48.5686 207.027 48.5686C206.881 48.422 206.002 48.422 204.831 47.8362C203.66 47.2512 202.635 46.8113 200.878 46.9579C193.558 47.8362 192.387 50.3252 185.946 48.8604C179.505 47.3956 177.894 46.2255 171.599 46.5181" fill="#88CE02"/>
<path d="M172.77 42.2732C176.576 44.7622 186.092 47.1045 188.727 47.5437C191.362 48.1287 195.608 44.7622 197.658 43.8839C199.854 42.859 203.661 42.2732 208.052 46.2262C208.491 46.6654 207.027 48.5686 207.027 48.5686C206.881 48.422 206.002 48.422 204.831 47.8362C203.66 47.2512 202.635 46.8113 200.878 46.9579C193.558 47.8362 192.387 50.3252 185.946 48.8604C179.505 47.3956 177.894 46.2255 171.599 46.5181" stroke="black" stroke-width="1.586" stroke-linejoin="round"/>
<path d="M171.452 42.7123C176.284 44.7621 185.653 46.9579 188.288 47.5436C190.923 48.1294 195.169 45.4938 197.218 44.1764C200.879 41.834 205.563 43.7372 207.759 46.2262C209.223 47.8362 209.809 48.8611 209.809 49.3002C209.809 49.8853 208.053 49.3002 208.053 49.3002C207.028 48.8611 205.856 48.7152 204.979 48.1287C203.807 47.5436 202.636 46.6653 200.88 46.8112C193.559 47.6903 192.095 50.1785 185.801 48.7145C179.506 47.2504 177.895 45.9329 171.161 46.3714" fill="#88CE02"/>
<path d="M148.761 179.447C148.469 179.155 149.054 178.862 148.761 178.862C146.859 178.862 144.223 177.398 142.758 175.348C136.464 166.272 127.24 160.27 110.551 160.709C85.5166 161.294 75.5613 151.047 73.6588 131.43C72.6339 120.743 69.7058 110.348 63.7036 104.492L60.1897 106.689C66.9235 112.544 69.12 122.06 70.5841 135.09C72.9264 154.707 88.7372 163.784 107.184 164.076C126.362 164.369 133.242 168.322 140.415 177.985C142.758 181.059 145.393 182.083 147.442 182.523L148.761 179.447Z" fill="black"/>
<path opacity="0.4" d="M216.69 85.314C217.129 87.5097 218.3 91.7553 220.642 93.8044C221.668 94.8293 221.814 95.1219 220.935 95.1219C220.056 95.1219 213.615 94.8293 213.615 94.8293L211.858 91.7553L216.69 85.314Z" fill="black"/>
</svg>
