<svg width="256" height="256" viewBox="0 0 256 256" fill="none" xmlns="http://www.w3.org/2000/svg">
<g opacity="0.783251">
<g filter="url(#filter0_f_340_27)">
<path d="M108.323 23.8999L26.4224 107.788C-4.58858 138.799 46.4999 136.215 64.9872 147.944C73.5351 153.51 37.5545 160.666 44.9096 168.021C52.066 175.376 88.0466 182.135 95.203 189.291C102.359 196.647 80.6915 204.399 87.8478 211.755C94.8054 219.11 111.504 212.152 114.485 228.85C116.672 241.175 145.099 235.013 157.821 224.477C165.773 217.718 144.105 217.718 151.261 210.363C169.152 192.273 185.055 202.213 191.615 185.515C195.193 176.569 164.58 170.208 172.73 164.443C192.212 150.727 263.775 143.769 230.776 110.77L145.894 23.8999C135.358 13.9605 118.064 13.9605 108.323 23.8999ZM202.35 185.515C202.35 189.689 234.752 192.075 232.963 184.521C230.379 171.798 205.928 172.792 202.35 185.515ZM64.1921 207.58C71.5472 213.941 82.6794 206.188 86.2575 197.243C79.1012 187.9 52.6624 197.839 64.1921 207.58ZM198.374 194.261C189.23 202.61 199.964 211.357 208.91 205.592C211.295 204.002 208.711 196.249 198.374 194.261Z" fill="black"/>
</g>
<g opacity="0.576355" filter="url(#filter1_f_340_27)">
<path d="M108.323 25.8413L26.4224 109.73C-4.58858 140.741 46.4999 138.156 64.9872 149.885C73.5351 155.451 37.5545 162.607 44.9096 169.963C52.066 177.318 88.0466 184.077 95.203 191.233C102.359 198.588 80.6915 206.341 87.8478 213.696C94.8054 221.051 111.504 214.094 114.485 230.792C116.672 243.117 145.099 236.954 157.821 226.418C165.773 219.66 144.105 219.66 151.261 212.304C169.152 194.215 185.055 204.154 191.615 187.456C195.193 178.51 164.58 172.149 172.73 166.384C192.212 152.668 263.775 145.71 230.776 112.712L145.894 25.8413C135.358 15.9019 118.064 15.9019 108.323 25.8413ZM202.35 187.456C202.35 191.63 234.752 194.016 232.963 186.462C230.379 173.74 205.928 174.733 202.35 187.456ZM64.1921 209.521C71.5472 215.883 82.6794 208.13 86.2575 199.184C79.1012 189.841 52.6624 199.781 64.1921 209.521ZM198.374 196.203C189.23 204.552 199.964 213.298 208.91 207.534C211.295 205.943 208.711 198.19 198.374 196.203Z" fill="black"/>
</g>
</g>
<path d="M108.323 21.9585L26.4224 105.847C-4.58858 136.858 46.4999 134.274 64.9872 146.002C73.5351 151.568 37.5545 158.725 44.9096 166.08C52.066 173.435 88.0466 180.194 95.203 187.35C102.359 194.705 80.6915 202.458 87.8478 209.813C94.8054 217.168 111.504 210.211 114.485 226.909C116.672 239.234 145.099 233.071 157.821 222.536C165.773 215.777 144.105 215.777 151.261 208.422C169.152 190.332 185.055 200.271 191.615 183.573C195.193 174.628 164.58 168.266 172.73 162.502C192.212 148.785 263.775 141.828 230.776 108.829L145.894 21.9585C135.358 12.0191 118.064 12.0191 108.323 21.9585ZM202.35 183.573C202.35 187.748 234.752 190.133 232.963 182.579C230.379 169.857 205.928 170.851 202.35 183.573ZM64.1921 205.639C71.5472 212 82.6794 204.247 86.2575 195.302C79.1012 185.959 52.6624 195.898 64.1921 205.639ZM198.374 192.32C189.23 200.669 199.964 209.416 208.91 203.651C211.295 202.06 208.711 194.308 198.374 192.32Z" fill="black"/>
<mask id="mask0_340_27" style="mask-type:luminance" maskUnits="userSpaceOnUse" x="17" y="15" width="222" height="218">
<path d="M108.509 22.9243L27.3827 106.019C-3.33491 136.737 47.2703 134.177 65.5827 145.795C74.0497 151.308 38.4095 158.397 45.6951 165.682C52.7837 172.968 88.424 179.663 95.5126 186.751C102.601 194.037 81.1384 201.716 88.2271 209.002C95.1188 216.287 111.659 209.396 114.613 225.936C116.779 238.144 144.936 232.04 157.538 221.604C165.415 214.909 143.952 214.909 151.041 207.624C168.762 189.705 184.515 199.55 191.013 183.01C194.557 174.149 164.233 167.848 172.307 162.138C191.603 148.551 262.49 141.66 229.804 108.973L145.724 22.9243C135.288 13.0789 118.157 13.0789 108.509 22.9243ZM89.0147 150.323C90.7869 150.323 149.662 158.2 127.018 164.304C118.354 166.667 78.5786 150.323 89.0147 150.323ZM201.646 183.01C201.646 187.145 233.742 189.508 231.97 182.026C229.41 169.423 205.19 170.408 201.646 183.01ZM64.7951 204.867C72.0807 211.168 83.1075 203.488 86.6518 194.628C79.5631 185.373 53.3744 195.218 64.7951 204.867ZM197.708 191.674C188.65 199.944 199.283 208.608 208.144 202.898C210.507 201.322 207.947 193.643 197.708 191.674Z" fill="white"/>
</mask>
<g mask="url(#mask0_340_27)">
<path opacity="0.669951" d="M108.509 22.9243L27.3827 106.019C-3.33491 136.737 47.2703 134.177 65.5827 145.795C74.0497 151.308 38.4095 158.397 45.6951 165.682C52.7837 172.968 88.424 179.663 95.5126 186.751C102.601 194.037 81.1384 201.716 88.2271 209.002C95.1188 216.287 111.659 209.396 114.613 225.936C116.779 238.144 144.936 232.04 157.538 221.604C165.415 214.909 143.952 214.909 151.041 207.624C168.762 189.705 184.515 199.55 191.013 183.01C194.557 174.149 164.233 167.848 172.307 162.138C191.603 148.551 262.49 141.66 229.804 108.973L145.724 22.9243C135.288 13.0789 118.157 13.0789 108.509 22.9243ZM89.0147 150.323C90.7869 150.323 149.662 158.2 127.018 164.304C118.354 166.667 78.5786 150.323 89.0147 150.323ZM201.646 183.01C201.646 187.145 233.742 189.508 231.97 182.026C229.41 169.423 205.19 170.408 201.646 183.01ZM64.7951 204.867C72.0807 211.168 83.1075 203.488 86.6518 194.628C79.5631 185.373 53.3744 195.218 64.7951 204.867ZM197.708 191.674C188.65 199.944 199.283 208.608 208.144 202.898C210.507 201.322 207.947 193.643 197.708 191.674Z" fill="url(#paint0_linear_340_27)"/>
</g>
<path opacity="0.505263" d="M33.7084 110.497C11.4402 132.565 50.5599 126.346 80.652 138.182L142.842 28.8475C133.413 19.2181 121.377 20.0205 112.75 28.8475L33.7084 110.497Z" fill="url(#paint1_linear_340_27)"/>
<path d="M140.924 27.9221L173.327 60.9209C176.308 63.9027 176.308 70.0651 174.519 71.8542L158.418 58.7342L155.237 78.0166L141.918 70.8603L120.25 84.5766L113.094 55.7524L101.564 80.7997L72.7399 80.6009C67.1739 80.6009 67.969 74.836 73.7339 69.0712C85.0648 56.5475 107.13 35.2772 114.088 27.9221C121.244 20.5669 133.768 20.7657 140.924 27.9221Z" fill="url(#paint2_linear_340_27)"/>
<path opacity="0.216749" fill-rule="evenodd" clip-rule="evenodd" d="M96.4518 183.811C96.4518 183.811 99.9689 189.181 99.6104 191.707C98.9069 196.665 88.2294 199.139 90.5951 203.552C92.9324 207.912 101.357 205.441 108.428 210.001C115.469 214.542 113.576 223.796 118.694 226.123C128.674 230.664 154.887 218.293 153.571 218.556C152.254 218.819 127.701 223.921 122.173 219.446C115.871 214.344 114.064 210.781 109.415 207.764C105.059 204.937 98.9395 203.784 97.5152 201.469C96.0909 199.154 100.368 196.168 100.663 191.707C100.841 189.028 96.4518 183.811 96.4518 183.811Z" fill="url(#paint3_radial_340_27)"/>
<path opacity="0.275862" fill-rule="evenodd" clip-rule="evenodd" d="M96.4518 183.811C96.4518 183.811 99.9689 189.181 99.6104 191.707C98.9069 196.665 88.2294 199.139 90.5951 203.552C92.9324 207.912 101.357 205.441 108.428 210.001C115.469 214.542 113.576 223.796 118.694 226.123C128.674 230.664 154.887 218.293 153.571 218.556C110.045 218.722 118.168 207.506 101.387 200.13C98.9623 199.065 100.368 196.168 100.663 191.707C100.841 189.028 96.4518 183.811 96.4518 183.811Z" fill="url(#paint4_radial_340_27)"/>
<path opacity="0.453202" fill-rule="evenodd" clip-rule="evenodd" d="M170.417 160.911C209.482 146.534 222.033 144.559 234.906 131.693C219.996 144.279 188.475 151.03 162.783 162.227L170.417 160.911Z" fill="url(#paint5_radial_340_27)"/>
<path opacity="0.512315" fill-rule="evenodd" clip-rule="evenodd" d="M170.417 159.068C234.752 136.269 223.875 136.399 234.906 129.851C214.45 137.681 176.224 138.516 162.783 160.384L170.417 159.068Z" fill="url(#paint6_radial_340_27)"/>
<path opacity="0.285714" d="M226.614 177.296C226.614 177.977 225.734 178.63 224.166 179.111C222.599 179.592 220.473 179.863 218.257 179.863C216.04 179.863 213.915 179.592 212.347 179.111C210.78 178.63 209.9 177.977 209.9 177.296C209.9 176.615 210.78 175.963 212.347 175.481C213.915 175 216.04 174.73 218.257 174.73C220.473 174.73 222.599 175 224.166 175.481C225.734 175.963 226.614 176.615 226.614 177.296Z" fill="url(#paint7_linear_340_27)"/>
<path opacity="0.620689" d="M229.509 180.256C229.509 181.722 228.324 183.128 226.214 184.165C224.103 185.202 221.241 185.784 218.257 185.784C215.272 185.784 212.41 185.202 210.3 184.165C208.19 183.128 207.004 181.722 207.004 180.256C207.004 178.79 208.19 177.384 210.3 176.348C212.41 175.311 215.272 174.729 218.257 174.729C221.241 174.729 224.103 175.311 226.214 176.348C228.324 177.384 229.509 178.79 229.509 180.256Z" fill="url(#paint8_linear_340_27)"/>
<path fill-rule="evenodd" clip-rule="evenodd" d="M202.924 183.329C206.893 186.998 228.989 188.88 232.602 182.277C225.51 187.313 209.737 185.543 202.924 183.329Z" fill="url(#paint9_radial_340_27)"/>
<path opacity="0.285714" d="M203.002 195.574C203.196 195.955 203.319 196.366 203.364 196.785C203.41 197.203 203.377 197.621 203.268 198.015C203.159 198.408 202.976 198.77 202.729 199.078C202.482 199.386 202.176 199.636 201.829 199.812C201.482 199.988 201.1 200.087 200.705 200.104C200.31 200.121 199.911 200.055 199.529 199.911C199.147 199.766 198.791 199.545 198.48 199.261C198.169 198.977 197.91 198.635 197.717 198.254C197.524 197.874 197.401 197.463 197.356 197.044C197.31 196.625 197.343 196.207 197.452 195.814C197.561 195.42 197.744 195.059 197.991 194.751C198.238 194.442 198.544 194.193 198.891 194.017C199.238 193.841 199.62 193.742 200.015 193.725C200.409 193.708 200.809 193.773 201.191 193.918C201.573 194.063 201.929 194.283 202.24 194.568C202.551 194.852 202.81 195.194 203.002 195.574Z" fill="url(#paint10_linear_340_27)"/>
<path opacity="0.620689" d="M204.57 196.282C204.858 196.85 205.044 197.464 205.117 198.088C205.19 198.711 205.148 199.333 204.994 199.917C204.839 200.501 204.576 201.035 204.218 201.49C203.86 201.946 203.415 202.312 202.908 202.569C202.402 202.826 201.843 202.968 201.264 202.988C200.686 203.008 200.099 202.904 199.537 202.684C198.975 202.463 198.448 202.129 197.988 201.702C197.528 201.275 197.143 200.762 196.855 200.193C196.566 199.625 196.38 199.011 196.308 198.388C196.235 197.764 196.277 197.142 196.431 196.558C196.585 195.975 196.849 195.44 197.207 194.985C197.565 194.53 198.009 194.163 198.516 193.906C199.023 193.649 199.582 193.507 200.16 193.487C200.739 193.468 201.326 193.571 201.888 193.792C202.45 194.012 202.976 194.346 203.436 194.773C203.897 195.2 204.282 195.713 204.57 196.282Z" fill="url(#paint11_linear_340_27)"/>
<path fill-rule="evenodd" clip-rule="evenodd" d="M197.505 202.99C200.694 205.486 212.699 205.806 208.144 198.552C209.332 204.234 201.133 203.633 197.505 202.99Z" fill="url(#paint12_radial_340_27)"/>
<path fill-rule="evenodd" clip-rule="evenodd" d="M49.3354 165.386C49.3354 164.732 90.2359 177.85 97.2415 184.864C91.481 179.243 62.3283 166.316 57.8901 166.175C53.4519 166.034 49.8619 165.649 49.3354 165.386Z" fill="url(#paint13_radial_340_27)"/>
<path opacity="0.285714" d="M80.0612 193.485C80.2203 193.959 79.599 194.583 78.3339 195.221C77.0688 195.858 75.2635 196.456 73.3152 196.884C71.3668 197.312 69.4351 197.534 67.9449 197.502C66.4547 197.469 65.5281 197.185 65.3689 196.711C65.2097 196.237 65.8311 195.613 67.0962 194.976C68.3613 194.338 70.1666 193.74 72.1149 193.312C74.0633 192.884 75.995 192.662 77.4852 192.695C78.9754 192.727 79.902 193.012 80.0612 193.485Z" fill="url(#paint14_linear_340_27)"/>
<path opacity="0.620689" d="M83.2977 194.987C83.6405 196.008 82.9271 197.215 81.3146 198.344C79.702 199.472 77.3223 200.43 74.699 201.006C72.0756 201.582 69.4236 201.729 67.3262 201.415C65.2289 201.101 63.858 200.351 63.5152 199.331C63.1724 198.31 63.8857 197.103 65.4983 195.975C67.1109 194.846 69.4906 193.888 72.1139 193.312C74.7372 192.736 77.3893 192.589 79.4867 192.903C81.584 193.218 82.9549 193.967 83.2977 194.987Z" fill="url(#paint15_linear_340_27)"/>
<path opacity="0.615764" fill-rule="evenodd" clip-rule="evenodd" d="M62.4307 200.131C62.4307 200.131 64.6453 206.08 70.7221 206.382C76.8697 206.687 83.8865 199.005 84.4754 196.248C83.4225 198.617 77.5365 205.759 69.9324 205.658C65.6158 205.601 62.4307 200.131 62.4307 200.131Z" fill="url(#paint16_radial_340_27)"/>
<path d="M126.823 17.4236C120.664 17.4236 114.628 19.6541 110.361 24.0084L28.4849 107.872C20.9993 115.358 19.201 120.258 19.6637 123.03C19.895 124.416 20.5753 125.62 22.0243 126.881C23.4732 128.142 25.6651 129.379 28.2985 130.484C33.5654 132.695 40.6591 134.476 47.6182 136.386C54.5774 138.295 61.3939 140.311 66.5652 143.592C67.3536 144.105 68.0941 144.738 68.6152 145.642C69.1363 146.546 69.3193 147.741 69.1122 148.748C68.6978 150.761 67.4582 151.823 66.1925 152.786C63.661 154.711 60.1826 156.311 56.6879 158.004C53.1932 159.697 49.6808 161.43 47.9288 162.849C47.0528 163.559 46.7359 164.197 46.7485 164.154C46.7612 164.11 46.5162 163.611 46.9349 164.03C48.0317 165.157 51.4555 167.087 55.8182 168.813C60.181 170.539 65.5204 172.283 70.9137 174.031C76.307 175.779 81.7625 177.51 86.3819 179.312C91.0012 181.113 94.7661 182.788 97.2531 185.275C98.4909 186.547 99.3655 188.13 99.5516 189.748C99.7377 191.366 99.2995 192.885 98.6819 194.159C97.4467 196.706 95.4609 198.665 93.6501 200.557C91.8392 202.449 90.1987 204.255 89.6122 205.465C89.3189 206.069 89.2736 206.463 89.3016 206.707C89.3296 206.951 89.3715 207.197 89.9228 207.763C89.9438 207.783 89.9645 207.804 89.9849 207.825C92.3576 210.334 97.513 210.686 103.341 212.049C106.255 212.731 109.302 213.763 111.914 216.025C114.525 218.288 116.485 221.732 117.318 226.399C117.669 228.377 118.715 229.339 121.232 230.127C123.749 230.914 127.582 231.052 131.793 230.437C140.214 229.208 150.2 225.079 155.958 220.312C156.315 220.007 156.216 220.088 156.33 219.939C155.943 219.662 155.035 219.071 153.535 218.324C151.763 217.441 149.669 216.615 148.068 214.596C147.268 213.587 146.717 211.994 146.95 210.434C147.183 208.875 148.037 207.578 149.186 206.396C158.62 196.858 167.916 194.58 174.905 192.73C178.399 191.805 181.324 190.958 183.54 189.562C185.755 188.165 187.486 186.254 188.944 182.542C189.105 182.14 189.1 182.023 188.882 181.548C188.664 181.073 188.078 180.312 187.143 179.498C185.272 177.87 182.152 176.12 179.067 174.404C175.981 172.688 172.983 171.088 170.805 169.062C169.716 168.048 168.574 166.772 168.444 164.837C168.314 162.902 169.582 161.156 171.053 160.116C176.511 156.273 184.762 153.348 193.727 150.239C202.693 147.13 212.336 143.913 220.191 140.237C228.046 136.561 233.823 132.328 235.659 128.062C236.578 125.928 236.746 123.77 235.783 120.98C234.821 118.189 232.624 114.776 228.702 110.854L143.906 24.0706C143.885 24.0505 143.865 24.0284 143.844 24.0084C139.157 19.6197 132.954 17.4236 126.823 17.4236ZM218.141 176.454C212.903 176.643 208.083 179.041 206.027 182.79C206.611 183.01 207.137 183.257 208.077 183.474C210.812 184.103 214.628 184.509 218.39 184.592C222.151 184.675 225.912 184.358 228.205 183.722C229.208 183.444 229.74 183.162 230.006 182.977C229.498 180.808 228.287 179.275 226.217 178.131C224.073 176.947 221.134 176.346 218.141 176.454ZM77.9955 194.469C73.8411 194.18 68.6196 195.834 66.0682 197.886C64.7926 198.912 64.2528 199.863 64.2046 200.495C64.1564 201.127 64.3582 201.97 66.0682 203.415C66.0684 203.435 66.0684 203.456 66.0682 203.477C68.7574 205.802 71.7978 205.56 75.2622 203.663C78.1664 202.073 80.7432 199.089 82.4682 195.96C81.3053 195.21 79.9147 194.603 77.9955 194.469ZM199.256 195.712C198.367 196.842 197.883 197.894 197.827 198.631C197.751 199.649 198.039 200.435 198.821 201.178C200.287 202.572 203.471 203.172 206.711 201.427C206.647 201.051 206.525 200.481 206.027 199.749C205.034 198.29 202.71 196.718 199.256 195.712Z" stroke="url(#paint17_radial_340_27)" stroke-width="0.485348"/>
<path opacity="0.325123" fill-rule="evenodd" clip-rule="evenodd" d="M81.9284 148.752C76.987 150.21 60.9694 156.262 63.2427 160.886C65.4206 165.315 102.663 167.099 108.379 180.299C110.872 186.056 102.66 190.398 104.739 196.316C106.341 200.873 118.729 212.323 126.566 217.736C132.713 221.983 140.788 214.317 137.5 207.964C132.262 197.842 155.402 185.445 165.892 179.814C172.013 176.529 153.273 160.4 153.273 160.4L81.9284 148.752Z" fill="url(#paint18_linear_340_27)"/>
<path fill-rule="evenodd" clip-rule="evenodd" d="M83.757 153.224C88.1938 156.483 96.9501 154.517 102.209 156.885C114.831 162.569 130.347 168.903 127.492 157.69L124.28 160.358L124.217 155.273L116.759 157.095C116.759 157.095 110.982 152.458 108.333 150.928C107.78 150.609 104.938 153.498 104.938 153.498L104.427 150.43C100.735 150.037 97.0799 149.863 93.8616 149.889C86.1467 149.951 80.9422 151.157 83.757 153.224Z" fill="url(#paint19_linear_340_27)"/>
<path opacity="0.477832" fill-rule="evenodd" clip-rule="evenodd" d="M166.62 163.555C164.912 169.843 187.614 178.387 185.913 182.726C182.167 192.279 161.669 185.771 145.994 205.78C143.748 208.646 149.148 218.884 148.42 217.67C147.692 216.457 142.145 208 143.567 203.838C148.026 190.787 191.143 185.922 183.243 179.693C178.701 176.11 162.368 166.212 166.62 163.555Z" fill="url(#paint20_radial_340_27)"/>
<path opacity="0.586207" d="M217.703 176.477C217.703 176.751 217.44 177.013 216.974 177.206C216.508 177.4 215.875 177.508 215.215 177.508C214.555 177.508 213.923 177.4 213.456 177.206C212.99 177.013 212.728 176.751 212.728 176.477C212.728 176.204 212.99 175.941 213.456 175.748C213.923 175.554 214.555 175.446 215.215 175.446C215.875 175.446 216.508 175.554 216.974 175.748C217.44 175.941 217.703 176.204 217.703 176.477Z" fill="white"/>
<path opacity="0.586207" d="M201.083 195.527C201.083 195.801 200.917 196.063 200.621 196.256C200.326 196.45 199.924 196.559 199.506 196.559C199.088 196.559 198.687 196.45 198.391 196.256C198.095 196.063 197.929 195.801 197.929 195.527C197.929 195.254 198.095 194.991 198.391 194.798C198.687 194.605 199.088 194.496 199.506 194.496C199.924 194.496 200.326 194.605 200.621 194.798C200.917 194.991 201.083 195.254 201.083 195.527Z" fill="white"/>
<path opacity="0.586207" d="M75.2578 194.617C75.2578 194.891 74.9638 195.153 74.4404 195.346C73.917 195.54 73.2072 195.648 72.467 195.648C71.7269 195.648 71.017 195.54 70.4937 195.346C69.9703 195.153 69.6763 194.891 69.6763 194.617C69.6763 194.344 69.9703 194.081 70.4937 193.888C71.017 193.694 71.7269 193.586 72.467 193.586C73.2072 193.586 73.917 193.694 74.4404 193.888C74.9638 194.081 75.2578 194.344 75.2578 194.617Z" fill="white"/>
<path opacity="0.251232" d="M73.6787 149.24C59.4595 158.034 37.3522 161.235 61.545 167.076C58.6632 160.659 67.7842 161.367 73.6787 149.24Z" fill="url(#paint21_linear_340_27)"/>
<path opacity="0.363158" d="M124.155 229.32C124.155 229.32 146.084 227.254 151.157 220.927C154.125 217.225 139.362 212.905 142.549 209.279C154.537 195.637 164.613 196.206 178.513 190.492C192.413 184.779 187.284 181.98 182.788 179.472C175.088 175.175 157.951 170.597 163.62 160.401C169.324 150.141 219.282 135.892 219.282 135.892C234.421 130.719 232.521 121.366 225.106 113.566L180.454 69.1572C180.454 69.1572 182.671 111.274 173.66 129.34C162.525 151.664 103.242 176.575 128.038 179.33C136.774 180.3 140.968 183.281 144.539 190.007C151.893 203.858 124.155 229.32 124.155 229.32Z" fill="url(#paint22_linear_340_27)"/>
<defs>
<filter id="filter0_f_340_27" x="15.0509" y="14.8441" width="225.898" height="222.429" filterUnits="userSpaceOnUse" color-interpolation-filters="sRGB">
<feFlood flood-opacity="0" result="BackgroundImageFix"/>
<feBlend mode="normal" in="SourceGraphic" in2="BackgroundImageFix" result="shape"/>
<feGaussianBlur stdDeviation="0.800584" result="effect1_foregroundBlur_340_27"/>
</filter>
<filter id="filter1_f_340_27" x="9.71371" y="11.4483" width="236.572" height="233.104" filterUnits="userSpaceOnUse" color-interpolation-filters="sRGB">
<feFlood flood-opacity="0" result="BackgroundImageFix"/>
<feBlend mode="normal" in="SourceGraphic" in2="BackgroundImageFix" result="shape"/>
<feGaussianBlur stdDeviation="3.4692" result="effect1_foregroundBlur_340_27"/>
</filter>
<linearGradient id="paint0_linear_340_27" x1="163.679" y1="37.6924" x2="120.126" y2="77.0739" gradientUnits="userSpaceOnUse">
<stop stop-color="#C0CDF9"/>
<stop offset="1" stop-color="#07092D" stop-opacity="0.288043"/>
</linearGradient>
<linearGradient id="paint1_linear_340_27" x1="66.2075" y1="66.5626" x2="116.361" y2="116.716" gradientUnits="userSpaceOnUse">
<stop stop-color="white"/>
<stop offset="1" stop-color="white" stop-opacity="0"/>
</linearGradient>
<linearGradient id="paint2_linear_340_27" x1="120.051" y1="36.8675" x2="179.688" y2="96.5039" gradientUnits="userSpaceOnUse">
<stop stop-color="white"/>
<stop offset="1" stop-color="white" stop-opacity="0"/>
</linearGradient>
<radialGradient id="paint3_radial_340_27" cx="0" cy="0" r="1" gradientUnits="userSpaceOnUse" gradientTransform="translate(90.2535 223.904) scale(50.5834 33.8586)">
<stop stop-color="white"/>
<stop offset="1" stop-color="white" stop-opacity="0"/>
</radialGradient>
<radialGradient id="paint4_radial_340_27" cx="0" cy="0" r="1" gradientUnits="userSpaceOnUse" gradientTransform="translate(116.924 225.118) scale(64.5401 43.2007)">
<stop stop-color="white"/>
<stop offset="1" stop-color="white" stop-opacity="0"/>
</radialGradient>
<radialGradient id="paint5_radial_340_27" cx="0" cy="0" r="1" gradientUnits="userSpaceOnUse" gradientTransform="translate(198.844 146.961) scale(36.0612 15.2669)">
<stop stop-color="white"/>
<stop offset="1" stop-color="white" stop-opacity="0"/>
</radialGradient>
<radialGradient id="paint6_radial_340_27" cx="0" cy="0" r="1" gradientUnits="userSpaceOnUse" gradientTransform="translate(206.478 151.172) scale(36.0612 15.2669)">
<stop stop-color="white"/>
<stop offset="1" stop-color="white" stop-opacity="0"/>
</radialGradient>
<linearGradient id="paint7_linear_340_27" x1="220.034" y1="173.216" x2="220.165" y2="179.863" gradientUnits="userSpaceOnUse">
<stop stop-color="white"/>
<stop offset="1" stop-color="white" stop-opacity="0"/>
</linearGradient>
<linearGradient id="paint8_linear_340_27" x1="220.297" y1="172.453" x2="220.297" y2="182.544" gradientUnits="userSpaceOnUse">
<stop stop-color="white"/>
<stop offset="1" stop-color="white" stop-opacity="0"/>
</linearGradient>
<radialGradient id="paint9_radial_340_27" cx="0" cy="0" r="1" gradientUnits="userSpaceOnUse" gradientTransform="translate(217.763 184.47) scale(14.839 2.19247)">
<stop stop-color="white"/>
<stop offset="1" stop-color="white" stop-opacity="0"/>
</radialGradient>
<linearGradient id="paint10_linear_340_27" x1="199.2" y1="192.928" x2="202.472" y2="198.708" gradientUnits="userSpaceOnUse">
<stop stop-color="white"/>
<stop offset="1" stop-color="white" stop-opacity="0"/>
</linearGradient>
<linearGradient id="paint11_linear_340_27" x1="197.97" y1="190.879" x2="202.534" y2="199.879" gradientUnits="userSpaceOnUse">
<stop stop-color="white"/>
<stop offset="1" stop-color="white" stop-opacity="0"/>
</linearGradient>
<radialGradient id="paint12_radial_340_27" cx="0" cy="0" r="1" gradientUnits="userSpaceOnUse" gradientTransform="translate(203.414 203.409) rotate(-26.8862) scale(6.41593 2.19248)">
<stop stop-color="white"/>
<stop offset="1" stop-color="white" stop-opacity="0"/>
</radialGradient>
<radialGradient id="paint13_radial_340_27" cx="0" cy="0" r="1" gradientUnits="userSpaceOnUse" gradientTransform="translate(72.104 171.953) scale(23.953 9.7508)">
<stop stop-color="white" stop-opacity="0.330049"/>
<stop offset="1" stop-color="white" stop-opacity="0"/>
</radialGradient>
<linearGradient id="paint14_linear_340_27" x1="73.3228" y1="191.916" x2="74.4414" y2="196.646" gradientUnits="userSpaceOnUse">
<stop stop-color="white"/>
<stop offset="1" stop-color="white" stop-opacity="0"/>
</linearGradient>
<linearGradient id="paint15_linear_340_27" x1="73.3748" y1="191.335" x2="74.9544" y2="198.529" gradientUnits="userSpaceOnUse">
<stop stop-color="white"/>
<stop offset="1" stop-color="white" stop-opacity="0"/>
</linearGradient>
<radialGradient id="paint16_radial_340_27" cx="0" cy="0" r="1" gradientUnits="userSpaceOnUse" gradientTransform="translate(72.7298 205.992) rotate(-15.487) scale(13.5544 5.07145)">
<stop stop-color="white"/>
<stop offset="1" stop-color="white" stop-opacity="0"/>
</radialGradient>
<radialGradient id="paint17_radial_340_27" cx="0" cy="0" r="1" gradientUnits="userSpaceOnUse" gradientTransform="translate(136.749 40.6428) scale(187.547 184.588)">
<stop stop-color="white"/>
<stop offset="1" stop-color="white" stop-opacity="0"/>
</radialGradient>
<linearGradient id="paint18_linear_340_27" x1="81.9284" y1="183.856" x2="138.228" y2="198.742" gradientUnits="userSpaceOnUse">
<stop stop-color="white"/>
<stop offset="1" stop-color="white" stop-opacity="0"/>
</linearGradient>
<linearGradient id="paint19_linear_340_27" x1="111.775" y1="149.634" x2="105.451" y2="164.125" gradientUnits="userSpaceOnUse">
<stop stop-color="#EEEEEC"/>
<stop offset="1" stop-color="#EEEEEC" stop-opacity="0"/>
</linearGradient>
<radialGradient id="paint20_radial_340_27" cx="0" cy="0" r="1" gradientUnits="userSpaceOnUse" gradientTransform="translate(165.142 190.056) scale(29.4736 37.4563)">
<stop stop-color="white"/>
<stop offset="1" stop-color="white" stop-opacity="0"/>
</radialGradient>
<linearGradient id="paint21_linear_340_27" x1="61.061" y1="154.582" x2="69.9187" y2="161.619" gradientUnits="userSpaceOnUse">
<stop stop-color="white"/>
<stop offset="1" stop-color="white" stop-opacity="0"/>
</linearGradient>
<linearGradient id="paint22_linear_340_27" x1="164.742" y1="192.919" x2="138.424" y2="122.059" gradientUnits="userSpaceOnUse">
<stop stop-color="#729FCF"/>
<stop offset="1" stop-color="#729FCF" stop-opacity="0"/>
</linearGradient>
</defs>
</svg>
