<svg width="256" height="256" viewBox="0 0 256 256" fill="none" xmlns="http://www.w3.org/2000/svg">
<g clip-path="url(#clip0_311_163)">
<path d="M228.837 125.702C228.837 112.578 218.179 101.939 205.031 101.939C204.186 101.939 203.351 101.984 202.529 102.07L235.226 5.80347H96.276L128.927 101.986C128.448 101.957 127.967 101.939 127.481 101.939C114.333 101.939 103.675 112.578 103.675 125.702C103.675 136.311 110.64 145.292 120.252 148.348C115.175 157.127 108.787 165.034 101.534 171.865C91.6713 181.153 80.3838 188.195 68.1755 192.536C53.6409 185.082 46.7768 168.505 52.9705 153.97C53.6694 152.329 54.3839 150.666 55.0659 149.009C65.5963 146.556 73.4424 137.133 73.4424 125.873C73.4424 112.749 62.7846 102.109 49.6367 102.109C36.4894 102.109 25.831 112.749 25.831 125.873C25.831 133.921 29.8427 141.03 35.9742 145.329C30.0823 158.721 21.4211 172.736 18.7228 188.98C15.489 208.448 18.7123 229.112 35.5789 240.782C74.8599 267.959 117.499 223.934 162.456 212.867C178.75 208.856 196.634 209.502 210.989 201.203C221.769 194.97 228.876 184.641 230.893 173.045C232.885 161.589 229.98 150.183 223.3 140.935C226.755 136.81 228.837 131.5 228.837 125.702Z" fill="#99425B"/>
<path d="M225.164 172.052C223.413 182.119 217.185 190.913 208.075 196.18C199.584 201.09 189.408 202.555 178.634 204.106C172.863 204.937 166.895 205.796 161.064 207.231C145.648 211.026 130.717 218.43 116.277 225.59C87.3792 239.919 62.4229 252.291 38.891 236.011C21.6541 224.085 22.45 202.021 24.4582 189.929C26.3193 178.727 31.3508 168.411 36.2166 158.433C37.0573 156.708 37.8811 155.015 38.6829 153.337C41.0946 154.299 43.6597 154.955 46.3336 155.253C41.3806 171.571 49.1697 189.314 65.5189 197.698L67.7561 198.845L70.1259 198.003C83.0506 193.408 94.9601 186.035 105.524 176.086C112.352 169.655 118.223 162.541 123.048 154.939C124.494 155.156 125.974 155.271 127.481 155.271C142.485 155.271 154.911 144.073 156.834 129.61C162.976 129.385 169.5 129.384 175.677 129.608C177.599 144.072 190.025 155.271 205.031 155.271C211.305 155.271 217.125 153.308 221.919 149.974C225.248 156.775 226.49 164.428 225.164 172.052ZM49.6366 107.913C59.5577 107.913 67.6282 115.97 67.6282 125.873C67.6282 129.431 66.5828 132.748 64.7875 135.541C61.7961 140.197 56.714 143.388 50.8727 143.787C50.4639 143.814 50.0523 143.834 49.6366 143.834C47.4261 143.834 45.308 143.431 43.3498 142.7C39.3887 141.22 36.0881 138.383 34.0119 134.76C32.5089 132.138 31.645 129.105 31.645 125.873C31.645 115.97 39.716 107.913 49.6366 107.913ZM109.489 125.703C109.489 116.705 116.152 109.234 124.81 107.942C125.682 107.811 126.574 107.743 127.481 107.743C133.248 107.743 138.383 110.47 141.677 114.697C142.495 115.747 143.205 116.886 143.777 118.103C144.862 120.413 145.472 122.987 145.472 125.703C145.472 127.139 145.298 128.535 144.977 129.873C143.224 137.201 136.965 142.801 129.296 143.572C128.699 143.632 128.093 143.663 127.481 143.663C123.889 143.663 120.542 142.603 117.73 140.785C112.776 137.582 109.489 132.02 109.489 125.703ZM184.579 104.346C180.725 108.028 177.859 112.731 176.431 118.02C169.769 117.771 162.704 117.771 156.081 118.02C154.559 112.383 151.403 107.409 147.158 103.632L165.775 66.0531L184.579 104.346ZM104.385 11.6078H227.115L198.128 96.952C196.871 97.2532 195.646 97.6322 194.456 98.0878L165.821 39.7748L137.105 97.7396C135.863 97.313 134.584 96.9694 133.275 96.7088L104.385 11.6078ZM223.022 125.703C223.022 127.504 222.753 129.242 222.257 130.883C221.075 134.788 218.596 138.134 215.322 140.422C212.404 142.462 208.856 143.663 205.031 143.663C196.724 143.663 189.716 138.012 187.656 130.359C187.256 128.873 187.039 127.313 187.039 125.703C187.039 123.248 187.536 120.907 188.433 118.774C188.896 117.675 189.472 116.636 190.135 115.66C193.373 110.889 198.837 107.743 205.031 107.743C205.599 107.743 206.159 107.772 206.714 107.824C215.849 108.674 223.022 116.366 223.022 125.703ZM234.651 125.703C234.651 111.267 224.232 99.2231 210.509 96.6496L243.336 0H88.167L121.044 96.8463C107.797 99.7889 97.8608 111.606 97.8608 125.703C97.8608 136.288 103.465 145.586 111.863 150.811C107.824 156.819 103.033 162.473 97.5439 167.643C88.8373 175.842 79.1383 182.06 68.6817 186.151C58.1495 179.547 53.6971 167.092 58.3211 156.242L58.6833 155.392C58.91 154.86 59.1368 154.328 59.3629 153.796C70.9312 149.768 79.2563 138.777 79.2563 125.873C79.2563 109.569 65.9689 96.3054 49.6366 96.3054C33.3043 96.3054 20.0168 109.569 20.0168 125.873C20.0168 134.103 23.4053 141.555 28.8589 146.921C27.8705 149.024 26.8298 151.162 25.7617 153.352C20.7756 163.576 15.1243 175.163 12.987 188.03C8.74219 213.585 15.5894 234.013 32.2671 245.552C42.3876 252.554 52.6646 255.306 63.0072 255.306C82.482 255.306 102.182 245.54 121.45 235.986C135.326 229.106 149.675 221.991 163.849 218.502C169.122 217.203 174.549 216.422 180.294 215.595C191.687 213.954 203.468 212.258 213.903 206.225C225.999 199.231 234.28 187.499 236.621 174.038C238.631 162.482 236.212 150.907 230.313 141.091C233.063 136.605 234.651 131.336 234.651 125.703Z" fill="white"/>
</g>
<defs>
<clipPath id="clip0_311_163">
<rect width="256" height="256" fill="white"/>
</clipPath>
</defs>
</svg>
