<svg width="256" height="256" viewBox="0 0 256 256" fill="none" xmlns="http://www.w3.org/2000/svg">
<path d="M215.808 2.56006H40.1921C30.2145 2.56966 20.6486 6.53766 13.5937 13.5937C6.53766 20.6486 2.56966 30.2145 2.56006 40.1921V215.808C2.56966 225.786 6.53766 235.352 13.5937 242.406C20.6486 249.462 30.2145 253.43 40.1921 253.44H215.808C225.786 253.43 235.352 249.462 242.406 242.406C249.462 235.352 253.43 225.786 253.44 215.808V40.1921C253.43 30.2145 249.462 20.6486 242.406 13.5937C235.352 6.53766 225.786 2.56966 215.808 2.56006ZM190.72 77.8241C169.897 77.8241 154.894 105.133 138.989 134.046C120.273 168.078 100.917 203.264 65.2801 203.264C61.9531 203.264 58.7627 201.942 56.4097 199.59C54.0577 197.238 52.7361 194.047 52.7361 190.72C52.7361 187.393 54.0577 184.203 56.4097 181.851C58.7627 179.499 61.9531 178.176 65.2801 178.176C86.1035 178.176 101.106 150.868 117.011 121.954C135.727 87.9222 155.083 52.7361 190.72 52.7361C194.047 52.7361 197.238 54.0577 199.59 56.4097C201.942 58.7627 203.264 61.9531 203.264 65.2801C203.264 68.607 201.942 71.7974 199.59 74.1505C197.238 76.5025 194.047 77.8241 190.72 77.8241Z" fill="#00DDB3"/>
</svg>
