<svg width="256" height="256" viewBox="0 0 256 256" fill="none" xmlns="http://www.w3.org/2000/svg">
<path d="M215.771 168.584C217.973 167.316 219.333 164.967 219.341 162.421L219.469 121.138C219.477 118.591 220.838 116.242 223.039 114.974L245.347 102.119C247.548 100.851 250.255 100.856 252.451 102.131C254.647 103.406 256 105.758 256 108.304V183.358C256 185.912 254.638 188.271 252.43 189.543L168.239 238.053C166.051 239.313 163.361 239.316 161.171 238.06L95.0995 200.151C92.884 198.882 91.5163 196.519 91.5154 193.959V156.114C91.5154 156.072 91.5652 156.043 91.6079 156.065C91.6434 156.086 91.6932 156.065 91.6932 156.015V155.972C91.6932 155.943 91.7074 155.915 91.7359 155.9L146.152 124.54C146.201 124.512 146.18 124.433 146.123 124.433C146.092 124.433 146.066 124.408 146.066 124.376L146.173 87.2735C146.183 84.7198 144.832 82.3555 142.63 81.0742C140.427 79.793 137.711 79.7903 135.506 81.0672L95.064 104.445C92.8674 105.713 90.1635 105.713 87.9669 104.445L47.3969 81.0101C45.1971 79.7394 42.489 79.7414 40.291 81.0152C38.093 82.289 36.7386 84.6415 36.737 87.1879V154.245C36.7388 156.789 35.3902 159.141 33.1977 160.419C31.0051 161.696 28.3003 161.706 26.0985 160.445L3.58412 147.533C1.36415 146.26 -0.00426658 143.891 9.9946e-06 141.326L0.199137 24.1183C0.204652 21.5753 1.55914 19.2276 3.75438 17.956C5.94961 16.6844 8.65364 16.6811 10.8519 17.9475L87.974 62.3838C90.167 63.6472 92.8639 63.6472 95.0569 62.3838L172.158 17.9475C174.359 16.6793 177.068 16.6845 179.264 17.9613C181.461 19.2382 182.812 21.5929 182.81 24.1397V141.376C182.811 143.929 181.453 146.287 179.248 147.561L138.87 170.888C136.662 172.165 135.304 174.529 135.31 177.085C135.316 179.642 136.685 181.999 138.898 183.266L161.171 195.985C163.361 197.236 166.047 197.23 168.232 195.971L215.771 168.584ZM220.443 63.4182C220.445 65.9866 221.824 68.3556 224.052 69.6208C226.28 70.8859 229.014 70.852 231.21 69.5319L252.544 56.6911C254.686 55.4033 255.998 53.0827 256 50.5774V24.4107C255.995 21.8437 254.616 19.477 252.389 18.2136C250.161 16.9501 247.429 16.9847 245.233 18.3042L223.9 31.145C221.757 32.4327 220.445 34.7534 220.443 37.2587V63.4253V63.4182Z" fill="#007FFF"/>
</svg>
