<svg width="256" height="256" viewBox="0 0 256 256" fill="none" xmlns="http://www.w3.org/2000/svg">
<path d="M139.578 143.143H127.394V139.214H130.102V127.929C130.102 125.286 129.603 123.429 128.606 122.286C127.608 121.143 126.254 120.643 124.544 120.643C122.264 120.643 120.554 121.429 119.414 123.071C118.274 124.714 117.704 126.357 117.633 128V139.143H121.908V143.071H109.724V139.143H112.432V127.929C112.432 125.214 111.933 123.357 110.936 122.286C109.938 121.214 108.584 120.643 106.946 120.643C104.666 120.643 103.027 121.429 101.816 123C100.676 124.571 100.106 126.214 100.035 127.929V139.214H104.951V143.143H90.5583V139.214H94.8333V121.143H90.4871V117.143H100.035V121.714C100.89 120.214 101.958 119 103.383 118C104.808 117.071 106.518 116.571 108.584 116.571C110.651 116.571 112.361 117.071 113.928 118.071C115.496 119.071 116.564 120.571 117.134 122.643C117.918 120.857 119.058 119.429 120.626 118.286C122.193 117.143 124.046 116.571 126.254 116.571C128.748 116.571 130.886 117.357 132.596 118.929C134.306 120.5 135.232 122.929 135.232 126.214V139.214H139.578V143.143ZM169.859 143.143H160.454V138C159.599 139.571 158.459 140.929 156.963 142C155.467 143.143 153.543 143.714 151.049 143.714C147.629 143.714 144.851 142.571 142.784 140.214C140.718 137.929 139.721 134.714 139.721 130.714C139.721 127.143 140.647 123.857 142.571 120.929C144.423 118 147.487 116.5 151.691 116.5C155.894 116.5 158.673 118.071 160.454 121.143V107.071H154.327V103.071H165.584V139.214H169.859V143.143ZM160.383 131.143V128C160.312 125.857 159.528 124.071 158.103 122.786C156.678 121.5 154.968 120.786 152.973 120.786C150.408 120.786 148.484 121.714 147.131 123.571C145.777 125.429 145.136 127.714 145.136 130.429C145.136 133.357 145.848 135.643 147.273 137.214C148.698 138.786 150.479 139.571 152.546 139.571C154.825 139.571 156.678 138.643 158.103 136.857C159.599 135 160.312 133.071 160.383 131.143ZM204.202 143.143H190.45V139.214H194.725V127.929C194.725 125.286 194.227 123.429 193.158 122.286C192.16 121.143 190.735 120.643 189.097 120.643C186.888 120.643 185.107 121.357 183.824 122.786C182.542 124.214 181.829 125.929 181.758 127.786V139.143H186.033V143.071H172.282V139.143H176.557V121.143H172.139V117.143H181.829V121.571C183.682 118.286 186.674 116.643 190.878 116.643C193.443 116.643 195.652 117.429 197.433 119C199.214 120.571 200.069 123 200.069 126.286V139.286H204.344V143.143H204.202Z" fill="black"/>
<path d="M28.7136 91L8.33621 156.786H0L20.3062 91H28.7136ZM36.1236 91V156.786H28.7136V91H36.1236ZM64.8372 91L44.531 156.786H36.1948L56.501 91H64.8372ZM72.2471 91V156.786H64.8372V91H72.2471Z" fill="#0069C2"/>
<path d="M208.263 158.714H256V165H208.263V158.714Z" fill="#0069C2"/>
</svg>
