<svg width="256" height="256" viewBox="0 0 256 256" fill="none" xmlns="http://www.w3.org/2000/svg">
<path d="M240.86 184.461C241.522 186.186 240.979 187.63 239.511 188.816C225.756 199.926 211.32 210.004 195.606 218.159L182.486 224.958C185.192 227.127 188.247 227.737 191.489 227.616C195.039 227.482 198.013 225.847 200.76 223.744C204.042 221.232 207.146 218.452 210.595 216.199C218.945 210.745 227.944 211.238 235.843 217.388C239.198 220.001 242.282 222.985 245.763 225.404C247.446 226.574 249.601 227.211 251.667 227.669L252.124 227.768C254.631 228.298 256.155 229.565 255.987 231.737C255.822 233.893 254.12 235.152 251.55 234.985C246.105 234.633 241.837 231.814 237.837 228.407C235.339 226.279 232.926 224.011 230.231 222.166C225.232 218.745 219.928 218.645 214.835 221.929C211.834 223.865 209.105 226.233 206.296 228.461C201.769 232.051 196.883 234.695 190.922 234.785C184.384 234.884 179.123 231.94 174.302 227.895C172.578 226.448 170.871 224.98 169.114 223.574C162.528 218.301 155.78 218.304 149.171 223.577C148.401 224.192 147.639 224.817 146.879 225.444L145.359 226.699C144.091 227.743 142.818 228.78 141.51 229.772C133.42 235.908 124.155 236.2 115.772 230.455C112.721 228.364 109.941 225.877 107.032 223.578C100.422 218.354 94.9358 218.37 88.2082 223.556L87.6578 223.981L86.0081 225.26C83.8072 226.966 81.593 228.657 79.2684 230.174C70.5077 235.89 61.5912 235.651 52.8844 230.126C49.2814 227.84 45.9919 225.057 42.5791 222.468L42.0662 222.082C40.7041 221.061 39.3584 220.016 37.9599 219.047C36.0092 217.696 33.9097 217.318 31.7978 218.605C28.0661 220.879 24.378 223.225 20.682 225.557C17.1891 227.761 13.8139 230.183 10.1817 232.122C8.21426 233.172 5.84967 233.661 3.60651 233.949C1.51908 234.216 0.0829625 232.66 0.00346201 230.698C-0.0748963 228.765 1.18319 227.55 3.13813 226.993L3.25168 226.961C5.33036 226.403 7.47068 225.696 9.27366 224.558C14.3613 221.348 19.2907 217.886 24.2774 214.516C24.4185 214.42 24.5009 214.238 24.6701 214.02L21.5745 208.146C20.5415 206.186 19.509 204.222 18.4822 202.256C16.6811 198.805 17.8532 196.491 21.7191 196.214C32.1417 195.467 42.572 194.825 52.9997 194.152L113.02 190.286C127.207 189.371 141.393 188.446 155.579 187.527C175.585 186.232 195.592 184.938 215.598 183.644C220.918 183.3 226.239 182.965 231.558 182.616L236.877 182.262C238.71 182.138 240.18 182.693 240.86 184.461ZM225.639 190.561L225.461 190.123L26.8542 202.955L27.3445 203.874C28.6322 206.294 29.7717 208.481 31.0174 210.604C31.1322 210.799 31.5337 210.839 31.9546 210.853L32.3845 210.864C32.4286 210.866 32.4717 210.867 32.5137 210.869L32.6355 210.876C34.3615 211.004 36.2484 210.699 37.7808 211.306C40.2274 212.275 42.5647 213.663 44.7218 215.196C48.5819 217.938 52.1525 221.097 56.0615 223.761C63.0069 228.494 69.5482 228.353 76.3805 223.554C79.2644 221.529 81.9991 219.292 84.8557 217.227C93.7882 210.769 102.25 210.903 110.969 217.645C113.517 219.616 115.946 221.741 118.49 223.718C124.867 228.672 131.338 228.69 137.683 223.768C139.796 222.129 141.808 220.359 143.882 218.669C153.288 211 162.822 210.261 172.071 217.1L172.351 217.309C175.312 219.549 177.515 219.436 180.465 217.96L181.901 217.239C195.058 210.62 207.966 203.585 219.883 194.843C221.811 193.429 223.721 191.989 225.639 190.561ZM41.218 21.6776C62.7141 31.4094 82.0182 44.5008 99.5626 60.2358C121.394 79.8159 138.599 102.937 151.307 129.38C157.995 143.298 163.197 157.755 165.587 173.103L165.701 173.856L165.875 175.058C165.878 178.028 163.507 179.774 161.035 178.772C148.763 173.796 136.091 170.344 122.996 168.373C105.691 165.768 88.6032 166.416 71.7786 171.5C60.6216 174.871 50.009 179.469 40.1466 185.744C38.3257 186.903 36.3951 186.701 35.2062 185.283C33.9714 183.81 33.9732 182.033 35.3995 180.478C45.7032 169.252 51.6978 155.771 55.6729 141.274C59.5564 127.11 60.9742 112.636 60.1045 97.9937C59.451 86.9879 56.8205 76.339 53.3787 65.8851C48.9263 52.3612 43.1479 39.4338 36.1814 27.033C35.0432 25.0067 35.0644 23.4279 36.2149 22.131C37.406 20.7887 38.9398 20.6459 41.218 21.6776ZM107.488 46.9571C109.481 47.5404 112.166 48.1161 114.692 49.1023C124.775 53.0407 133.462 59.2894 141.738 66.116C155.188 77.2107 167.503 89.4823 178.517 103.016C186.182 112.436 192.47 122.798 198.203 133.494C204.704 145.623 210.302 158.162 215.054 171.079L215.384 171.981C215.509 172.324 215.638 172.666 215.754 173.012C216.254 174.506 216.192 175.95 215.026 177.092C213.835 178.257 212.408 178.334 210.901 177.742L210.796 177.7C208.636 176.809 206.447 175.987 204.291 175.087L203.369 174.697C197.303 172.084 191.069 171.561 184.649 173.025C184.057 173.16 183.457 173.262 182.857 173.355C180.475 173.723 178.988 172.789 178.338 170.474C172.084 148.211 163.268 127.012 152.107 106.786L151.549 105.779C144.353 92.8759 136.115 80.743 125.409 70.4343C119.088 64.3473 112.436 58.6721 105.089 53.8521C103.387 52.7352 102.749 51.1853 103.31 49.4935C103.861 47.8292 105.149 47.1759 107.488 46.9571ZM47.6451 32.8301C47.6659 33.3933 47.8162 33.8332 48.02 34.246C52.692 43.7015 56.7545 53.4136 60.0541 63.4353C63.1842 72.9429 65.5849 82.633 66.7344 92.5969C68.0213 103.751 67.4918 114.875 65.9671 125.968C63.9595 140.577 59.9221 154.549 52.9582 167.6L52.1483 169.12C51.7427 169.883 51.335 170.651 50.9203 171.431C51.1774 171.5 51.3076 171.584 51.3915 171.551C52.1249 171.26 52.8546 170.959 53.5767 170.641C68.3568 164.131 83.7581 160.199 99.9335 159.795C118.404 159.334 136.294 162.674 153.764 168.495L154.957 168.892C155.821 169.177 156.743 169.47 157.937 169.858C150.86 138.772 136.189 112.052 116.415 88.0163C97.3519 64.8457 74.1662 46.7408 47.6451 32.8301ZM135.409 70.5203L135.643 70.7859L136.108 71.3063C136.287 71.5092 136.451 71.7001 136.604 71.8992C137.688 73.3088 138.796 74.7026 139.909 76.0933L141.728 78.363C144.46 81.7791 147.157 85.2183 149.53 88.87C164.535 111.964 175.569 136.936 183.612 163.252L183.855 164.05C184.273 165.429 184.847 165.815 186.185 165.613L186.278 165.598C192.295 164.592 198.176 165.115 203.878 167.319L204.173 167.434C204.718 167.651 205.3 167.772 206.356 168.081C198.631 148.739 189.501 130.735 177.948 113.951C167.958 99.4377 141.207 73.6711 135.409 70.5203Z" fill="#1A222D"/>
</svg>
