<svg width="256" height="256" viewBox="0 0 256 256" fill="none" xmlns="http://www.w3.org/2000/svg">
<path d="M233.878 120.727H240.362V123.881C241.103 122.785 242.095 121.926 243.338 121.305C244.582 120.683 245.959 120.372 247.469 120.372C249.157 120.372 250.637 120.727 251.91 121.438C253.183 122.119 254.175 123.096 254.886 124.369C255.597 125.613 255.952 127.064 255.952 128.722V143.779H249.423V130.41C249.423 129.107 249.053 128.07 248.313 127.301C247.602 126.531 246.64 126.146 245.426 126.146C244.33 126.146 243.412 126.442 242.672 127.034C241.932 127.597 241.354 128.441 240.94 129.566C240.555 130.691 240.362 132.053 240.362 133.652V143.779H233.878V120.727Z" fill="#141414"/>
<path d="M222.991 120.728H229.475V143.779H222.991V120.728ZM222.813 111.489H229.742V117.841H222.813V111.489Z" fill="#141414"/>
<path d="M208.628 144.134C207.266 144.134 206.023 143.882 204.897 143.379C203.802 142.876 202.973 142.224 202.41 141.425V143.779H195.926V111.4H202.41V122.992C203.091 122.193 203.98 121.556 205.075 121.083C206.171 120.609 207.385 120.372 208.717 120.372C210.908 120.372 212.818 120.861 214.447 121.838C216.105 122.815 217.378 124.206 218.266 126.013C219.184 127.789 219.643 129.862 219.643 132.231C219.643 134.629 219.184 136.731 218.266 138.538C217.378 140.314 216.105 141.691 214.447 142.668C212.788 143.645 210.849 144.134 208.628 144.134ZM207.562 138.582C208.658 138.582 209.62 138.316 210.449 137.783C211.278 137.25 211.915 136.509 212.359 135.562C212.803 134.585 213.025 133.474 213.025 132.231C213.025 130.336 212.522 128.811 211.515 127.656C210.509 126.501 209.191 125.924 207.562 125.924C206.467 125.924 205.504 126.19 204.675 126.723C203.846 127.256 203.195 127.997 202.721 128.944C202.277 129.892 202.055 130.987 202.055 132.231C202.055 133.504 202.277 134.614 202.721 135.562C203.195 136.509 203.846 137.25 204.675 137.783C205.504 138.316 206.467 138.582 207.562 138.582Z" fill="#141414"/>
<path d="M182.18 144.134C180.818 144.134 179.574 143.882 178.449 143.379C177.354 142.876 176.525 142.224 175.962 141.425V143.779H169.478V111.4H175.962V122.992C176.643 122.193 177.531 121.556 178.627 121.083C179.722 120.609 180.936 120.372 182.269 120.372C184.46 120.372 186.37 120.861 187.998 121.838C189.657 122.815 190.93 124.206 191.818 126.013C192.736 127.789 193.195 129.862 193.195 132.231C193.195 134.629 192.736 136.731 191.818 138.538C190.93 140.314 189.657 141.691 187.998 142.668C186.34 143.645 184.401 144.134 182.18 144.134ZM181.114 138.582C182.21 138.582 183.172 138.316 184.001 137.783C184.83 137.25 185.467 136.509 185.911 135.562C186.355 134.585 186.577 133.474 186.577 132.231C186.577 130.336 186.074 128.811 185.067 127.656C184.06 126.501 182.743 125.924 181.114 125.924C180.019 125.924 179.056 126.19 178.227 126.723C177.398 127.256 176.747 127.997 176.273 128.944C175.829 129.892 175.607 130.987 175.607 132.231C175.607 133.504 175.829 134.614 176.273 135.562C176.747 136.509 177.398 137.25 178.227 137.783C179.056 138.316 180.019 138.582 181.114 138.582Z" fill="#141414"/>
<path d="M154.821 144.134C152.512 144.134 150.439 143.616 148.603 142.579C146.797 141.543 145.391 140.122 144.384 138.315C143.377 136.509 142.874 134.481 142.874 132.231C142.874 129.98 143.377 127.952 144.384 126.146C145.42 124.34 146.842 122.933 148.648 121.926C150.454 120.89 152.512 120.372 154.821 120.372C157.101 120.372 159.144 120.89 160.951 121.926C162.786 122.963 164.222 124.384 165.259 126.19C166.295 127.967 166.813 129.98 166.813 132.231C166.813 134.481 166.295 136.509 165.259 138.315C164.222 140.122 162.786 141.543 160.951 142.579C159.144 143.616 157.101 144.134 154.821 144.134ZM154.821 138.582C155.887 138.582 156.82 138.315 157.62 137.783C158.449 137.25 159.085 136.509 159.529 135.562C159.973 134.585 160.196 133.474 160.196 132.231C160.196 131.017 159.973 129.936 159.529 128.988C159.085 128.011 158.449 127.256 157.62 126.723C156.79 126.19 155.858 125.924 154.821 125.924C153.755 125.924 152.808 126.19 151.979 126.723C151.179 127.256 150.558 128.011 150.113 128.988C149.669 129.936 149.447 131.017 149.447 132.231C149.447 133.474 149.669 134.585 150.113 135.562C150.558 136.509 151.179 137.25 151.979 137.783C152.778 138.315 153.726 138.582 154.821 138.582Z" fill="#141414"/>
<path d="M102.4 111.755H111.816L119.144 131.342C119.973 133.593 120.625 135.665 121.099 137.56C121.602 135.665 122.253 133.593 123.053 131.342L130.337 111.755H139.486V143.779H132.735V128.367C132.735 125.968 132.78 123.777 132.868 121.793C132.247 123.777 131.551 125.85 130.781 128.011L124.874 143.779H117.057L111.105 128.011C110.276 125.761 109.595 123.688 109.062 121.793C109.151 123.777 109.195 125.968 109.195 128.367V143.779H102.4V111.755Z" fill="#141414"/>
<path d="M83.8959 126.424H62.8403V147.48H83.8959V126.424Z" fill="#141414"/>
<path d="M0 147.48V128.942L20.9418 108H39.4794V126.538L18.5377 147.48H0Z" fill="#141414"/>
<path d="M31.5831 147.48V128.942L52.5249 108H71.0625V126.538L50.1208 147.48H31.5831Z" fill="#141414"/>
</svg>
