<svg width="256" height="256" viewBox="0 0 256 256" fill="none" xmlns="http://www.w3.org/2000/svg">
<path d="M21.1034 11.0218L162.474 0.580822C179.839 -0.909532 184.301 0.0953934 195.219 8.03259L240.347 39.824C247.791 45.2915 250.269 46.7818 250.269 52.7347V227.089C250.269 238.016 246.3 244.479 232.41 245.467L68.2412 255.406C57.8172 255.9 52.8522 254.409 47.3932 247.452L14.1626 204.24C8.20118 196.286 5.73145 190.333 5.73145 183.375V28.3951C5.73145 19.4615 9.70005 12.0097 21.1034 11.0218Z" fill="white"/>
<path d="M162.474 0.580822L21.1034 11.0218C9.70005 12.0097 5.73145 19.4615 5.73145 28.3951V183.375C5.73145 190.333 8.20118 196.286 14.1626 204.24L47.3932 247.452C52.8522 254.409 57.8172 255.9 68.2412 255.406L232.41 245.467C246.292 244.479 250.269 238.016 250.269 227.089V52.7347C250.269 47.0884 248.037 45.4618 241.471 40.6415C241.094 40.3694 240.716 40.0969 240.339 39.824L195.219 8.03259C184.301 0.0953934 179.839 -0.909532 162.474 0.580822ZM71.9543 49.8817C58.5496 50.7845 55.5093 50.9889 47.8957 44.7975L28.5381 29.4C26.5709 27.4072 27.5587 24.9204 32.5152 24.4265L168.419 14.4965C179.83 13.5001 185.775 17.4772 190.237 20.9518L213.546 37.8397C214.543 38.3421 217.021 41.3143 214.04 41.3143L73.6916 49.7625L71.9543 49.8817ZM56.3268 225.599V77.5853C56.3268 71.1214 58.3111 68.1407 64.2555 67.6382L225.452 58.2022C230.92 57.7082 233.389 61.1829 233.389 67.6382V214.664C233.389 221.128 232.393 226.595 223.468 227.089L69.212 236.031C60.2869 236.525 56.3268 233.553 56.3268 225.599ZM208.598 85.5225C209.586 89.9936 208.598 94.4646 204.127 94.9756L196.693 96.4489V205.73C190.237 209.205 184.293 211.189 179.328 211.189C171.391 211.189 169.406 208.702 163.462 201.259L114.842 124.766V198.772L130.223 202.256C130.223 202.256 130.223 211.198 117.815 211.198L83.6046 213.182C82.6082 211.189 83.6046 206.224 87.0707 205.236L96.0043 202.758V104.906L83.6046 103.901C82.6082 99.4296 85.0864 92.9743 92.0357 92.4718L128.741 90.0021L179.328 167.483V98.9357L166.434 97.4539C165.438 91.9779 169.406 88.0007 174.363 87.5153L208.598 85.5225Z" fill="black"/>
</svg>
