<svg width="256" height="256" viewBox="0 0 256 256" fill="none" xmlns="http://www.w3.org/2000/svg">
<path d="M143.618 212H238.784C241.807 212 244.776 211.225 247.394 209.75C250.012 208.275 252.185 206.154 253.696 203.6C255.206 201.046 256 198.148 256 195.199C256 192.25 255.201 189.354 253.688 186.8L189.778 78.8008C188.267 76.2472 186.094 74.1266 183.477 72.6522C180.859 71.1778 177.891 70.4016 174.869 70.4016C171.846 70.4016 168.878 71.1778 166.26 72.6522C163.643 74.1266 161.47 76.2472 159.96 78.8008L143.618 106.434L111.667 52.398C110.156 49.8446 107.982 47.7243 105.364 46.2502C102.746 44.776 99.7764 44 96.754 44C93.7316 44 90.7623 44.776 88.1441 46.2502C85.5264 47.7243 83.3524 49.8446 81.8407 52.398L2.31153 186.8C0.798555 189.354 0 192.25 0 195.199C0 198.148 0.79334 201.046 2.30404 203.6C3.81474 206.154 5.98822 208.275 8.60583 209.75C11.2235 211.225 14.193 212 17.2157 212H76.9528C100.622 212 118.076 201.857 130.087 182.069L159.246 132.801L174.864 106.434L221.738 185.634H159.246L143.618 212ZM75.9788 185.606L34.2901 185.597L96.7816 80.0043L127.963 132.801L107.086 168.089C99.1098 180.928 90.0486 185.606 75.9788 185.606Z" fill="#00DC82"/>
</svg>
