<svg width="256" height="256" viewBox="0 0 256 256" fill="none" xmlns="http://www.w3.org/2000/svg">
<g clip-path="url(#clip0_340_2)">
<path d="M41.5808 0H214.042C237.024 0 255.603 18.5664 255.603 41.5488V213.965C255.603 236.947 237.024 255.514 214.042 255.514H68.0896L67.6032 145.421H67.5456C67.5456 145.158 67.5456 144.909 67.5456 144.64C67.5456 102.899 100.691 69.1648 141.696 69.1648C166.298 69.1648 186.189 89.408 186.189 114.451C186.189 139.494 166.298 159.738 141.696 159.738C133.504 159.738 126.867 152.986 126.867 144.64C126.867 136.301 133.504 129.542 141.696 129.542C149.888 129.542 156.525 122.79 156.525 114.445C156.525 106.106 149.888 99.3472 141.696 99.3472C117.094 99.3472 97.2032 119.59 97.2032 144.634C97.2032 169.677 117.094 189.92 141.696 189.92C182.701 189.92 215.846 156.186 215.846 114.445C215.846 72.704 182.701 38.9696 141.696 38.9696C84.288 38.9696 37.8688 86.1952 37.8688 144.634C37.8688 144.941 37.8688 145.235 37.8688 145.549H37.6192L38.1056 255.366C16.7424 253.613 0 235.77 0 213.965V41.5488C0 18.5664 18.5792 0 41.5616 0L41.5808 0Z" fill="#18A497"/>
</g>
<defs>
<clipPath id="clip0_340_2">
<rect width="256" height="256" fill="white"/>
</clipPath>
</defs>
</svg>
