<svg width="256" height="256" viewBox="0 0 256 256" fill="none" xmlns="http://www.w3.org/2000/svg">
<path d="M210.483 87.8991C207.828 86.984 205.076 86.1183 202.242 85.2995C202.708 83.3969 203.136 81.519 203.516 79.673C209.754 49.361 205.675 24.9414 191.747 16.9015C178.392 9.1922 156.551 17.2303 134.493 36.4467C132.372 38.2945 130.245 40.2509 128.118 42.3013C126.702 40.9447 125.287 39.6338 123.877 38.3798C100.759 17.8324 77.5867 9.17349 63.6726 17.2367C50.3304 24.9683 46.3792 47.9251 51.9945 76.652C52.5368 79.4267 53.1706 82.2602 53.8874 85.1412C50.6079 86.0731 47.4419 87.0666 44.4125 88.1235C17.3093 97.5825 0 112.407 0 127.784C0 143.666 18.5816 159.595 46.8117 169.254C49.0395 170.016 51.3511 170.737 53.7334 171.421C52.9601 174.537 52.2875 177.59 51.7229 180.568C46.3687 208.797 50.55 231.211 63.8567 238.894C77.6013 246.828 100.669 238.673 123.13 219.018C124.906 217.465 126.687 215.817 128.472 214.09C130.786 216.32 133.095 218.431 135.393 220.411C157.15 239.152 178.638 246.72 191.932 239.016C205.663 231.059 210.126 206.98 204.332 177.685C203.89 175.448 203.375 173.162 202.797 170.836C204.416 170.356 206.007 169.861 207.557 169.347C236.905 159.613 256 143.878 256 127.784C256 112.351 238.132 97.427 210.483 87.8991ZM204.118 158.956C202.718 159.419 201.282 159.868 199.818 160.303C196.578 150.035 192.206 139.117 186.855 127.838C191.961 116.826 196.165 106.048 199.314 95.8473C201.933 96.6059 204.474 97.406 206.924 98.2503C230.613 106.414 245.064 118.484 245.064 127.784C245.064 137.691 229.458 150.551 204.118 158.956ZM193.604 179.811C196.166 192.765 196.531 204.477 194.835 213.633C193.31 221.86 190.244 227.345 186.452 229.542C178.385 234.216 161.132 228.14 142.525 212.112C140.392 210.275 138.244 208.313 136.088 206.236C143.302 198.339 150.511 189.159 157.547 178.962C169.923 177.863 181.615 176.066 192.218 173.612C192.74 175.721 193.204 177.789 193.604 179.811ZM87.2762 228.734C79.3939 231.52 73.116 231.6 69.3212 229.41C61.2461 224.748 57.8891 206.751 62.4682 182.61C62.9927 179.845 63.617 177.006 64.3365 174.103C74.8235 176.424 86.43 178.094 98.8353 179.101C105.919 189.078 113.336 198.249 120.811 206.279C119.178 207.857 117.551 209.36 115.934 210.776C106.001 219.466 96.048 225.633 87.2762 228.734ZM50.3486 158.895C37.8658 154.624 27.557 149.073 20.4909 143.016C14.1415 137.573 10.9358 132.169 10.9358 127.784C10.9358 118.453 24.8335 106.551 48.0124 98.461C50.8248 97.4794 53.7689 96.5544 56.8242 95.6854C60.0276 106.116 64.2299 117.022 69.3011 128.051C64.1643 139.242 59.9023 150.322 56.6675 160.875C54.4893 160.249 52.3791 159.589 50.3486 158.895ZM62.7271 74.5496C57.916 49.9371 61.1112 31.3703 69.1516 26.7112C77.7161 21.748 96.6545 28.8246 116.615 46.5662C117.891 47.7002 119.172 48.8871 120.456 50.115C113.018 58.1098 105.669 67.2117 98.648 77.13C86.6082 78.2471 75.0832 80.0416 64.4869 82.4445C63.8207 79.7619 63.2306 77.1264 62.7271 74.5496ZM173.154 101.845C170.621 97.4648 168.02 93.1885 165.369 89.0289C173.537 90.0625 181.363 91.4346 188.712 93.1137C186.506 100.192 183.756 107.593 180.519 115.18C178.196 110.767 175.74 106.317 173.154 101.845ZM128.122 57.9387C133.166 63.4093 138.218 69.517 143.187 76.1438C138.18 75.9071 133.111 75.7839 128 75.7839C122.937 75.7839 117.906 75.9044 112.93 76.137C117.904 69.5717 122.999 63.4722 128.122 57.9387ZM82.8019 101.92C80.2715 106.313 77.861 110.738 75.5753 115.172C72.3906 107.611 69.6661 100.177 67.4406 92.9978C74.7446 91.3616 82.5335 90.0238 90.6496 89.0098C87.9611 93.2077 85.3391 97.5164 82.8019 101.92ZM90.8833 167.339C82.498 166.403 74.592 165.134 67.2898 163.543C69.5508 156.236 72.3355 148.643 75.5876 140.919C77.8792 145.35 80.2993 149.777 82.8452 154.179C85.4384 158.663 88.1256 163.056 90.8833 167.339ZM128.425 198.401C123.241 192.803 118.071 186.611 113.022 179.949C117.924 180.142 122.921 180.24 128 180.24C133.218 180.24 138.376 180.123 143.453 179.897C138.468 186.678 133.435 192.88 128.425 198.401ZM180.623 140.526C184.045 148.332 186.929 155.886 189.219 163.069C181.797 164.764 173.783 166.129 165.339 167.143C167.997 162.928 170.62 158.578 173.198 154.104C175.805 149.577 178.282 145.043 180.623 140.526ZM163.725 148.634C159.723 155.58 155.614 162.211 151.444 168.469C143.847 169.013 135.999 169.293 128 169.293C120.033 169.293 112.284 169.045 104.822 168.561C100.483 162.22 96.2854 155.57 92.3091 148.694C88.3434 141.837 84.6943 134.923 81.387 128.047C84.6934 121.155 88.3338 114.233 92.2768 107.388L92.2759 107.39C96.2293 100.527 100.39 93.9092 104.689 87.608C112.302 87.0319 120.11 86.7313 128 86.7313C135.925 86.7313 143.743 87.0342 151.354 87.6153C155.587 93.8704 159.72 100.467 163.689 107.33C167.703 114.271 171.39 121.147 174.725 127.891C171.4 134.751 167.721 141.697 163.725 148.634ZM186.285 26.3856C194.857 31.3342 198.191 51.2923 192.805 77.4634C192.461 79.1334 192.075 80.8343 191.654 82.5581C181.033 80.105 169.5 78.2795 157.425 77.1455C150.391 67.1181 143.102 58.0021 135.785 50.11C137.752 48.2156 139.716 46.4093 141.673 44.7047C160.572 28.2402 178.237 21.7398 186.285 26.3856ZM128 104.901C140.625 104.901 150.86 115.146 150.86 127.784C150.86 140.422 140.625 150.667 128 150.667C115.375 150.667 105.14 140.422 105.14 127.784C105.14 115.146 115.375 104.901 128 104.901Z" fill="#00D8FF"/>
</svg>
