<svg width="256" height="256" viewBox="0 0 256 256" fill="none" xmlns="http://www.w3.org/2000/svg">
<path d="M177.381 176.408C186.828 175.426 193.995 167.249 193.669 157.437C193.344 147.625 185.199 139.775 175.426 139.775H174.775C164.676 140.102 156.857 148.606 157.183 158.745C157.509 163.651 159.464 167.903 162.395 170.847C151.319 192.761 134.379 208.788 108.969 222.198C91.7032 231.357 73.7859 234.627 55.8685 232.338C41.2088 230.375 29.8068 223.834 22.6398 213.04C12.2152 197.013 11.2379 179.678 20.0337 162.343C26.2233 149.914 35.9964 140.756 42.1861 136.177C40.883 131.925 38.9284 124.729 37.9511 119.496C-9.28569 153.839 -4.39913 200.284 9.93478 222.198C20.6852 238.552 42.5119 248.692 66.6189 248.692C73.1343 248.692 79.6497 248.038 86.1651 246.402C127.864 238.225 159.464 213.367 177.381 176.408ZM234.717 135.85C209.958 106.74 173.472 90.7131 131.773 90.7131H126.561C123.629 84.8257 117.439 80.9008 110.598 80.9008H109.946C99.8475 81.2279 92.029 89.7319 92.3548 99.8713C92.6806 109.684 100.825 117.534 110.598 117.534H111.249C118.416 117.206 124.606 112.627 127.212 106.413H133.076C157.835 106.413 181.29 113.609 202.465 127.673C218.754 138.466 230.482 152.531 236.997 169.539C242.535 183.276 242.209 196.686 236.345 208.134C227.224 225.469 211.913 234.954 191.715 234.954C178.684 234.954 166.305 231.029 159.789 228.086C156.206 231.357 149.69 236.59 145.13 239.861C159.138 246.402 173.472 250 187.154 250C218.428 250 241.558 232.665 250.354 215.33C259.801 196.359 259.149 163.651 234.717 135.85ZM69.2251 181.968C69.5508 191.78 77.6951 199.63 87.4682 199.63H88.1198C98.2187 199.303 106.037 190.799 105.711 180.66C105.386 170.847 97.2413 162.997 87.4682 162.997H86.8167C86.1651 162.997 85.1878 162.997 84.5363 163.324C71.1797 141.083 65.6416 116.879 67.5962 90.7131C68.8993 71.0885 75.4147 54.0804 86.8167 40.0161C96.264 27.9142 114.507 22.0268 126.886 21.6997C161.418 21.0456 176.078 64.2198 177.055 81.555C181.29 82.5362 188.457 84.8257 193.344 86.4611C189.434 33.4745 156.857 6 125.583 6C96.264 6 69.2251 27.2601 58.4746 58.6595C43.4892 100.525 53.2623 140.756 71.5055 172.483C69.8766 174.772 68.8993 178.37 69.2251 181.968Z" fill="#764ABC"/>
</svg>
