<svg width="256" height="256" viewBox="0 0 256 256" fill="none" xmlns="http://www.w3.org/2000/svg">
<g clip-path="url(#clip0_311_321)">
<path d="M219.827 142.373C210.921 142.42 203.18 144.571 196.699 147.751C194.32 143.028 191.942 138.819 191.523 135.733C191.056 132.132 190.497 129.934 191.056 125.632C191.616 121.33 194.134 115.204 194.087 114.736C194.041 114.269 193.528 112.071 188.398 112.024C183.269 111.977 178.839 113.006 178.326 114.362C177.813 115.718 176.834 118.805 176.181 121.985C175.295 126.661 165.923 143.355 160.56 152.1C158.835 148.686 157.343 145.693 157.016 143.309C156.55 139.708 155.99 137.51 156.55 133.208C157.11 128.906 159.628 122.78 159.581 122.312C159.534 121.844 159.021 119.646 153.892 119.6C148.763 119.553 144.333 120.582 143.82 121.938C143.307 123.294 142.747 126.474 141.675 129.56C140.602 132.647 128.152 160.517 124.888 167.719C123.209 171.413 121.764 174.359 120.738 176.37C120.738 176.37 120.691 176.51 120.551 176.744C119.665 178.474 119.152 179.41 119.152 179.41C119.152 179.41 119.152 179.41 119.152 179.456C118.453 180.719 117.707 181.888 117.334 181.888C117.054 181.888 116.541 178.521 117.427 173.938C119.292 164.258 123.722 149.201 123.676 148.686C123.676 148.406 124.515 145.787 120.785 144.431C117.147 143.075 115.842 145.319 115.515 145.319C115.189 145.319 114.956 146.114 114.956 146.114C114.956 146.114 119.013 129.186 107.215 129.186C99.8476 129.186 89.6822 137.276 84.6461 144.571C81.4752 146.301 74.7139 149.996 67.4862 153.971C64.735 155.514 61.8906 157.057 59.2326 158.507C59.0461 158.32 58.8596 158.086 58.6731 157.899C44.4042 142.607 18.0115 131.805 19.1306 111.276C19.5503 103.794 22.115 84.1532 69.8177 60.304C109.08 40.8973 140.323 46.2751 145.732 58.1997C153.472 75.2215 128.991 106.833 88.4231 111.416C72.9419 113.146 64.8283 107.161 62.7765 104.916C60.6315 102.578 60.3051 102.438 59.5124 102.905C58.2068 103.607 59.0461 105.711 59.5124 106.927C60.7248 110.107 65.7142 115.718 74.1543 118.477C81.6151 120.909 99.7543 122.265 121.717 113.754C146.291 104.215 165.503 77.6999 159.861 55.4874C154.218 32.9476 116.914 25.5123 81.6151 38.0915C60.6315 45.5736 37.876 57.3579 21.5088 72.6962C2.06396 90.9339 -1.01364 106.787 0.245377 113.427C4.76851 136.996 37.1765 152.334 50.1397 163.697C49.4869 164.071 48.8807 164.399 48.3678 164.679C41.8862 167.906 17.1722 180.859 11.017 194.561C4.02243 210.086 12.1361 221.216 17.4986 222.712C34.1456 227.342 51.2589 219.018 60.445 205.27C69.6312 191.521 68.512 173.658 64.2687 165.474C64.2221 165.381 64.1754 165.287 64.0822 165.194C65.7609 164.212 67.4862 163.183 69.1649 162.201C72.4756 160.237 75.7397 158.413 78.5375 156.917C76.9521 161.266 75.7864 166.456 75.2268 173.938C74.5273 182.73 78.1179 194.14 82.8275 198.629C84.9259 200.593 87.3973 200.64 88.9827 200.64C94.4851 200.64 96.9565 196.057 99.7077 190.633C103.065 183.992 106.096 176.277 106.096 176.277C106.096 176.277 102.319 197.133 112.578 197.133C116.308 197.133 120.085 192.27 121.764 189.791V189.838C121.764 189.838 121.857 189.698 122.044 189.37C122.417 188.762 122.65 188.388 122.65 188.388V188.295C124.142 185.676 127.499 179.737 132.489 169.87C138.924 157.15 145.126 141.251 145.126 141.251C145.126 141.251 145.685 145.132 147.597 151.586C148.716 155.373 151.048 159.535 152.913 163.557C151.421 165.661 150.488 166.83 150.488 166.83C150.488 166.83 150.488 166.83 150.535 166.877C149.322 168.467 148.017 170.197 146.571 171.881C141.488 177.96 135.426 184.928 134.587 186.939C133.608 189.323 133.841 191.054 135.706 192.457C137.058 193.485 139.483 193.626 141.955 193.485C146.524 193.158 149.742 192.036 151.327 191.334C153.799 190.446 156.69 189.09 159.394 187.079C164.384 183.385 167.415 178.1 167.135 171.133C166.995 167.298 165.736 163.463 164.197 159.863C164.664 159.208 165.083 158.553 165.55 157.899C173.43 146.348 179.539 133.675 179.539 133.675C179.539 133.675 180.098 137.557 182.01 144.01C182.943 147.283 184.854 150.837 186.533 154.298C179.119 160.33 174.549 167.345 172.917 171.928C169.979 180.438 172.264 184.273 176.601 185.162C178.559 185.582 181.357 184.647 183.409 183.759C186.02 182.917 189.098 181.467 192.036 179.316C197.025 175.622 201.828 170.478 201.548 163.51C201.408 160.33 200.569 157.197 199.403 154.158C205.698 151.539 213.812 150.089 224.164 151.305C246.36 153.924 250.743 167.812 249.904 173.658C249.064 179.503 244.401 182.683 242.863 183.665C241.324 184.647 240.811 184.974 240.951 185.676C241.137 186.705 241.883 186.658 243.189 186.471C245.007 186.144 254.846 181.748 255.266 170.992C255.966 157.244 242.909 142.233 219.827 142.373ZM48.6009 200.266C41.2334 208.309 30.9747 211.349 26.5448 208.777C21.7885 206.018 23.6538 194.14 32.7 185.629C38.2024 180.438 45.2902 175.622 49.9998 172.676C51.0723 172.021 52.6578 171.086 54.5696 169.917C54.896 169.73 55.0825 169.636 55.0825 169.636C55.4556 169.402 55.8286 169.169 56.2017 168.935C59.5124 181.093 56.3416 191.802 48.6009 200.266ZM102.226 163.697C99.661 169.964 94.2986 186.003 91.0344 185.115C88.2366 184.367 86.5113 172.208 90.4749 160.19C92.48 154.158 96.7233 146.956 99.1947 144.15C103.205 139.661 107.635 138.165 108.707 139.988C110.06 142.373 103.811 159.769 102.226 163.697ZM146.478 184.928C145.405 185.489 144.379 185.863 143.913 185.582C143.587 185.395 144.379 184.647 144.379 184.647C144.379 184.647 149.928 178.661 152.12 175.949C153.379 174.359 154.871 172.489 156.457 170.384V170.992C156.457 178.147 149.555 182.964 146.478 184.928ZM180.611 177.118C179.818 176.557 179.958 174.687 182.616 168.841C183.642 166.55 186.067 162.715 190.217 159.021C190.683 160.517 191.01 161.967 190.963 163.323C190.916 172.348 184.481 175.715 180.611 177.118Z" fill="#CD6799"/>
</g>
<defs>
<clipPath id="clip0_311_321">
<rect width="256" height="256" fill="white"/>
</clipPath>
</defs>
</svg>
