<svg width="256" height="256" viewBox="0 0 256 256" fill="none" xmlns="http://www.w3.org/2000/svg">
<path d="M128 12L55.855 19.6391L0 94.7275L128 244L256 94.7275L200.146 19.6391L128 12Z" fill="#FDB300"/>
<path d="M0 94.7283L128 244L51.846 94.7283H0Z" fill="#EB6C00"/>
<path d="M204.153 94.7283L128 244L255.999 94.7283H204.153Z" fill="#EB6C00"/>
<path d="M51.8462 94.7283L128 244L204.154 94.7283H51.8462Z" fill="#FDAD00"/>
<path d="M55.8547 19.6394L51.8457 94.7278L128 12.0002L55.8547 19.6394Z" fill="#FDD231"/>
<path d="M204.153 94.728L200.145 19.6386L128 12.0005L204.153 94.728Z" fill="#FDD231"/>
<path d="M204.154 94.7283H255.999L200.145 19.6389L204.154 94.7283Z" fill="#FDAD00"/>
<path d="M0 94.7283H51.846L55.855 19.6389L0 94.7283Z" fill="#FDAD00"/>
<path d="M128 12.0002L51.8457 94.7278H204.154L128 12.0002Z" fill="#FEEEB7"/>
</svg>
