<svg width="256" height="256" viewBox="0 0 256 256" fill="none" xmlns="http://www.w3.org/2000/svg">
<path d="M33.6186 235.395L25.6895 24.5352C25.4276 17.5714 30.7778 11.6696 37.7467 11.2349L217.451 0.025448C224.544 -0.417025 230.654 4.9634 231.097 12.043C231.114 12.3097 231.122 12.5769 231.122 12.8441V242.613C231.122 249.706 225.361 255.457 218.253 255.457C218.061 255.457 217.868 255.452 217.676 255.444L45.9011 247.744C39.2112 247.444 33.8698 242.074 33.6186 235.395Z" fill="#FF4785"/>
<mask id="mask0_311_61" style="mask-type:luminance" maskUnits="userSpaceOnUse" x="25" y="0" width="207" height="256">
<path d="M33.6186 235.395L25.6895 24.5352C25.4276 17.5714 30.7778 11.6696 37.7467 11.2349L217.451 0.025448C224.544 -0.417025 230.654 4.9634 231.097 12.043C231.114 12.3097 231.122 12.5769 231.122 12.8441V242.613C231.122 249.706 225.361 255.457 218.253 255.457C218.061 255.457 217.868 255.452 217.676 255.444L45.9011 247.744C39.2112 247.444 33.8698 242.074 33.6186 235.395Z" fill="white"/>
</mask>
<g mask="url(#mask0_311_61)">
<path d="M177.384 31.3997L178.611 1.93524L203.29 0L204.353 30.3857C204.39 31.4432 203.561 32.3304 202.502 32.3673C202.048 32.3831 201.603 32.2379 201.247 31.9576L191.73 24.4752L180.462 33.0057C179.617 33.6452 178.413 33.4802 177.772 32.6372C177.503 32.2823 177.365 31.8447 177.384 31.3997ZM145.822 96.2851C145.822 101.282 179.547 98.8872 184.074 95.3772C184.074 61.3491 165.78 43.4679 132.279 43.4679C98.7787 43.4679 80.009 61.6273 80.009 88.8665C80.009 136.308 144.159 137.216 144.159 163.093C144.159 170.357 140.595 174.67 132.754 174.67C122.538 174.67 118.499 169.462 118.974 151.757C118.974 147.916 80.009 146.718 78.821 151.757C75.796 194.663 102.58 207.039 133.23 207.039C162.929 207.039 186.213 191.24 186.213 162.639C186.213 111.793 121.112 113.155 121.112 87.9585C121.112 77.7438 128.715 76.3819 133.23 76.3819C137.981 76.3819 146.535 77.2178 145.822 96.2851Z" fill="white"/>
</g>
</svg>
