<svg width="256" height="256" viewBox="0 0 256 256" fill="none" xmlns="http://www.w3.org/2000/svg">
<g clip-path="url(#clip0_416_27)">
<path d="M0 88.7466C0 46.911 0 25.9933 12.9966 12.9966C25.9933 0 46.911 0 88.7466 0H167.254C209.089 0 230.006 0 243.003 12.9966C256 25.9933 256 46.911 256 88.7466V167.254C256 209.089 256 230.006 243.003 243.003C230.006 256 209.089 256 167.254 256H88.7466C46.911 256 25.9933 256 12.9966 243.003C0 230.006 0 209.089 0 167.254V88.7466Z" fill="#4945FF"/>
<path d="M176.64 77.6533H90.4526V121.6H134.4V165.546H178.346V79.3601C178.346 78.4175 177.582 77.6533 176.64 77.6533Z" fill="white"/>
<path d="M134.399 121.6H132.692V123.307H134.399V121.6Z" fill="white"/>
<path d="M90.4526 121.6H132.692C133.636 121.6 134.4 122.364 134.4 123.306V165.546H92.1594C91.2168 165.546 90.4526 164.783 90.4526 163.84V121.6Z" fill="#9593FF"/>
<path d="M134.4 165.546H178.346L135.856 208.036C135.319 208.574 134.4 208.193 134.4 207.434V165.546Z" fill="#9593FF"/>
<path d="M90.4527 121.6H48.5662C47.806 121.6 47.4253 120.681 47.9628 120.143L90.4527 77.6533V121.6Z" fill="#9593FF"/>
</g>
<defs>
<clipPath id="clip0_416_27">
<rect width="256" height="256" fill="white"/>
</clipPath>
</defs>
</svg>
