<svg width="256" height="256" viewBox="0 0 256 256" fill="none" xmlns="http://www.w3.org/2000/svg">
<g clip-path="url(#clip0_359_19)">
<path d="M220.441 33.8717C196.669 -0.151348 149.72 -10.2359 115.773 11.3922L56.154 49.3892C39.8689 59.6343 28.6519 76.2644 25.2537 95.2013C22.4098 110.977 24.9094 127.251 32.357 141.445C27.2537 149.187 23.7731 157.882 22.1254 167.006C18.6944 186.307 23.1825 206.176 34.5767 222.128C58.3536 256.154 105.303 266.235 139.245 244.608L198.864 206.61C215.15 196.367 226.368 179.736 229.764 160.798C232.608 145.023 230.11 128.75 222.666 114.553C227.768 106.812 231.247 98.117 232.893 88.9933C236.327 69.6927 231.838 49.8228 220.442 33.8717" fill="#FF3E00"/>
<path d="M109.943 225.365C90.7203 230.363 70.4204 222.839 59.0995 206.519C52.244 196.924 49.5435 184.971 51.6077 173.361C51.9537 171.474 52.4299 169.613 53.0329 167.792L54.156 164.367L57.2113 166.611C64.2675 171.796 72.157 175.738 80.5398 178.267L82.7563 178.939L82.5521 181.151C82.2813 184.298 83.1334 187.439 84.9575 190.018C88.3644 194.934 94.4764 197.202 100.266 195.7C101.562 195.353 102.797 194.811 103.929 194.09L163.567 156.086C166.517 154.228 168.551 151.215 169.17 147.784C169.788 144.285 168.975 140.684 166.912 137.79C163.503 132.873 157.39 130.604 151.598 132.105C150.304 132.452 149.07 132.994 147.94 133.714L125.182 148.221C121.44 150.6 117.356 152.393 113.072 153.539C93.8494 158.537 73.5499 151.012 62.2291 134.693C55.3734 125.098 52.6728 113.145 54.7374 101.534C56.7811 90.1437 63.5292 80.141 73.3261 73.9805L132.959 35.9734C136.703 33.5902 140.79 31.7946 145.077 30.6491C164.3 25.6513 184.599 33.1757 195.92 49.4949C202.775 59.0902 205.476 71.0427 203.412 82.6533C203.064 84.5399 202.588 86.4005 201.987 88.2222L200.863 91.6468L197.81 89.4061C190.754 84.2186 182.864 80.275 174.48 77.7455L172.263 77.0729L172.467 74.8608C172.736 71.7141 171.884 68.5738 170.062 65.9942C166.655 61.0784 160.543 58.8099 154.754 60.3125C153.458 60.6589 152.222 61.2018 151.091 61.9223L91.4526 99.9278C88.5024 101.784 86.4702 104.797 85.8538 108.227C85.2318 111.727 86.0439 115.329 88.1073 118.223C91.5163 123.14 97.6297 125.409 103.421 123.908C104.717 123.561 105.952 123.018 107.084 122.298L129.839 107.796C133.579 105.414 137.663 103.619 141.947 102.474C161.17 97.4763 181.47 105.001 192.79 121.32C199.646 130.915 202.347 142.868 200.282 154.478C198.237 165.87 191.49 175.873 181.693 182.037L122.06 220.041C118.317 222.424 114.23 224.219 109.942 225.365" fill="white"/>
</g>
<defs>
<clipPath id="clip0_359_19">
<rect width="256" height="256" fill="white"/>
</clipPath>
</defs>
</svg>
