<svg width="256" height="256" viewBox="0 0 256 256" fill="none" xmlns="http://www.w3.org/2000/svg">
<rect width="256" height="256" rx="32" fill="#020917"/>
<path d="M27.0622 132.775C28.9202 132.859 30.5622 134.014 31.2762 135.737C31.9708 137.414 31.6653 139.335 30.4964 140.71L30.397 140.824L30.3461 140.881C30.0746 141.216 30.0915 141.707 30.397 142.022C31.6586 143.089 33.083 143.944 34.6149 144.556L34.9034 144.667L34.9708 144.687C35.3763 144.786 35.7959 144.576 35.96 144.19L35.9849 144.125L36.041 143.982C36.5075 142.85 37.3872 141.938 38.5032 141.433C39.6658 140.907 40.9891 140.866 42.1812 141.321C43.5 141.855 44.5151 142.948 44.9526 144.306C44.9811 144.378 45.0189 144.446 45.0653 144.509C33.2585 150.546 29.0225 148.647 20.2801 138.314C18.9987 136.756 17.9927 134.99 17.3059 133.091C20.5021 134.082 23.9365 133.97 27.0622 132.775ZM188.369 111.861C189.272 111.861 190.009 112.572 190.056 113.467L190.058 113.557V117.265H196.367V121.787H190.058V133.091C189.989 134.051 190.296 135.001 190.915 135.737C191.554 136.368 192.43 136.697 193.326 136.641C193.678 136.671 194.032 136.671 194.385 136.641C195.652 136.368 196.932 137.044 197.426 138.246L198.057 139.558C197.352 140.118 196.539 140.526 195.669 140.756C194.709 141.029 193.715 141.166 192.717 141.163C190.513 141.305 188.342 140.565 186.679 139.105C185.162 137.505 184.385 135.339 184.538 133.137V111.861H188.369ZM164.259 116.903C165.702 116.886 167.134 117.155 168.473 117.694C169.744 118.192 170.89 118.964 171.83 119.955V118.87C171.83 117.964 172.539 117.224 173.43 117.177L173.52 117.174L177.396 117.107V140.914H172.146V137.771C171.247 138.885 170.085 139.756 168.766 140.304C167.335 140.884 165.802 141.168 164.259 141.14C162.106 141.175 159.98 140.654 158.086 139.625C156.311 138.645 154.849 137.179 153.872 135.397C151.837 131.384 151.837 126.637 153.872 122.623C154.851 120.805 156.329 119.306 158.131 118.305C160.023 117.326 162.131 116.844 164.259 116.903ZM218.877 118.395C220.754 119.381 222.316 120.878 223.383 122.714C225.532 126.618 225.532 131.357 223.383 135.262C222.316 137.098 220.754 138.594 218.877 139.58C214.798 141.655 209.978 141.655 205.898 139.58C204.022 138.594 202.46 137.098 201.392 135.262C199.243 131.357 199.243 126.618 201.392 122.714C202.46 120.878 204.022 119.381 205.898 118.395C209.978 116.321 214.798 116.321 218.877 118.395ZM62.1445 114.823C65.7046 119.028 59.1027 133.996 50.6983 140.914C49.3517 139.344 49.1569 137.085 50.2146 135.306C51.2488 133.566 53.2539 132.666 55.2279 133.041L55.3624 133.069L55.4365 133.081C55.6347 133.104 55.8355 133.055 56.0017 132.941C56.1886 132.813 56.3157 132.614 56.3538 132.39C56.5921 130.867 56.607 129.316 56.3985 127.789L56.3538 127.484L56.3331 127.418C56.1864 127.005 55.7483 126.765 55.3173 126.874C53.2854 127.249 51.2424 126.277 50.2456 124.461C49.2715 122.686 49.5102 120.495 50.8298 118.975L50.9236 118.87L50.9745 118.813C51.246 118.478 51.229 117.987 50.9236 117.672C49.6622 116.604 48.2378 115.749 46.7057 115.138L46.4172 115.026L46.3498 115.007C45.9217 114.902 45.478 115.142 45.3357 115.569C45.0918 116.269 44.691 116.903 44.164 117.423C43.0596 118.508 41.5004 118.989 39.9792 118.715C38.458 118.442 37.1629 117.446 36.5031 116.044C36.265 114.518 35.7938 113.039 35.1062 111.658C38.531 111.002 58.4718 110.301 62.1445 114.823ZM244 116.835V122.103C243.577 122.019 243.147 121.973 242.716 121.968C240.855 121.871 239.037 122.55 237.691 123.844C236.388 125.347 235.732 127.306 235.866 129.293V140.914H230.323V117.107H233.906C234.809 117.107 235.547 117.818 235.593 118.712L235.596 118.802V120.566C237.532 117.906 240.736 116.484 244 116.835ZM159.888 123.595C157.255 126.696 157.255 131.256 159.888 134.357C161.203 135.717 163.025 136.463 164.913 136.415C166.805 136.476 168.636 135.738 169.96 134.38V134.357C172.621 131.267 172.621 126.686 169.96 123.595C167.154 120.864 162.694 120.864 159.888 123.595ZM207.341 123.528C204.708 126.629 204.708 131.189 207.341 134.29C208.655 135.65 210.477 136.396 212.365 136.347C214.254 136.414 216.084 135.684 217.412 134.335V134.29C220.074 131.199 220.074 126.618 217.412 123.528C214.607 120.797 210.146 120.797 207.341 123.528ZM40.649 125.314C43.1627 125.314 45.2005 127.358 45.2005 129.881C45.2005 132.403 43.1627 134.448 40.649 134.448C38.1353 134.448 36.0976 132.403 36.0976 129.881C36.0976 127.358 38.1353 125.314 40.649 125.314Z" fill="#DDF5FF"/>
<path d="M24.0858 108.519C24.0422 107.689 23.3703 107.024 22.5333 107H20.8659L20.7782 107.002C19.9355 107.048 19.2662 107.748 19.2662 108.605V110.866L19.2641 110.967C19.2366 111.504 18.9427 111.993 18.4776 112.268L17.6664 112.743L17.5779 112.79C17.1001 113.029 16.5325 113.013 16.0666 112.743L14.2866 111.522L14.1991 111.471C13.8438 111.277 13.4273 111.225 13.0336 111.328C12.6399 111.431 12.3013 111.68 12.0849 112.022L12.0334 112.11L11.2673 113.602L11.2162 113.69C11.0234 114.046 10.9717 114.464 11.074 114.859C11.1764 115.254 11.4244 115.594 11.7659 115.811L11.8532 115.863L13.6106 116.925L13.6931 116.98C14.1224 117.28 14.3797 117.775 14.3767 118.305V119.209L14.3721 119.307C14.3315 119.828 14.0403 120.299 13.5881 120.566L11.8306 121.628L11.7433 121.68C11.4019 121.897 11.1538 122.237 11.0515 122.632C10.9491 123.027 11.0008 123.445 11.1937 123.801L11.2448 123.889L12.0785 125.336L12.13 125.424C12.3464 125.766 12.685 126.015 13.0787 126.118C13.4723 126.221 13.8889 126.169 14.2442 125.975L14.3317 125.924L16.0892 124.861L16.1777 124.814C16.6555 124.576 17.2231 124.591 17.6889 124.861L18.5001 125.336L18.5853 125.39C19.0286 125.691 19.2948 126.196 19.2887 126.738V128.569L19.2911 128.657C19.3366 129.503 20.0344 130.175 20.8885 130.175H22.5333L22.6211 130.172C23.4347 130.128 24.0867 129.474 24.1307 128.657L24.1331 128.569V126.693L24.1351 126.592C24.1627 126.055 24.4565 125.565 24.9217 125.291L25.7328 124.816L25.8213 124.769C26.2992 124.53 26.8668 124.546 27.3326 124.816L29.0676 125.901L29.1551 125.953C29.5104 126.146 29.9269 126.198 30.3206 126.095C30.7143 125.993 31.0529 125.744 31.2693 125.401L31.3208 125.314L32.1545 123.867L32.2065 123.78C32.4031 123.428 32.4613 123.014 32.367 122.62C32.2648 122.193 31.9925 121.826 31.6137 121.606L31.5912 121.628L29.8337 120.566L29.75 120.511C29.3148 120.205 29.0571 119.701 29.0676 119.164V118.305L29.0696 118.204C29.0972 117.667 29.391 117.177 29.8562 116.903L31.6137 115.84L31.701 115.789C32.0424 115.571 32.2905 115.232 32.3928 114.837C32.4952 114.442 32.4435 114.024 32.2507 113.667L32.1995 113.579L31.3208 112.132L31.2701 112.044C31.0571 111.698 30.7199 111.444 30.3259 111.337C29.9319 111.231 29.5135 111.279 29.1557 111.471L29.0676 111.522L27.2876 112.585L27.1991 112.632C26.7212 112.87 26.1536 112.854 25.6878 112.585L24.8766 112.11L24.7914 112.056C24.3481 111.755 24.0819 111.249 24.088 110.708V108.605L24.0858 108.519Z" fill="#3CFFFC"/>
<path d="M18.5403 119.988C18.0065 118.713 18.292 117.241 19.2633 116.26C20.2346 115.279 21.6997 114.983 22.9738 115.51C24.2094 116.021 25.0286 117.208 25.0771 118.541L25.0794 118.666L25.0769 118.778C25.0075 120.566 23.5704 121.998 21.7889 122.056L21.6771 122.058L21.6996 122.08L21.5747 122.079C20.2465 122.039 19.0578 121.225 18.5403 119.988Z" fill="#020917"/>
<path d="M138.213 117.717C136.725 117.142 135.142 116.858 133.549 116.881C131.435 116.852 129.347 117.341 127.465 118.305C125.702 119.18 124.212 120.525 123.161 122.194C122.094 123.998 121.548 126.065 121.584 128.163C121.543 130.268 122.09 132.343 123.161 134.154C124.191 135.885 125.681 137.295 127.465 138.224C129.343 139.202 131.433 139.7 133.549 139.671C135.087 139.695 136.616 139.426 138.055 138.879C139.363 138.403 140.543 137.629 141.502 136.619V137.907C141.658 139.89 140.999 141.851 139.677 143.333C138.071 144.647 136.018 145.28 133.954 145.097C132.323 145.09 130.703 144.823 129.155 144.306C128.27 144.018 127.416 143.639 126.609 143.175L126.528 143.129C125.768 142.722 124.814 142.973 124.356 143.718L122.756 146.408C124.247 147.586 125.966 148.44 127.803 148.918C129.909 149.502 132.085 149.791 134.27 149.777C142.772 149.777 147.023 145.602 147.023 137.252V117.107H143.418C142.484 117.107 141.728 117.866 141.728 118.802V120.272C140.793 119.133 139.583 118.253 138.213 117.717Z" fill="#3CFFFC"/>
<path d="M88.6424 117.333C87.0462 116.963 85.4137 116.773 83.7755 116.768C81.0943 116.63 78.4379 117.342 76.1822 118.802C74.3837 120.001 73.3212 122.04 73.3657 124.206C73.2779 125.673 73.7628 127.116 74.7176 128.23C75.5746 129.173 76.662 129.874 77.8721 130.265C79.4357 130.739 81.0324 131.094 82.6489 131.328C84.0271 131.507 85.3851 131.817 86.7046 132.255C87.4703 132.48 87.9885 133.195 87.9664 133.996C87.9664 135.744 86.3141 136.619 83.0094 136.619C81.4848 136.625 79.9671 136.412 78.503 135.985C77.8979 135.809 77.3035 135.598 76.723 135.352C75.5209 134.873 74.153 135.393 73.5685 136.551L72.5996 138.472C73.9446 139.359 75.4305 140.009 76.9933 140.394C78.8478 140.924 80.7657 141.198 82.6939 141.208C85.4511 141.357 88.1875 140.654 90.5351 139.196C92.3584 138.044 93.4515 136.022 93.4191 133.86C93.5113 132.435 93.042 131.03 92.1123 129.949C91.2454 129.039 90.1588 128.369 88.9578 128.004C87.4387 127.536 85.8873 127.181 84.3162 126.942C82.8793 126.733 81.4675 126.377 80.1028 125.879C79.2768 125.625 78.7229 124.846 78.7508 123.98C78.7908 123.156 79.2743 122.42 80.0126 122.058C81.161 121.498 82.4329 121.241 83.7079 121.312C85.3446 121.3 86.9702 121.584 88.5072 122.149C89.7015 122.58 91.0287 122.046 91.5941 120.905L92.6531 118.87C91.4052 118.149 90.0516 117.63 88.6424 117.333Z" fill="#3CFFFC"/>
<path d="M120.75 117.129L117.258 117.107C116.145 117.096 115.133 117.755 114.689 118.78L114.239 119.842L105.226 140.914H108.2L108.329 140.911C109.746 140.849 111.006 139.973 111.557 138.653L120.75 117.129Z" fill="#3CFFFC"/>
<path d="M101.125 118.699C100.673 117.715 99.6883 117.081 98.6015 117.084H94.7035L103.897 137.817L106.645 131.418L101.17 118.802L101.125 118.699Z" fill="#3CFFFC"/>
<path d="M127.104 128.253C127.045 126.425 127.776 124.661 129.11 123.415C132.121 120.929 136.464 120.929 139.475 123.415C140.816 124.657 141.556 126.422 141.502 128.253C141.567 130.106 140.827 131.896 139.475 133.159C136.473 135.672 132.111 135.672 129.11 133.159C127.766 131.892 127.034 130.102 127.104 128.253Z" fill="#020917"/>
</svg>
