<svg width="256" height="256" viewBox="0 0 256 256" fill="none" xmlns="http://www.w3.org/2000/svg">
<path d="M128 51C93.8667 51 72.5333 68.1111 64 102.333C76.8 85.2222 91.7333 78.8056 108.8 83.0833C118.537 85.524 125.497 92.6066 133.201 100.447C145.751 113.218 160.275 128 192 128C226.133 128 247.467 110.889 256 76.6667C243.2 93.7778 228.267 100.194 211.2 95.9167C201.463 93.476 194.503 86.3934 186.799 78.5532C174.249 65.7816 159.725 51 128 51ZM64 128C29.8667 128 8.53333 145.111 0 179.333C12.8 162.222 27.7333 155.806 44.8 160.083C54.5375 162.524 61.4974 169.607 69.2011 177.447C81.7508 190.218 96.2754 205 128 205C162.133 205 183.467 187.889 192 153.667C179.2 170.778 164.267 177.194 147.2 172.917C137.463 170.476 130.503 163.393 122.799 155.553C110.249 142.782 95.7246 128 64 128Z" fill="url(#paint0_linear_311_68)"/>
<defs>
<linearGradient id="paint0_linear_311_68" x1="-711.111" y1="4979" x2="21427.3" y2="17710.4" gradientUnits="userSpaceOnUse">
<stop stop-color="#2298BD"/>
<stop offset="1" stop-color="#0ED7B5"/>
</linearGradient>
</defs>
</svg>
