<svg width="256" height="256" viewBox="0 0 256 256" fill="none" xmlns="http://www.w3.org/2000/svg">
<g clip-path="url(#clip0_340_13)">
<path fill-rule="evenodd" clip-rule="evenodd" d="M70.0367 152.041L89.5548 84.4404H167.628L187.147 152.041H70.0367Z" fill="#EED9C3"/>
<path d="M153.628 124.166C156.674 124.166 159.143 121.73 159.143 118.726C159.143 115.721 156.674 113.285 153.628 113.285C150.581 113.285 148.112 115.721 148.112 118.726C148.112 121.73 150.581 124.166 153.628 124.166Z" fill="#353535"/>
<path fill-rule="evenodd" clip-rule="evenodd" d="M117.124 112.54C117.124 110.64 115.562 109.1 113.637 109.1C109.21 109.1 101.617 109.1 97.1901 109.1C95.2648 109.1 93.7025 110.64 93.7025 112.54C93.7025 115.501 93.7025 119.817 93.7025 123.192C93.7025 126.041 96.0449 128.352 98.9328 128.352C100.724 128.352 102.811 128.352 104.919 128.352C108.156 128.352 111.26 127.083 113.55 124.825C115.839 122.569 117.124 119.506 117.124 116.314C117.124 114.945 117.124 113.647 117.124 112.54Z" fill="#A78347"/>
<path fill-rule="evenodd" clip-rule="evenodd" d="M185.213 19.8332L223.96 0L202.723 78.7937L185.213 96.3034L185.213 19.8332Z" fill="#E3B261"/>
<path fill-rule="evenodd" clip-rule="evenodd" d="M70.7465 19.8332L32 0L53.2372 78.7937L70.7472 96.3034L70.7465 19.8332Z" fill="#E3B261"/>
<path fill-rule="evenodd" clip-rule="evenodd" d="M187.147 55.7843C187.147 55.7843 157.869 36.5332 128.592 36.5332C99.314 36.5332 70.0367 55.7843 70.0367 55.7843V113.538L77.8441 128.939C83.446 107.653 108.8 98.786 126.448 111.941L128.592 113.538L130.735 111.941C148.383 98.786 173.737 107.653 179.339 128.939L187.147 113.538V55.7843Z" fill="#E3B261"/>
<path fill-rule="evenodd" clip-rule="evenodd" d="M109.073 142.416L93.4586 232.897L71.928 217.496L89.5548 152.042L109.073 142.416Z" fill="#D4D4D4"/>
<path fill-rule="evenodd" clip-rule="evenodd" d="M148.11 142.416L163.725 232.897L185.255 217.496L167.628 152.042L148.11 142.416Z" fill="#D5D5D5"/>
<path fill-rule="evenodd" clip-rule="evenodd" d="M70.0367 113.54L54.4221 171.294L73.9404 209.796L89.5548 152.042L70.0367 113.54Z" fill="#E6E6E6"/>
<path fill-rule="evenodd" clip-rule="evenodd" d="M187.146 113.54L202.761 171.294L183.243 209.796L167.628 152.042L187.146 113.54Z" fill="#E6E6E6"/>
<path fill-rule="evenodd" clip-rule="evenodd" d="M109.073 142.417L91.5068 236.749L128.591 256L165.676 236.749L148.11 142.417L130.047 133.51L128.591 132.792L109.073 142.417Z" fill="#E6E6E6"/>
<path fill-rule="evenodd" clip-rule="evenodd" d="M135.587 146.266H121.924C121.924 146.266 121.924 148.547 121.924 151.082C121.924 152.869 122.644 154.58 123.925 155.843C125.205 157.106 126.94 157.816 128.752 157.816H128.759C130.571 157.816 132.306 157.106 133.586 155.843C134.867 154.58 135.587 152.869 135.587 151.082C135.587 148.547 135.587 146.266 135.587 146.266Z" fill="#353535"/>
</g>
<defs>
<clipPath id="clip0_340_13">
<rect width="256" height="256" fill="white"/>
</clipPath>
</defs>
</svg>
