<svg width="256" height="256" viewBox="0 0 256 256" fill="none" xmlns="http://www.w3.org/2000/svg">
<path d="M1.08608 3.54339C0.559299 1.41081 2.53721 -0.493035 4.64815 0.114715L66.1567 17.8232C66.7073 17.8213 67.2518 17.9781 67.7171 18.2727L189.025 53.1978C189.528 53.2082 190.023 53.3506 190.455 53.609L251.968 71.3196C254.081 71.928 254.742 74.5968 253.157 76.1214L67.5327 254.678C65.9483 256.202 63.3083 255.439 62.7811 253.304L31.9895 128.651C31.9483 128.523 31.916 128.392 31.8928 128.26L1.08608 3.54339ZM53.7745 193.033L67.1379 247.132L107.38 208.421L53.7745 193.033ZM95.2264 150.25L56.2646 187.806L108.168 202.706L95.2264 150.25ZM101.01 149.849L113.911 202.139L152.766 164.763L101.01 149.849ZM38.6705 131.885L51.6277 184.344L90.5437 146.833L38.6705 131.885ZM141.173 105.912L101.586 144.071L154.342 159.273L141.173 105.912ZM146.72 104.555L159.888 157.913L199.584 119.73L146.72 104.555ZM79.9221 88.2053L40.2501 126.398L93.1017 141.626L79.9221 88.2053ZM85.4481 86.7647L98.3901 139.22L137.352 101.664L85.4481 86.7647ZM23.1247 68.951L36.2964 122.277L75.9398 84.1123L23.1247 68.951ZM187.391 61.5473L148.429 99.1029L200.333 114.004L187.391 61.5473ZM192.959 60.2727L206.086 113.475L245.63 75.4374L192.959 60.2727ZM125.886 43.9581L87.099 81.2973L138.759 96.1265L125.886 43.9581ZM131.422 42.5553L144.382 95.0739L183.355 57.5071L131.422 42.5553ZM64.5923 26.1733L25.6305 63.7289L77.5344 78.6297L64.5923 26.1733ZM70.1655 24.919L83.0752 77.2428L121.943 39.8263L70.1655 24.919ZM7.8143 6.96798L20.9828 60.2786L60.5412 22.1484L7.8143 6.96798Z" fill="black"/>
</svg>
