<svg width="256" height="256" viewBox="0 0 256 256" fill="none" xmlns="http://www.w3.org/2000/svg">
<path fill-rule="evenodd" clip-rule="evenodd" d="M256 129.909C256 153.731 236.694 173.041 212.881 173.041H43.1188C19.3055 173.041 0 153.731 0 129.909V126.129C0 102.31 19.3055 83 43.1188 83H212.881C236.694 83 256 102.31 256 126.129V129.909Z" fill="#3F444F"/>
<path fill-rule="evenodd" clip-rule="evenodd" d="M152.691 87.8604H146.276H49.4387H43.0228C21.8916 87.8604 4.9416 105.208 4.9416 126.343V129.695C4.9416 150.834 21.8916 168.055 43.0228 168.055H152.691C173.822 168.055 190.865 150.834 190.865 129.695V126.343C190.865 105.208 173.822 87.8604 152.691 87.8604Z" fill="white"/>
<path fill-rule="evenodd" clip-rule="evenodd" d="M41.6749 136.802V133.295C41.7108 131.797 42.3684 131.048 43.6473 131.048C44.9251 131.048 45.565 131.889 45.565 133.569C45.565 137.551 45.0564 140.329 44.0412 141.898C42.6631 144.018 40.3951 145.077 37.2398 145.077C34.3378 145.077 32.2696 144.146 31.037 142.283C30.1295 140.931 29.6765 138.63 29.6765 135.378V122.225C29.6765 121.458 29.3214 121.075 28.6116 121.075H26.8193C26.2217 121.075 25.7259 120.883 25.3339 120.499C24.9419 120.115 24.7461 119.65 24.7461 119.101C24.7461 118.59 24.9374 118.134 25.3211 117.732C25.7047 117.33 26.1336 117.129 26.6088 117.129H28.7454C29.3661 117.129 29.6765 116.782 29.6765 116.088V110.443C29.6765 109.055 30.3887 108.361 31.8136 108.361C33.1284 108.361 33.7855 109.055 33.7855 110.443V116.307C33.7855 116.854 34.1145 117.129 34.7717 117.129H40.7433C42.1314 117.129 42.8254 117.768 42.8254 119.047C42.8254 120.399 42.0763 121.075 40.579 121.075H34.5528C34.0408 121.075 33.7855 121.458 33.7855 122.225V135.706C33.7855 139.542 35.0628 141.461 37.619 141.461C40.2111 141.461 41.5638 139.908 41.6749 136.802Z" fill="#5C6C7D"/>
<path fill-rule="evenodd" clip-rule="evenodd" d="M54.3854 114.114C53.5448 114.114 52.8242 113.813 52.2212 113.21C51.6187 112.608 51.3172 111.886 51.3172 111.045C51.3172 110.206 51.6187 109.493 52.2212 108.908C52.8242 108.324 53.5448 108.031 54.3854 108.031C55.2255 108.031 55.9465 108.324 56.5496 108.908C57.1521 109.493 57.4536 110.206 57.4536 111.045C57.4536 111.886 57.1521 112.608 56.5496 113.21C55.9465 113.813 55.2255 114.114 54.3854 114.114ZM57.2342 128.473V135.597C57.2342 137.424 57.2524 138.501 57.2888 138.83C57.4713 140.474 57.9646 141.296 58.7683 141.296C58.9508 141.296 59.4068 141.205 60.1382 141.022C60.3202 140.949 60.5946 140.912 60.9601 140.912C62.3471 140.912 63.0416 141.515 63.0416 142.721C63.0416 143.233 62.8124 143.671 62.3545 144.036C61.8966 144.401 61.3196 144.584 60.6226 144.584C60.0363 144.584 59.1476 144.502 57.9568 144.338C56.765 144.173 55.8767 144.091 55.2904 144.091C54.3367 144.091 53.2743 144.165 52.1012 144.31C50.6718 144.493 49.7191 144.584 49.243 144.584C47.7766 144.584 47.0437 143.963 47.0437 142.721C47.0437 141.515 47.6703 140.912 48.9236 140.912C49.2184 140.912 49.6507 140.967 50.2223 141.077C50.7933 141.186 51.2267 141.242 51.5218 141.242C52.4061 141.242 52.9403 140.073 53.1252 137.734V123.704C52.9403 121.403 52.3879 120.252 51.4672 120.252C51.1716 120.252 50.7569 120.316 50.2223 120.444C49.6881 120.572 49.2922 120.636 49.0342 120.636C47.7072 120.636 47.0437 120.052 47.0437 118.882C47.0437 117.64 47.8469 117.019 49.4545 117.019C50.148 117.019 50.6408 117.037 50.9335 117.074C52.1022 117.22 52.8513 117.293 53.1798 117.293C53.472 117.293 53.9196 117.247 54.5221 117.156C55.1251 117.065 55.5717 117.019 55.8644 117.019C56.9234 117.019 57.4536 117.732 57.4536 119.156C57.4536 119.303 57.4388 119.521 57.4098 119.814C57.3808 120.107 57.366 120.326 57.366 120.471C57.336 120.764 57.307 121.896 57.278 123.869C57.249 125.368 57.2342 126.902 57.2342 128.473Z" fill="#5C6C7D"/>
<path fill-rule="evenodd" clip-rule="evenodd" d="M73.7248 118.637V120.197C75.9165 117.421 78.8382 116.033 82.4907 116.033C84.4631 116.033 86.3257 116.536 88.0792 117.54C89.8322 118.545 91.0186 119.795 91.6403 121.294C92.1513 122.536 92.4071 124.162 92.4071 126.171V136.583C92.4071 138.155 92.4253 139.086 92.4622 139.378C92.6442 140.62 93.1375 141.241 93.9412 141.241C94.2703 141.241 94.6987 141.196 95.2289 141.104C95.7576 141.013 96.1329 140.967 96.3518 140.967C96.826 140.967 97.2372 141.132 97.5844 141.461C97.9312 141.789 98.1048 142.192 98.1048 142.666C98.1048 143.214 97.8859 143.671 97.4477 144.036C97.0094 144.401 96.4792 144.584 95.8585 144.584C95.3469 144.584 94.5068 144.511 93.3387 144.365C92.1695 144.219 91.0732 144.146 90.0511 144.146C89.1013 144.146 88.3163 144.182 87.6956 144.255C85.8688 144.475 84.9013 144.584 84.7916 144.584C83.3303 144.584 82.6004 143.945 82.6004 142.666C82.6004 141.534 83.2329 140.967 84.5 140.967C84.798 140.967 85.1325 141.004 85.5048 141.076C86.2121 141.223 86.6587 141.296 86.8456 141.296C87.7393 141.296 88.2228 140.292 88.2981 138.282V127.979C88.2981 126.044 88.2066 124.71 88.0251 123.978C87.697 122.591 86.9873 121.513 85.8968 120.745C84.6957 119.905 83.3313 119.486 81.8041 119.486C78.8928 119.486 76.8004 120.526 75.528 122.609C74.6544 124.033 74.2176 126.463 74.2176 129.897V137.186C74.2176 138.794 74.3278 139.89 74.5467 140.474C74.7661 141.059 75.1674 141.351 75.7522 141.351C76.0439 141.351 76.4453 141.288 76.9573 141.159C77.4683 141.032 77.8884 140.967 78.2174 140.967C79.3492 140.967 79.9158 141.58 79.9158 142.803C79.9158 143.991 79.1849 144.584 77.7241 144.584C77.4314 144.584 76.4822 144.475 74.8753 144.255C74.0716 144.146 73.1769 144.091 72.1907 144.091C71.4239 144.091 70.4008 144.165 69.123 144.31C67.5151 144.493 66.6027 144.584 66.3833 144.584C64.8497 144.584 64.0824 143.963 64.0824 142.721C64.0824 141.552 64.677 140.967 65.8678 140.967C66.0538 140.967 66.3981 141.022 66.9002 141.132C67.4024 141.241 67.8953 141.296 68.3788 141.296C69.4953 141.296 70.0713 140.237 70.1086 138.118V123.485C70.0344 122.244 69.876 121.394 69.635 120.937C69.3925 120.481 68.9739 120.252 68.3788 120.252C68.1186 120.252 67.7369 120.298 67.2352 120.39C66.7325 120.481 66.3518 120.526 66.0916 120.526C64.7518 120.526 64.0824 119.942 64.0824 118.773C64.0824 117.567 64.9043 116.965 66.5476 116.965C66.767 116.965 66.9494 116.983 67.0955 117.019L69.123 117.238C69.7068 117.238 70.2183 117.192 70.6566 117.101C71.6059 117.01 72.0992 116.965 72.1361 116.965C73.1951 116.965 73.7248 117.521 73.7248 118.637Z" fill="#5C6C7D"/>
<path fill-rule="evenodd" clip-rule="evenodd" d="M106.268 114.114C105.427 114.114 104.707 113.813 104.104 113.21C103.501 112.608 103.199 111.886 103.199 111.045C103.199 110.206 103.501 109.493 104.104 108.908C104.707 108.324 105.427 108.031 106.268 108.031C107.108 108.031 107.829 108.324 108.432 108.908C109.034 109.493 109.336 110.206 109.336 111.045C109.336 111.886 109.034 112.608 108.432 113.21C107.829 113.813 107.108 114.114 106.268 114.114ZM109.117 128.473V135.597C109.117 137.424 109.135 138.501 109.171 138.83C109.354 140.474 109.847 141.296 110.651 141.296C110.833 141.296 111.289 141.205 112.02 141.022C112.202 140.949 112.477 140.912 112.842 140.912C114.229 140.912 114.924 141.515 114.924 142.721C114.924 143.233 114.695 143.671 114.237 144.036C113.779 144.401 113.202 144.584 112.505 144.584C111.919 144.584 111.03 144.502 109.839 144.338C108.647 144.173 107.759 144.091 107.173 144.091C106.219 144.091 105.157 144.165 103.984 144.31C102.554 144.493 101.601 144.584 101.125 144.584C99.6591 144.584 98.9262 143.963 98.9262 142.721C98.9262 141.515 99.5528 140.912 100.806 140.912C101.101 140.912 101.533 140.967 102.105 141.077C102.676 141.186 103.109 141.242 103.404 141.242C104.288 141.242 104.823 140.073 105.008 137.734V123.704C104.823 121.403 104.27 120.252 103.349 120.252C103.054 120.252 102.639 120.316 102.105 120.444C101.57 120.572 101.174 120.636 100.917 120.636C99.5897 120.636 98.9262 120.052 98.9262 118.882C98.9262 117.64 99.7294 117.019 101.337 117.019C102.03 117.019 102.523 117.037 102.816 117.074C103.984 117.22 104.734 117.293 105.062 117.293C105.354 117.293 105.802 117.247 106.404 117.156C107.007 117.065 107.454 117.019 107.747 117.019C108.806 117.019 109.336 117.732 109.336 119.156C109.336 119.303 109.321 119.521 109.292 119.814C109.263 120.107 109.248 120.326 109.248 120.471C109.218 120.764 109.189 121.896 109.16 123.869C109.131 125.368 109.117 126.902 109.117 128.473Z" fill="#5C6C7D"/>
<path fill-rule="evenodd" clip-rule="evenodd" d="M133.442 111.978C133.442 111.467 133.624 111.01 133.989 110.608C133.368 110.023 132.455 109.731 131.251 109.731C129.68 109.731 128.447 110.233 127.552 111.238C126.657 112.243 126.21 113.64 126.21 115.43V116.416C126.21 116.892 126.447 117.129 126.922 117.129H131.196C132.401 117.129 133.004 117.787 133.004 119.101C133.004 120.416 132.401 121.075 131.196 121.075H127.141C126.52 121.075 126.21 121.403 126.21 122.061V137.405C126.21 138.757 126.228 139.542 126.265 139.762C126.447 140.748 126.904 141.241 127.635 141.241C127.817 141.241 128.273 141.151 129.004 140.967C129.515 140.894 129.881 140.858 130.1 140.858C131.341 140.858 131.962 141.461 131.962 142.666C131.962 143.946 131.213 144.584 129.717 144.584C129.095 144.584 128.155 144.511 126.895 144.365C125.635 144.219 124.694 144.146 124.073 144.146C122.978 144.146 121.991 144.201 121.115 144.31C119.691 144.493 118.777 144.584 118.375 144.584C116.805 144.584 116.02 143.946 116.02 142.666C116.02 142.192 116.211 141.772 116.595 141.406C116.978 141.041 117.426 140.858 117.937 140.858C118.302 140.858 118.713 140.922 119.17 141.049C119.626 141.178 120.037 141.241 120.403 141.241C121.096 141.241 121.535 140.803 121.717 139.926C121.9 139.049 122.009 136.931 122.046 133.569V122.061C122.046 121.403 121.72 121.075 121.069 121.075H118.357C117.091 121.075 116.458 120.399 116.458 119.047C116.458 117.769 117.115 117.129 118.43 117.129H121.553C122.027 117.129 122.265 116.892 122.265 116.416V115.43C122.265 112.544 123.032 110.334 124.566 108.799C126.1 107.265 128.273 106.497 131.086 106.497C133.387 106.497 135.231 106.963 136.62 107.895C138.007 108.827 138.701 110.078 138.701 111.649C138.701 112.453 138.445 113.101 137.934 113.594C137.422 114.087 136.784 114.334 136.016 114.334C135.285 114.334 134.675 114.106 134.182 113.649C133.689 113.193 133.442 112.635 133.442 111.978Z" fill="#5C6C7D"/>
<path fill-rule="evenodd" clip-rule="evenodd" d="M144.837 122.225L151.138 140.748L157.821 122.499C158.004 121.988 158.096 121.586 158.096 121.294C158.096 120.673 157.675 120.362 156.836 120.362C156.398 120.362 156.05 120.399 155.794 120.472C155.21 120.545 154.827 120.581 154.644 120.581C153.438 120.581 152.836 119.998 152.836 118.828C152.836 117.585 153.621 116.965 155.192 116.965C155.411 116.965 155.776 117.001 156.288 117.074L158.26 117.348C158.771 117.421 159.319 117.458 159.904 117.458C160.525 117.458 161.438 117.375 162.643 117.211C163.848 117.047 164.761 116.965 165.383 116.965C166.952 116.965 167.738 117.577 167.738 118.8C167.738 119.988 167.136 120.581 165.93 120.581C165.565 120.581 165.291 120.545 165.108 120.472C164.633 120.362 164.305 120.307 164.122 120.307C163.428 120.307 162.716 121.239 161.986 123.102L154.535 141.734C152.891 145.863 151.338 148.859 149.877 150.722C147.394 153.901 144.289 155.489 140.564 155.489C138.335 155.489 136.463 154.923 134.948 153.791C133.433 152.658 132.674 151.288 132.674 149.681C132.674 148.548 133.003 147.626 133.661 146.914C134.318 146.201 135.176 145.845 136.236 145.845C137.076 145.845 137.77 146.091 138.318 146.584C138.865 147.078 139.14 147.689 139.14 148.42C139.14 149.589 138.609 150.339 137.551 150.667C138.098 151.47 139.14 151.873 140.673 151.873C142.609 151.873 144.353 151.151 145.906 149.708C147.457 148.265 148.234 146.648 148.234 144.858C148.234 143.945 147.741 142.246 146.755 139.762L140.728 124.527L140.071 122.773C139.45 121.129 138.737 120.307 137.934 120.307C137.715 120.307 137.322 120.353 136.756 120.444C136.189 120.535 135.815 120.581 135.633 120.581C134.354 120.581 133.716 119.998 133.716 118.828C133.716 117.585 134.555 116.965 136.236 116.965C136.784 116.965 137.203 116.986 137.496 117.028L139.687 117.348H140.126C140.381 117.385 140.6 117.402 140.783 117.402C142.098 117.402 143.503 117.319 145.002 117.152C146.133 117.027 146.882 116.965 147.248 116.965C148.782 116.965 149.549 117.567 149.549 118.773C149.549 119.979 148.855 120.581 147.467 120.581C147.248 120.581 146.9 120.545 146.426 120.472C145.951 120.399 145.605 120.362 145.385 120.362C144.873 120.362 144.618 120.618 144.618 121.129C144.618 121.422 144.691 121.787 144.837 122.225Z" fill="#5C6C7D"/>
</svg>
