<svg width="256" height="256" viewBox="0 0 256 256" fill="none" xmlns="http://www.w3.org/2000/svg">
<path fill-rule="evenodd" clip-rule="evenodd" d="M39.3728 129.648L35.584 152.074H53.8624V103.126H34.8672V118.538C34.8672 129.187 31.5392 134.461 24.832 134.461C20.48 134.461 17.7664 132.31 17.7664 128.88C17.7664 124.784 21.6576 122.122 29.5936 120.739V103.126H1.38241V122.326L24.2176 116.848V119.254C7.57759 123.094 0 129.085 0 138.352C0 147.056 6.75841 153.2 16.3328 153.2C27.3408 153.2 34.5088 145.008 36.9664 129.648H39.3728ZM71.2192 123.453L75.52 103.126H57.2416V152.074H76.1856V131.85C76.1856 121.917 78.08 117.821 82.688 117.821C87.0912 117.821 88.9344 121.558 88.9344 130.365V152.074H108.646V122.224C108.646 110.243 101.99 102 92.3648 102C83.4048 102 77.1072 109.219 73.6256 123.453H71.2192ZM143.872 105.482V107.888C137.984 107.888 134.246 111.216 134.246 116.49C134.246 122.224 138.598 126.422 144.486 126.422C150.579 126.422 154.931 121.968 154.931 115.619C154.931 107.478 147.763 102 137.062 102C121.805 102 110.643 113.162 110.643 128.368C110.643 143.062 121.088 153.2 136.192 153.2C142.08 153.2 148.122 151.664 154.214 148.592V131.184C150.17 133.539 146.176 134.717 142.131 134.717C133.12 134.717 127.181 129.034 127.181 120.33C127.181 110.448 134.81 103.638 143.872 105.482ZM238.746 116.387V118.794C220.672 122.48 212.429 128.419 212.429 137.738C212.429 147.363 221.389 153.2 236.134 153.2C243.456 153.2 249.651 151.766 256 148.592V131.184C250.931 134.102 245.606 135.587 239.923 135.587C233.37 135.587 230.042 133.539 230.042 129.597C230.042 123.709 237.466 121.354 256 121.354V103.126H213.811V121.814L238.746 116.387ZM195.891 129.648L192.102 152.074H210.381V103.126H191.386V118.538C191.386 129.187 188.058 134.461 181.35 134.461C176.998 134.461 174.285 132.31 174.285 128.88C174.285 124.784 178.176 122.122 186.112 120.739V103.126H157.901V122.326L180.736 116.848V119.254C164.096 123.094 156.518 129.085 156.518 138.352C156.518 147.056 163.277 153.2 172.851 153.2C183.859 153.2 191.027 145.008 193.485 129.648H195.891Z" fill="black"/>
</svg>
