<svg width="256" height="256" viewBox="0 0 256 256" fill="none" xmlns="http://www.w3.org/2000/svg">
<path d="M134.389 159.343C134.389 160.475 133.94 161.56 133.14 162.36C132.339 163.16 131.254 163.61 130.123 163.61C128.991 163.61 127.906 163.16 127.106 162.36C126.305 161.56 125.856 160.475 125.856 159.343V52.6766C125.856 51.545 126.305 50.4597 127.106 49.6596C127.906 48.8594 128.991 48.4099 130.123 48.4099C131.254 48.4099 132.339 48.8594 133.14 49.6596C133.94 50.4597 134.389 51.545 134.389 52.6766V159.343Z" fill="#182542"/>
<path d="M61.856 150.81H194.123V184.943H100.256C74.656 184.943 61.856 150.81 61.856 150.81Z" fill="#182542"/>
<path d="M70.3893 142.276C70.3893 142.276 78.9226 120.943 91.7226 103.876C104.523 86.8098 125.856 69.7432 125.856 69.7432C125.856 69.7432 121.589 116.676 121.589 138.01V142.276C121.589 142.276 108.789 138.01 95.9893 138.01C83.1893 138.01 70.3893 142.276 70.3893 142.276Z" fill="#182542"/>
<path d="M134.389 56.9434C134.389 56.9434 159.989 82.5434 172.789 103.877C184.612 123.58 189.856 142.277 189.856 142.277C189.856 142.277 177.056 138.01 164.256 138.01C151.456 138.01 138.656 142.277 138.656 142.277V138.01C138.656 99.61 134.389 56.9434 134.389 56.9434Z" fill="#182542"/>
<path d="M57.5893 150.81C56.4577 150.81 55.3725 151.259 54.5723 152.059C53.7722 152.86 53.3226 153.945 53.3226 155.076C53.3226 156.208 53.7722 157.293 54.5723 158.093C55.3725 158.894 56.4577 159.343 57.5893 159.343H198.389V150.81H57.5893Z" fill="#182542"/>
<path d="M12.2096 127.999C12.2096 64.0494 64.0508 12.2083 128 12.2083C158.709 12.2083 188.161 24.4075 209.876 46.1225C231.591 67.8374 243.79 97.2891 243.79 127.999C243.79 191.948 191.949 243.789 128 243.789C64.0508 243.789 12.2096 191.948 12.2096 127.999ZM29.624 128.095L29.6866 129.437C29.6866 145.424 39.4426 176.325 59.1966 197.28C78.9506 218.234 113.207 228.832 130.052 228.546C146.897 228.26 180.07 219.208 200.456 199.942C220.842 180.675 228.44 151.194 228.44 135.207C228.44 119.219 223.587 85.8803 202.73 62.8272C181.874 39.7742 144.488 26.4225 128.501 26.4225L126.632 26.323C110.645 26.323 72.669 41.5468 53.5556 63.0544C34.4423 84.562 29.624 112.108 29.624 128.095Z" fill="#182542" stroke="black"/>
</svg>
