<svg width="256" height="256" viewBox="0 0 256 256" fill="none" xmlns="http://www.w3.org/2000/svg">
<g clip-path="url(#clip0_327_2)">
<mask id="mask0_327_2" style="mask-type:luminance" maskUnits="userSpaceOnUse" x="0" y="8" width="256" height="241">
<path d="M256 8H0V248.36H256V8Z" fill="white"/>
</mask>
<g mask="url(#mask0_327_2)">
<path d="M215.632 58.586C215.632 58.586 222.07 65.4841 231.064 65.4841C238.167 65.4841 243.328 61.1919 243.328 55.3158C243.328 48.1111 236.735 44.7898 228.764 44.7898H224.063L221.253 38.4537L233.721 23.6868C236.378 20.5188 238.626 18.526 238.626 18.526C238.626 18.526 236.634 18.6282 232.597 18.6282H212.311V8H253.853V15.7667L237.196 35.0303C246.598 36.3588 255.795 43.0525 255.795 54.8559C255.795 66.4549 247.007 77.1852 231.831 77.1852C217.37 77.1852 209.348 68.09 209.348 68.09L215.632 58.586Z" fill="#04AA6D"/>
<path d="M134.591 72.9452L189.47 170.642L216.552 122.356L164.739 30.126H104.443L79.4561 74.6314L54.4697 30.126H0.254883L79.1498 170.642L79.4561 170.131L79.7631 170.642L134.591 72.9452Z" fill="#04AA6D"/>
<path d="M0.817139 236.862H8.83947C8.83947 239.213 10.8834 241.461 14.5114 241.461C17.8838 241.461 20.1321 239.774 20.1321 237.526C20.1321 235.585 18.6502 234.716 16.0954 234.154L11.4966 232.978C3.72971 230.935 1.7369 226.796 1.7369 222.402C1.7369 217.036 7.0511 212.131 14.5625 212.131C20.6942 212.131 27.6435 215.248 27.5413 222.913H19.4167C19.4167 220.562 17.2706 219.08 14.8179 219.08C12.1608 219.08 10.3214 220.613 10.3214 222.759C10.3214 224.548 12.0075 225.57 14.0004 226.029L19.5189 227.511C27.2858 229.504 28.6655 234.358 28.6655 237.526C28.6655 244.527 21.665 248.359 14.6647 248.359C7.86861 248.359 0.970429 244.22 0.817139 236.862Z" fill="#04AA6D"/>
<path d="M35.7688 230.219C35.7688 219.285 44.5577 212.131 54.5217 212.131C60.5001 212.131 65.3544 214.788 68.5225 218.774L62.4929 223.577C60.7046 221.431 57.792 220.102 54.675 220.102C48.6965 220.102 44.4043 224.394 44.4043 230.219C44.4043 235.993 48.6965 240.388 54.675 240.388C57.792 240.388 60.7046 239.059 62.4929 236.913L68.5225 241.716C65.3544 245.702 60.5001 248.359 54.5217 248.359C44.5577 248.359 35.7688 241.154 35.7688 230.219Z" fill="#04AA6D"/>
<path d="M109.809 228.125V247.44H101.224V228.738C101.224 223.22 97.9031 220.256 94.071 220.256C90.1359 220.256 85.2819 222.556 85.2819 229.249V247.491H76.6975V194.248H85.3328V218.213C87.0194 214.022 92.589 212.081 96.0125 212.081C104.903 212.132 109.809 218.11 109.809 228.125Z" fill="#04AA6D"/>
<path d="M118.802 230.219C118.802 219.285 127.284 212.131 137.094 212.131C146.905 212.131 155.49 219.285 155.49 230.219C155.49 241.154 146.905 248.359 137.094 248.359C127.284 248.359 118.802 241.154 118.802 230.219ZM146.854 230.219C146.854 224.292 142.408 220.102 137.094 220.102C131.78 220.102 127.437 224.292 127.437 230.219C127.437 236.249 131.78 240.388 137.094 240.388C142.408 240.388 146.854 236.249 146.854 230.219Z" fill="#04AA6D"/>
<path d="M162.797 230.219C162.797 219.285 171.279 212.131 181.09 212.131C190.9 212.131 199.485 219.285 199.485 230.219C199.485 241.154 190.9 248.359 181.09 248.359C171.33 248.359 162.797 241.154 162.797 230.219ZM190.85 230.219C190.85 224.292 186.404 220.102 181.09 220.102C175.775 220.102 171.432 224.292 171.432 230.219C171.432 236.249 175.775 240.388 181.09 240.388C186.455 240.388 190.85 236.249 190.85 230.219Z" fill="#04AA6D"/>
<path d="M208.989 247.491V194.248H217.573V247.491H208.989Z" fill="#04AA6D"/>
<path d="M226.925 236.862H234.947C234.947 239.213 236.991 241.461 240.619 241.461C243.991 241.461 246.24 239.774 246.24 237.526C246.24 235.585 244.758 234.716 242.203 234.154L237.605 232.978C229.837 230.935 227.844 226.796 227.844 222.402C227.844 217.036 233.158 212.131 240.67 212.131C246.802 212.131 253.751 215.248 253.649 222.913H245.473C245.473 220.562 243.327 219.08 240.874 219.08C238.217 219.08 236.378 220.613 236.378 222.759C236.378 224.548 238.064 225.57 240.057 226.029L245.576 227.511C253.342 229.504 254.722 234.358 254.722 237.526C254.722 244.527 247.722 248.359 240.721 248.359C233.925 248.359 227.078 244.22 226.925 236.862Z" fill="#04AA6D"/>
</g>
</g>
<defs>
<clipPath id="clip0_327_2">
<rect width="256" height="256" fill="white"/>
</clipPath>
</defs>
</svg>
