<svg width="256" height="256" viewBox="0 0 256 256" fill="none" xmlns="http://www.w3.org/2000/svg">
<path fill-rule="evenodd" clip-rule="evenodd" d="M68.3999 106L46.5745 151H26.0741L35.2081 132.35H34.7982C27.2628 142.667 16.0197 149.459 0 151V132.608C0 132.608 10.2482 131.97 16.2728 125.289H0V106H18.2889V121.865L18.6993 121.864L26.1729 106H40.0043V121.765L40.4146 121.764L48.1685 106H68.3999Z" fill="#146EF5"/>
<path d="M187.416 146.033H193.306V110.375H187.416V146.033Z" fill="black"/>
<path fill-rule="evenodd" clip-rule="evenodd" d="M154.945 145.669C156.225 146.23 157.527 146.511 158.85 146.511C161.037 146.511 162.993 145.949 164.719 144.827C166.445 143.704 167.783 142.157 168.732 140.185C169.681 138.197 170.156 135.944 170.156 133.426C170.156 130.908 169.667 128.655 168.689 126.668C167.711 124.681 166.351 123.141 164.611 122.049C162.871 120.941 160.893 120.395 158.678 120.41C157.268 120.41 155.916 120.698 154.621 121.275C153.327 121.851 152.248 122.671 151.385 123.732C151.319 123.813 151.254 123.895 151.191 123.977V110.398H145.279V146.033H151.148L151.136 142.704C151.288 142.9 151.45 143.092 151.622 143.279C152.557 144.296 153.665 145.092 154.945 145.669ZM160.986 139.912C160.023 140.534 158.922 140.845 157.685 140.845C156.462 140.845 155.341 140.526 154.319 139.889C153.298 139.236 152.485 138.349 151.881 137.226C151.292 136.104 150.997 134.829 150.997 133.403C150.982 131.977 151.27 130.703 151.86 129.581C152.464 128.443 153.276 127.563 154.298 126.941C155.319 126.304 156.448 125.993 157.685 126.008C158.922 125.993 160.023 126.296 160.986 126.918C161.964 127.525 162.712 128.397 163.23 129.535C163.762 130.658 164.028 131.947 164.028 133.403C164.028 134.86 163.762 136.149 163.23 137.272C162.712 138.395 161.964 139.274 160.986 139.912Z" fill="black"/>
<path d="M76.9331 112.537H83.6647L89.6864 135.731L96.0923 112.537H101.702L108.649 135.265L114.432 112.537H120.602L111.497 146.033H105.694L98.6289 123.829L92.144 146.033H86.2754L76.9331 112.537Z" fill="black"/>
<path fill-rule="evenodd" clip-rule="evenodd" d="M130.543 146.625C128.198 146.64 126.084 146.094 124.2 144.986C122.33 143.864 120.856 142.309 119.777 140.321C118.712 138.334 118.18 136.066 118.18 133.517C118.18 131.045 118.727 128.807 119.82 126.805C120.913 124.802 122.394 123.239 124.264 122.117C126.134 120.994 128.22 120.433 130.521 120.433C133.11 120.433 135.376 121.04 137.318 122.253C139.274 123.467 140.734 125.189 141.698 127.419C142.676 129.634 143.028 132.175 142.755 135.042H124.274C124.325 136.184 124.596 137.224 125.084 138.16C125.631 139.191 126.393 139.995 127.371 140.572C128.35 141.148 129.443 141.436 130.651 141.436C131.571 141.421 132.427 141.254 133.218 140.936C134.01 140.602 134.678 140.155 135.225 139.593C135.786 139.032 136.181 138.395 136.412 137.682H142.582C142.208 139.426 141.46 140.981 140.338 142.347C139.216 143.697 137.807 144.751 136.109 145.51C134.412 146.268 132.557 146.64 130.543 146.625ZM125.106 128.784C124.761 129.418 124.522 130.101 124.389 130.832H136.64C136.551 129.908 136.281 129.066 135.829 128.306C135.311 127.411 134.606 126.721 133.715 126.236C132.823 125.735 131.816 125.485 130.694 125.485C129.5 125.485 128.414 125.773 127.436 126.349C126.458 126.926 125.681 127.738 125.106 128.784Z" fill="black"/>
<path d="M174.493 120.956C174.493 118.923 174.931 117.118 175.809 115.54C176.686 113.947 177.916 112.711 179.498 111.831C181.095 110.936 182.957 110.473 185.086 110.443V115.973C184.094 115.988 183.245 116.208 182.54 116.632C181.85 117.042 181.318 117.641 180.944 118.43C180.599 119.156 180.414 119.998 180.386 120.956H184.957V126.213H180.383V146.033H174.493V126.213H170.695V120.956H174.493Z" fill="black"/>
<path fill-rule="evenodd" clip-rule="evenodd" d="M208.28 146.579C205.878 146.579 203.727 146.025 201.828 144.918C199.944 143.795 198.463 142.248 197.384 140.276C196.319 138.288 195.787 136.036 195.787 133.517C195.787 130.984 196.319 128.723 197.384 126.736C198.463 124.734 199.944 123.179 201.828 122.071C203.727 120.964 205.878 120.41 208.28 120.41C210.696 120.41 212.854 120.964 214.752 122.071C216.665 123.179 218.154 124.726 219.218 126.713C220.283 128.701 220.822 130.969 220.837 133.517C220.822 136.036 220.283 138.288 219.218 140.276C218.168 142.248 216.687 143.795 214.774 144.918C212.861 146.025 210.696 146.579 208.28 146.579ZM208.28 140.867C209.545 140.867 210.667 140.564 211.645 139.957C212.624 139.335 213.379 138.47 213.911 137.363C214.443 136.24 214.709 134.958 214.709 133.517C214.709 132.061 214.443 130.771 213.911 129.649C213.379 128.526 212.624 127.661 211.645 127.055C210.667 126.433 209.545 126.122 208.28 126.122C207.028 126.122 205.914 126.433 204.935 127.055C203.972 127.661 203.224 128.526 202.692 129.649C202.159 130.771 201.901 132.061 201.915 133.517C201.915 134.958 202.181 136.24 202.713 137.363C203.26 138.47 204.008 139.335 204.957 139.957C205.921 140.564 207.028 140.867 208.28 140.867Z" fill="black"/>
<path d="M227.201 120.956H220.643L227.741 146.033H233.48L238.149 130.016L243.188 146.033H248.841L255.962 120.956H250.029L245.99 136.565L241.526 120.956H235.789L231.347 136.909L227.201 120.956Z" fill="black"/>
</svg>
