<svg width="256" height="256" viewBox="0 0 256 256" fill="none" xmlns="http://www.w3.org/2000/svg">
<g clip-path="url(#clip0_445_13)">
<path d="M59.7498 39.7112H198.191L238.758 82.032L123.975 210.497L17.2266 82.032L59.7498 39.7112Z" fill="#18253F"/>
<path d="M151.799 180.154H97.5377L73.0303 150.174L142.479 150.172L142.482 145.919H182.179L151.799 180.154Z" fill="#274D82"/>
<path d="M227.108 69.9623L77.3871 156.339L57.856 131.924L173.766 65.0515L171.637 61.3654L202.51 43.5542L227.108 69.9623Z" fill="#274D82"/>
<path d="M146.891 39.7541L34.469 104.612L16.9849 82.8021L92.2556 39.3772L146.891 39.7541Z" fill="#274D82"/>
<g filter="url(#filter0_d_445_13)">
<path d="M203.602 27H54.4821L0 81.161L123.693 230L133.561 218.936L256 81.6693L203.602 27ZM198.154 39.7518L238.627 81.9805L124.036 210.451L17.2696 81.9805L59.7481 39.7518H198.154Z" fill="black"/>
</g>
<path d="M203.602 27H54.4821L0 81.161L123.693 230L133.561 218.936L256 81.6693L203.602 27ZM198.154 39.7518L238.627 81.9805L124.036 210.451L17.2696 81.9805L59.7481 39.7518H198.154Z" fill="#3068B7"/>
</g>
<defs>
<filter id="filter0_d_445_13" x="-3" y="24" width="264" height="211" filterUnits="userSpaceOnUse" color-interpolation-filters="sRGB">
<feFlood flood-opacity="0" result="BackgroundImageFix"/>
<feColorMatrix in="SourceAlpha" type="matrix" values="0 0 0 0 0 0 0 0 0 0 0 0 0 0 0 0 0 0 127 0" result="hardAlpha"/>
<feOffset dx="1" dy="1"/>
<feGaussianBlur stdDeviation="2"/>
<feColorMatrix type="matrix" values="0 0 0 0 0 0 0 0 0 0 0 0 0 0 0 0 0 0 0.36 0"/>
<feBlend mode="normal" in2="BackgroundImageFix" result="effect1_dropShadow_445_13"/>
<feBlend mode="normal" in="SourceGraphic" in2="effect1_dropShadow_445_13" result="shape"/>
</filter>
<clipPath id="clip0_445_13">
<rect width="256" height="256" fill="white"/>
</clipPath>
</defs>
</svg>
